<svg xmlns="http://www.w3.org/2000/svg" width="29" height="33" viewBox="0 0 29 33">
  <g fill="#264D8E">
    <path d="M24.302,29 L20,29 C19.448,29 19,28.552 19,28 C19,27.448 19.448,27 20,27 L24.302,27 C25.491,27 27,25.616 27,24.061 L27,5.142 C27,3.645 25.291,2 23.734,2 L4.815,2 C3.368,2 2,3.527 2,5.142 L2,24.06 C2,25.626 3.315,27 4.815,27 L15,27 C15.552,27 16,27.448 16,28 C16,28.552 15.552,29 15,29 L4.815,29 C2.205,29 0,26.738 0,24.061 L0,5.142 C0,2.403 2.25,0 4.815,0 L23.734,0 C26.392,0 29,2.547 29,5.142 L29,24.06 C29,26.6 26.717,29 24.302,29 Z"/>
    <path d="M9,25 C8.448,25 8,24.552 8,24 L8,14 C8,13.448 8.448,13 9,13 L10.55,13 C10.636,12.176 10.708,11.521 10.779,11 L9,11 C8.448,11 8,10.552 8,10 L8,6.65 C8,5.194 10,5.022 11,5.002 L11,5 L11,5 L11,2 L10.124,2 C6.487,2 5.171,3.748 5,4.252 L5,10 C5,10.552 4.552,11 4,11 L2,11 L2,13 L4,13 C4.552,13 5,13.448 5,14 L5,24 C5,24.552 4.552,25 4,25 C3.448,25 3,24.552 3,24 L3,15 L1,15 C0.448,15 0,14.552 0,14 L0,10 C0,9.448 0.448,9 1,9 L3,9 L3,4.177 C3,2.948 5.05,0 10.124,0 L12,0 C12.552,0 13,0.448 13,1 L13,6 C13,6.552 12.552,7 12,7 L10.998,7 C10.788,7 10.324,7.082 10,7.172 L10,9 L12,9 C12.552,9 13,9.448 13,10 C13,10.152 12.966,10.296 12.905,10.426 C12.808,10.885 12.597,12.635 12.446,14.103 C12.393,14.613 11.964,15 11.451,15 L10,15 L10,24 C10,24.552 9.552,25 9,25 Z" transform="translate(11 4)"/>
    <circle cx="15" cy="32" r="1"/>
    <circle cx="19" cy="32" r="1"/>
    <circle cx="23" cy="32" r="1"/>
    <circle cx="7" cy="32" r="1"/>
    <circle cx="11" cy="32" r="1"/>
  </g>
</svg>
