<?xml version="1.0" encoding="UTF-8"?>
<svg width="130px" height="131px" viewBox="0 0 130 131" version="1.1" xmlns="http://www.w3.org/2000/svg" xmlns:xlink="http://www.w3.org/1999/xlink">
    <!-- Generator: Sketch 50.2 (55047) - http://www.bohemiancoding.com/sketch -->
    <title>logo-ueb</title>
    <desc>Created with Sketch.</desc>
    <defs></defs>
    <g id="Welcome" stroke="none" stroke-width="1" fill="none" fill-rule="evenodd">
        <g id="Detalle-curso" transform="translate(-159.000000, -10.000000)">
            <g id="Header">
                <g id="logo-ueb" transform="translate(159.000000, 10.000000)">
                    <polygon id="Fill-1" fill="#77C23A" points="0 131 129.602952 131 129.602952 0 0 0"></polygon>
                    <g id="Group-72" transform="translate(18.795181, 28.674257)" fill="#FEFEFE">
                        <path d="M43.768259,57.0421226 C39.2456687,45.9644558 37.6512108,34.4933308 37.6512108,22.6595605 C37.6512108,17.5588247 37.9762108,12.4470279 38.8188614,7.41502875 L43.1347048,7.41502875 C42.090006,12.2021041 41.7657892,17.109271 41.7657892,21.9974762 C41.7657892,32.2661043 43.0313313,43.1857557 45.9751265,53.0798874 C48.9220542,43.1857557 50.185247,32.2661043 50.185247,21.9974762 C50.185247,17.109271 49.8610301,12.2021041 48.8194639,7.41502875 L53.1329578,7.41502875 C53.9756084,12.4470279 54.298259,17.5588247 54.298259,22.6595605 C54.298259,34.4933308 52.7092831,45.9644558 48.1843434,57.0421226 L43.768259,57.0421226 Z" id="Fill-2"></path>
                        <path d="M61.3936747,19.6300111 C61.7868072,19.2705261 62.3890361,19.3013391 62.748494,19.6947974 C63.1056024,20.0890457 63.0774096,20.7005651 62.6858434,21.0608401 C62.2942771,21.4211152 61.6904819,21.3910922 61.3341566,20.9952638 C60.9778313,20.6010154 61.005241,19.9902861 61.3936747,19.6300111" id="Fill-4"></path>
                        <path d="M61.3936747,22.6306437 C61.7868072,22.2727389 62.3890361,22.3003916 62.748494,22.6970102 C63.1056024,23.0896783 63.0774096,23.7011978 62.6858434,24.0614728 C62.2942771,24.4217478 61.6904819,24.3933051 61.3341566,23.9966865 C60.9778313,23.6016481 61.005241,22.9909187 61.3936747,22.6306437" id="Fill-6"></path>
                        <path d="M63.4233976,24.9722733 C63.8149639,24.6119983 64.4164096,24.6412312 64.7758675,25.0362696 C65.1321928,25.4305179 65.1016506,26.0420373 64.714,26.4007322 C64.3208675,26.7610072 63.7170723,26.7333545 63.360747,26.3383161 C63.0044217,25.9416976 63.0318313,25.3317583 63.4233976,24.9722733" id="Fill-8"></path>
                        <path d="M60.7925422,32.7997222 C61.1825422,32.4402372 61.7871205,32.4694701 62.145012,32.8645085 C62.5029036,33.2571766 62.4731446,33.8686961 62.0815783,34.2289711 C61.690012,34.588456 61.0846506,34.5592232 60.7283253,34.1657649 C60.3751325,33.7699365 60.4009759,33.157627 60.7925422,32.7997222" id="Fill-10"></path>
                        <path d="M60.6901084,35.8350392 C61.0981205,35.4976764 61.7011325,35.5577222 62.0378795,35.9717225 C62.3738434,36.3841426 62.3158916,36.9901315 61.9094458,37.3306546 C61.4975181,37.6695975 60.8952892,37.6111318 60.5585422,37.1979217 C60.226494,36.7847115 60.2820964,36.1755623 60.6901084,35.8350392" id="Fill-12"></path>
                        <path d="M62.6295361,38.2701349 C63.0406807,37.9398828 63.6436928,38.0078294 63.9741747,38.4265701 C64.3046566,38.8453108 64.2341747,39.4489295 63.8238133,39.783132 C63.4095361,40.1157543 62.8073072,40.0478077 62.4768253,39.629067 C62.1479096,39.2119064 62.215259,38.6043374 62.6295361,38.2701349" id="Fill-14"></path>
                        <path d="M62.8207771,30.9287413 C63.2123434,30.5708365 63.8161386,30.6000694 64.1748133,30.9951078 C64.5311386,31.3901462 64.5013795,32.0008755 64.1113795,32.3595704 C63.718247,32.7198454 63.1144518,32.6898225 62.7581265,32.2947841 C62.4018012,31.8989556 62.4307771,31.2890163 62.8207771,30.9287413" id="Fill-16"></path>
                        <path d="M58.8347108,45.8445221 C59.2662169,45.534022 59.8621807,45.6351518 60.1699518,46.0704841 C60.4777229,46.5058164 60.3782651,47.1102252 59.946759,47.4199353 C59.515253,47.7272751 58.918506,47.6261453 58.6099518,47.1923931 C58.3053133,46.7554807 58.4047711,46.1534422 58.8347108,45.8445221" id="Fill-18"></path>
                        <path d="M58.6098735,49.2015584 C59.0515602,48.9060697 59.6436084,49.0245812 59.9388494,49.4693945 C60.2340904,49.9118375 60.113488,50.5122958 59.6757169,50.8101548 C59.2355964,51.1056435 58.6419819,50.9863419 58.346741,50.5415287 C58.0546325,50.0998758 58.1705361,49.4994174 58.6098735,49.2015584" id="Fill-20"></path>
                        <path d="M61.0954578,44.2126975 C61.5253976,43.9037775 62.1221446,44.0064875 62.4291325,44.4402396 C62.7353373,44.8795223 62.6343133,45.4799807 62.2028072,45.7881107 C61.7713012,46.0962406 61.1737711,45.9935306 60.8675663,45.5605685 C60.5629277,45.122866 60.6623855,44.5231977 61.0954578,44.2126975" id="Fill-22"></path>
                        <path d="M65.7238494,15.0963134 C65.9564398,14.6175268 66.5281265,14.4192176 67.0042711,14.6507101 C67.4796325,14.8845728 67.6816807,15.4621189 67.4475241,15.9409055 C67.2180663,16.4220622 66.6448133,16.6211616 66.1671024,16.3896691 C65.6933072,16.1558064 65.4943916,15.5774701 65.7238494,15.0963134" id="Fill-24"></path>
                        <path d="M66.5116024,12.088807 C66.5374458,11.5578754 66.9869639,11.1486157 67.5163614,11.172318 C68.0441928,11.1983905 68.452988,11.6511045 68.4247952,12.1859865 C68.4005181,12.7184983 67.9494337,13.127758 67.4216024,13.1024756 C66.8937711,13.076403 66.4873253,12.622899 66.5116024,12.088807" id="Fill-26"></path>
                        <path d="M66.3938193,8.65149893 C66.2943614,8.12609786 66.6381566,7.62281895 67.160506,7.52168912 C67.6789398,7.42213944 68.1785783,7.76582285 68.2764699,8.29122392 C68.3759277,8.81662498 68.0336988,9.3199039 67.5152651,9.42103373 C66.9936988,9.51821318 66.4948434,9.17610993 66.3938193,8.65149893" id="Fill-28"></path>
                        <path d="M65.3353373,5.5698834 C65.0706386,5.10926863 65.2249157,4.51750111 65.6806988,4.24808492 C66.1380482,3.97787865 66.7253976,4.13273371 66.9916627,4.59334848 C67.259494,5.05396325 67.1036506,5.64573077 66.6478675,5.91514696 C66.1920843,6.18298299 65.6047349,6.03049817 65.3353373,5.5698834" id="Fill-30"></path>
                        <path d="M63.7889639,17.3940147 C64.1805301,17.0337397 64.7858916,17.0629725 65.143,17.4580109 C65.497759,17.8522593 65.4695663,18.4629886 65.0795663,18.8224736 C64.688,19.1827486 64.0810723,19.1535157 63.7263133,18.7584773 C63.3715542,18.3634389 63.3989639,17.7534997 63.7889639,17.3940147" id="Fill-32"></path>
                        <path d="M30.585006,19.6300111 C30.195006,19.2705261 29.591994,19.3013391 29.2325361,19.6947974 C28.8762108,20.0890457 28.9051867,20.7005651 29.296753,21.0608401 C29.6875361,21.4211152 30.2928976,21.3910922 30.6492229,20.9952638 C31.0039819,20.6010154 30.9765723,19.9902861 30.585006,19.6300111" id="Fill-34"></path>
                        <path d="M30.585006,22.6306437 C30.195006,22.2727389 29.591994,22.3003916 29.2325361,22.6970102 C28.8762108,23.0896783 28.9051867,23.7011978 29.296753,24.0614728 C29.6875361,24.4217478 30.2928976,24.3933051 30.6492229,23.9966865 C31.0039819,23.6016481 30.9765723,22.9909187 30.585006,22.6306437" id="Fill-36"></path>
                        <path d="M28.5583373,24.9722733 C28.1667711,24.6119983 27.5653253,24.6412312 27.2058675,25.0362696 C26.8479759,25.4305179 26.8800843,26.0420373 27.2677349,26.4007322 C27.6608675,26.7610072 28.2646627,26.7333545 28.620988,26.3383161 C28.9773133,25.9416976 28.9499036,25.3317583 28.5583373,24.9722733" id="Fill-38"></path>
                        <path d="M31.1906807,32.7997222 C30.7991145,32.4402372 30.193753,32.4694701 29.8366446,32.8645085 C29.4818855,33.2571766 29.508512,33.8686961 29.898512,34.2289711 C30.2916446,34.588456 30.8954398,34.5592232 31.2517651,34.1657649 C31.6065241,33.7699365 31.5791145,33.157627 31.1906807,32.7997222" id="Fill-40"></path>
                        <path d="M31.2916265,35.8350392 C30.8836145,35.4976764 30.2821687,35.5577222 29.9422892,35.9717225 C29.6078916,36.3841426 29.6674096,36.9901315 30.0738554,37.3306546 C30.4842169,37.6695975 31.0864458,37.6111318 31.4231928,37.1979217 C31.7568072,36.7847115 31.6996386,36.1755623 31.2916265,35.8350392" id="Fill-42"></path>
                        <path d="M29.3521988,38.2701349 C28.9410542,37.9398828 28.3411747,38.0078294 28.005994,38.4265701 C27.6786446,38.8453108 27.745994,39.4489295 28.1610542,39.783132 C28.5721988,40.1157543 29.1744277,40.0478077 29.5064759,39.629067 C29.8338253,39.2119064 29.7649096,38.6043374 29.3521988,38.2701349" id="Fill-44"></path>
                        <path d="M29.1609578,30.9287413 C28.7693916,30.5708365 28.1655964,30.6000694 27.808488,30.9951078 C27.4505964,31.3901462 27.4803554,32.0008755 27.8719217,32.3595704 C28.2619217,32.7198454 28.8672831,32.6898225 29.2236084,32.2947841 C29.5799337,31.8989556 29.5525241,31.2890163 29.1609578,30.9287413" id="Fill-46"></path>
                        <path d="M33.1470241,45.8445221 C32.7155181,45.534022 32.1203373,45.6351518 31.8102169,46.0704841 C31.5024458,46.5058164 31.6050361,47.1102252 32.0349759,47.4199353 C32.4664819,47.7272751 33.0647952,47.6261453 33.3702169,47.1923931 C33.6764217,46.7554807 33.5769639,46.1534422 33.1470241,45.8445221" id="Fill-48"></path>
                        <path d="M33.3702952,49.2015584 C32.9301747,48.9060697 32.3381265,49.0245812 32.0444518,49.4693945 C31.7476446,49.9118375 31.8666807,50.5122958 32.3060181,50.8101548 C32.7477048,51.1056435 33.339753,50.9863419 33.634994,50.5415287 C33.9271024,50.0998758 33.8104157,49.4994174 33.3702952,49.2015584" id="Fill-50"></path>
                        <path d="M30.8863554,44.2126975 C30.4548494,43.9037775 29.8612349,44.0064875 29.554247,44.4402396 C29.2464759,44.8795223 29.3475,45.4799807 29.779006,45.7881107 C30.2089458,46.0962406 30.8080422,45.9935306 31.1126807,45.5605685 C31.4188855,45.122866 31.320994,44.5231977 30.8863554,44.2126975" id="Fill-52"></path>
                        <path d="M26.2578855,15.0963134 C26.0252952,14.6175268 25.4536084,14.4192176 24.9774639,14.6507101 C24.5021024,14.8845728 24.3016205,15.4621189 24.5342108,15.9409055 C24.7668012,16.4220622 25.3369217,16.6211616 25.8146325,16.3896691 C26.2868614,16.1558064 26.4873434,15.5774701 26.2578855,15.0963134" id="Fill-54"></path>
                        <path d="M25.4701325,12.088807 C25.4442892,11.5578754 24.9947711,11.1486157 24.4653735,11.172318 C23.9391084,11.1983905 23.5303133,11.6511045 23.5569398,12.1859865 C23.5827831,12.7184983 24.0307349,13.127758 24.5585663,13.1024756 C25.0879639,13.076403 25.4959759,12.622899 25.4701325,12.088807" id="Fill-56"></path>
                        <path d="M25.5879157,8.65149893 C25.6873735,8.12609786 25.3459277,7.62281895 24.8227952,7.52168912 C24.3012289,7.42213944 23.8031566,7.76582285 23.7036988,8.29122392 C23.604241,8.81662498 23.9480361,9.3199039 24.4680361,9.42103373 C24.9864699,9.51821318 25.4868916,9.17610993 25.5879157,8.65149893" id="Fill-58"></path>
                        <path d="M26.6448313,5.5698834 C26.9110964,5.10926863 26.7568193,4.51750111 26.3010361,4.24808492 C25.8436867,3.97787865 25.2563373,4.13273371 24.9900723,4.59334848 C24.7238072,5.05396325 24.8765181,5.64573077 25.3323012,5.91514696 C25.7896506,6.18298299 26.3754337,6.03049817 26.6448313,5.5698834" id="Fill-60"></path>
                        <path d="M28.1927711,17.3940147 C27.8012048,17.0337397 27.1974096,17.0629725 26.8403012,17.4580109 C26.4824096,17.8522593 26.5121687,18.4629886 26.9021687,18.8224736 C27.2937349,19.1827486 27.8990964,19.1535157 28.2554217,18.7584773 C28.611747,18.3634389 28.5843373,17.7534997 28.1927711,17.3940147" id="Fill-62"></path>
                        <path d="M32.0273795,2.71280769 C32.3304518,2.37623497 32.8441867,2.3549029 33.1793675,2.65987254 C33.5121988,2.96563226 33.5356928,3.48629287 33.2310542,3.81970528 C32.9264157,4.1594383 32.4111145,4.18156045 32.0790663,3.87738089 C31.7462349,3.56846086 31.722741,3.04859033 32.0273795,2.71280769 M39.7287048,45.7182679 L34.2593072,41.8271396 C33.8231024,41.4763455 33.7526205,40.8340131 34.1026807,40.3923602 L37.7583434,36.0745905 C38.5156325,35.2371091 38.4561145,33.9421732 37.6267771,33.178959 L33.0462349,28.97101 C32.632741,28.5909831 32.6021988,27.9431201 32.9788855,27.5275397 L37.1545482,22.9079607 C37.9118373,22.0728495 37.8515361,20.7755434 37.0229819,20.0123292 L30.9584036,14.424116 C30.1321988,13.6601118 30.1517771,12.4228515 30.8284036,11.5284846 L37.1388855,3.02330787 C37.7599096,2.20399823 37.7215361,1.24800531 37.0308133,0.610413333 C36.6831024,0.293592537 36.0041265,-0.0761634032 34.7589458,0.0597298058 C28.8063554,0.705222548 24.809247,5.97029432 25.4670783,12.0609963 C25.7975602,15.1201737 26.8790663,16.2183804 27.4726807,16.7635334 L32.0399096,20.9722725 C32.4526205,21.3530895 32.4815964,21.9970021 32.1041265,22.4157428 L27.9300301,27.0321616 C27.1758735,27.869643 27.2338253,29.1653689 28.0631627,29.927793 L32.6421386,34.1381123 C33.0548494,34.5205094 33.0846084,35.1652121 32.7063554,35.5823726 L29.0326807,40.2296044 C28.3302108,41.1129102 28.4743072,42.4015255 29.3506325,43.1086442 L34.8278614,47.0527076 C35.2687651,47.4003414 35.3462952,48.0426738 35.0009337,48.487487 L32.6405723,52.0475731 C31.9858735,52.9672225 32.195753,54.2463568 33.1088855,54.9052808 C34.0220181,55.564995 35.2899096,55.3532544 35.9414759,54.433605 L40.0709337,48.5957276 C40.7655723,47.7029408 40.6128614,46.4174858 39.7287048,45.7182679" id="Fill-64"></path>
                        <path d="M59.9023554,3.87706485 C59.5703072,4.1820345 59.055006,4.15912227 58.7488012,3.82017933 C58.446512,3.48597684 58.4692229,2.96610631 58.8059699,2.65955651 C59.1356687,2.35458687 59.6533193,2.37670902 59.9556084,2.71249166 C60.260247,3.0482743 60.2344036,3.56814483 59.9023554,3.87706485 M57.2240422,0.0594137751 C55.9772952,-0.0764794339 55.2951867,0.294066584 54.9513916,0.610097302 C54.2598855,1.24768928 54.221512,2.20447228 54.8425361,3.02299184 L61.1538012,11.5289586 C61.8296446,12.4225355 61.8523554,13.6605858 61.0238012,14.4245901 L54.9592229,20.0120132 C54.1298855,20.7760175 54.0688012,22.0725335 54.8260904,22.9076446 L59.0033193,27.5280138 C59.3792229,27.9428041 59.3486807,28.590667 58.9359699,28.9714841 L54.3562108,33.178643 C53.5253072,33.9426473 53.4673554,35.2367931 54.2246446,36.0742745 L57.8803072,40.3928342 C58.2288012,40.8336971 58.1583193,41.4768196 57.7228976,41.8268236 L52.2542831,45.7179518 C51.3693434,46.4179599 51.2174157,47.7034148 51.9089217,48.5962016 L56.0368133,54.433289 C56.691512,55.3529384 57.9609699,55.5646789 58.8733193,54.9049648 C59.7864518,54.2460408 59.9955482,52.9676965 59.3408494,52.0480471 L56.9812711,48.487171 C56.6351265,48.0423578 56.7134398,47.4000253 57.1535602,47.0523915 L62.6323554,43.1083282 C63.5086807,42.4019995 63.6496446,41.1125942 62.9510904,40.2300784 L59.2750663,35.5820566 C58.8960301,35.1656861 58.925006,34.5201934 59.3408494,34.1385863 L63.9174759,29.9282671 C64.7475964,29.1658429 64.8063313,27.8693269 64.0521747,27.0326356 L59.8780783,22.4162169 C59.4998253,21.9974762 59.5319337,21.3527735 59.9422952,20.9727466 L64.5095241,16.7640075 C65.1015723,16.2180644 66.1838614,15.1198577 66.5159096,12.0606803 C67.173741,5.96997829 63.1774157,0.704906518 57.2240422,0.0594137751" id="Fill-66"></path>
                        <path d="M44.3464458,82.4712183 C44.1263855,82.9816079 43.8311446,83.435112 43.431747,83.8285702 C43.0206024,84.2291392 42.5554217,84.5427996 42.0534337,84.7332082 C41.5256024,84.9394182 40.9875904,85.0460786 40.3939759,85.0460786 C39.8175904,85.0460786 39.2756627,84.9394182 38.7439157,84.7332082 C38.2207831,84.5135668 37.7712651,84.2117575 37.3765663,83.8285702 C36.9756024,83.435112 36.6631325,82.9816079 36.4587349,82.4712183 C36.2394578,81.9718898 36.1376506,81.4480688 36.1376506,80.8792135 C36.1376506,80.3206292 36.2394578,79.7873274 36.4587349,79.268247 C36.6787952,78.764178 36.9756024,78.3233151 37.3765663,77.9322271 C37.7955422,77.5411391 38.261506,77.2322191 38.7830723,77.0102075 C39.2991566,76.8008371 39.8403012,76.6973371 40.3939759,76.6973371 C40.9750602,76.6973371 41.5138554,76.8008371 42.0275904,77.0102075 C42.5444578,77.2179977 43.0049398,77.5292879 43.4090361,77.9322271 C43.8311446,78.3470174 44.1412651,78.8005215 44.3574096,79.3069607 C44.560241,79.7991786 44.6659639,80.3206292 44.6659639,80.8792135 C44.6659639,81.4480688 44.560241,81.9718898 44.3464458,82.4712183 L44.3464458,82.4712183 Z M45.1436747,76.3457529 C44.513253,75.7405541 43.7927711,75.2854698 42.9837952,74.9607483 C42.1575904,74.6486679 41.2992771,74.4835419 40.3939759,74.4835419 C39.5066867,74.4835419 38.6624699,74.6486679 37.8487952,74.9607483 C37.0366867,75.2712484 36.3036747,75.7405541 35.6771687,76.3457529 C35.0451807,76.9311998 34.5572892,77.6217269 34.2087952,78.4023228 C33.8736145,79.1789683 33.6958434,79.9959077 33.6958434,80.8254883 C33.6958434,81.6977331 33.8610843,82.5391649 34.1962651,83.3189707 C34.5283133,84.0964063 35.0209036,84.7995746 35.6771687,85.4221551 C36.2903614,86.0060219 37.0124096,86.4737473 37.8362651,86.7960987 C38.6444578,87.1073889 39.5066867,87.2748852 40.3939759,87.2748852 C41.2992771,87.2748852 42.1575904,87.1208202 42.9696988,86.8063697 C43.780241,86.4887588 44.4991566,86.0336746 45.156988,85.4221551 C45.7889759,84.824067 46.2627711,84.1335399 46.6120482,83.3711158 C46.9487952,82.5936802 47.1124699,81.7735805 47.1124699,80.9289884 C47.1124699,80.0346214 46.9487952,79.2042507 46.6237952,78.4402465 C46.2846988,77.6580704 45.7889759,76.9572723 45.1436747,76.3457529 L45.1436747,76.3457529 Z M85.2165663,84.9702312 L85.2165663,81.8889317 L91.0837952,81.8889317 L91.0837952,79.7367625 L85.2165663,79.7367625 L85.2165663,76.7810852 L91.2662651,76.7810852 L91.2662651,74.6360267 L82.7371687,74.6360267 L82.7371687,87.1073889 L91.4636145,87.1073889 L91.4636145,84.9702312 L85.2165663,84.9702312 Z M78.9773494,82.2942411 C78.9671687,83.0969591 78.7142169,83.6942572 78.1409639,84.1714636 C77.5935542,84.6415592 76.8440964,84.9038647 75.866747,84.9038647 C75.288012,84.9038647 74.7899398,84.7995746 74.3615663,84.6178569 C73.9237952,84.433769 73.5510241,84.1493414 73.2275904,83.7724748 C73.0654819,83.5781159 72.9464458,83.3466234 72.8853614,83.0716767 C72.8070482,82.7998902 72.764759,82.2808098 72.764759,81.5254964 L72.764759,74.5830916 L70.4639157,74.5830916 L70.4639157,81.5958132 C70.4639157,82.5525962 70.5281325,83.2684058 70.6722289,83.7724748 C70.8124096,84.2702232 71.0403012,84.7229372 71.3739157,85.1195557 C71.908012,85.7855904 72.5470482,86.2778083 73.32,86.6270222 C74.0812048,86.964385 74.9363855,87.1350416 75.866747,87.1350416 C77.4314458,87.1350416 78.7478916,86.6949688 79.7526506,85.8124531 C80.7699398,84.9394182 81.2844578,83.7471923 81.2672289,82.344806 L81.2672289,74.5830916 L78.9773494,74.5830916 L78.9773494,82.2942411 Z M66.6954819,82.4641076 C66.4746386,82.9816079 66.1809639,83.4501234 65.7792169,83.8388412 L65.7651205,83.8499023 C65.3555422,84.2820743 64.8919277,84.5886241 64.3899398,84.8106357 C63.8746386,85.0184259 63.3366265,85.1337771 62.771988,85.1337771 C62.2042169,85.1337771 61.6724699,85.0184259 61.1477711,84.7995746 C60.621506,84.5657119 60.171988,84.2560018 59.7678916,83.8499023 L59.7678916,83.8388412 C59.3716265,83.4501234 59.0685542,82.9816079 58.8625904,82.4641076 C58.6386145,81.9426569 58.5368072,81.4014543 58.5368072,80.8254883 C58.5368072,80.2439918 58.6386145,79.6964686 58.8625904,79.1679072 C59.0685542,78.6480367 59.3716265,78.1929524 59.7616265,77.7994942 C60.1853012,77.386284 60.6410843,77.0765739 61.1626506,76.8561425 C61.6936145,76.6317607 62.216747,76.532211 62.771988,76.532211 C63.3366265,76.532211 63.8746386,76.6317607 64.3899398,76.8561425 C64.9028916,77.0615625 65.3555422,77.3736428 65.7604217,77.7884331 C66.1809639,78.2166547 66.4871687,78.6828 66.6954819,79.2042507 C66.9124096,79.7098999 67.0165663,80.2439918 67.0165663,80.8254883 C67.0165663,81.4014543 66.9124096,81.9426569 66.6954819,82.4641076 L66.6954819,82.4641076 Z M68.0581325,85.0579297 C68.9861446,83.9415512 69.449759,82.6213329 69.449759,81.1288778 C69.449759,80.2179193 69.2766867,79.3575256 68.9571687,78.5658687 C68.6266867,77.7884331 68.1356627,77.0765739 67.4903614,76.4405621 C66.8756024,75.8298327 66.1504217,75.3478859 65.343012,75.0247445 C64.5183735,74.7000229 63.6725904,74.5325266 62.771988,74.5325266 C61.8846988,74.5325266 61.0342169,74.7000229 60.2268072,75.0247445 C59.4233133,75.3478859 58.7043976,75.8164014 58.0590964,76.4405621 C57.4412048,77.0489212 56.9548795,77.7497194 56.6228313,78.5413763 C56.2712048,79.3480447 56.1028313,80.1610337 56.1028313,81.0087861 C56.1028313,82.5525962 56.568012,83.9257497 57.4827108,85.0863725 C58.3833133,86.2398846 59.586988,87.0046789 61.0569277,87.3799654 C62.1540964,88.1613514 63.1815663,88.7586494 64.1557831,89.1702794 C65.165241,89.5985011 66.081506,89.8070813 66.9124096,89.8070813 L67.156747,89.8070813 C67.2366265,89.8070813 67.2992771,89.7991806 67.3603614,89.7873294 L67.4566867,89.7699477 L69.2923494,88.14713 L69.1513855,87.7552519 L69.0503614,87.5119082 L68.8091566,87.5648434 C68.5703012,87.6169885 68.368253,87.6422709 68.1740361,87.6643931 C67.9892169,87.6952061 67.8286747,87.6952061 67.6681325,87.6952061 C67.1935542,87.6952061 66.6954819,87.6256793 66.1676506,87.4984769 C65.8434337,87.4052479 65.4714458,87.2748852 65.076747,87.1208202 C66.2835542,86.6673162 67.2992771,85.9910104 68.0581325,85.0579297 L68.0581325,85.0579297 Z M52.4886747,79.7778465 L52.4886747,79.7778465 L52.2224096,79.6301021 C51.5128916,79.2153118 50.9960241,78.8384452 50.6624096,78.5137236 C50.4940361,78.3470174 50.3812651,78.2055937 50.3170482,78.0768111 C50.2356024,77.9503989 50.2144578,77.8547996 50.2144578,77.7781621 C50.2246386,77.4652917 50.3256627,77.2543412 50.6091566,77.0489212 C50.8965663,76.8427112 51.2677711,76.7257798 51.7681928,76.7257798 C52.195,76.7257798 52.6077108,76.8008371 53.0298193,76.9699136 C53.4566265,77.1540014 53.9296386,77.4265779 54.4449398,77.828727 L54.9469277,78.2055937 L54.9469277,75.5153822 L54.795,75.4237333 C54.3086747,75.1551072 53.8176506,74.948107 53.323494,74.8027329 C52.8371687,74.6747405 52.3492771,74.5949427 51.8433735,74.5949427 C50.729759,74.5949427 49.7751205,74.9093933 49.0303614,75.5319738 C48.2973494,76.1529741 47.9104819,76.9967762 47.9104819,77.9685706 C47.9104819,78.6733191 48.1046988,79.2943195 48.4993976,79.8126099 C48.7241566,80.0891367 49.0444578,80.3727743 49.4814458,80.6935455 C49.9309639,81.0372289 50.5065663,81.4117253 51.2035542,81.8431072 C51.6428916,82.0967219 51.9945181,82.3329548 52.2701807,82.5281038 C52.5450602,82.7240429 52.7361446,82.8915391 52.8285542,82.9942491 C53.0180723,83.2281119 53.0916867,83.4611845 53.1096988,83.7724748 C53.0916867,84.1493414 52.9765663,84.3847843 52.696988,84.6028455 C52.4260241,84.8106357 52.0133133,84.9394182 51.450241,84.9394182 C50.9239759,84.9394182 50.4313855,84.824067 49.9677711,84.5791432 C49.5104217,84.34054 49.0045181,83.9257497 48.4625904,83.3600547 L47.9245783,82.7722375 L47.9245783,85.8898806 L48.0577108,85.9783692 C48.5636145,86.3805183 49.1039759,86.6799574 49.6756627,86.8600949 C50.2496988,87.0631446 50.8809036,87.1500531 51.5598795,87.1500531 C52.679759,87.1500531 53.6343976,86.8356025 54.3713253,86.2153922 C55.1121687,85.5904415 55.4974699,84.7592807 55.4974699,83.7993374 C55.4974699,82.9816079 55.3079518,82.2650082 54.8960241,81.6835117 C54.4833133,81.0846335 53.6892169,80.4739041 52.4886747,79.7778465 L52.4886747,79.7778465 Z M29.9501205,84.4250782 C29.6290361,84.6707921 29.0385542,84.8398685 28.1778916,84.824067 L26.0328916,84.824067 L26.0328916,81.4480688 L27.8748193,81.4480688 C28.8412048,81.4480688 29.5115663,81.6155651 29.8812048,81.8889317 C30.2469277,82.1678288 30.438012,82.5391649 30.438012,83.1767569 C30.438012,83.7993374 30.2743373,84.1714636 29.9501205,84.4250782 L29.9501205,84.4250782 Z M26.0328916,75.9096305 L27.4801205,75.9096305 C28.2389759,75.9096305 28.7370482,76.0478939 29.0064458,76.2714857 C29.1411446,76.3915773 29.2406024,76.5164095 29.3189157,76.7107684 C29.3831325,76.8964364 29.4222892,77.1295091 29.4222892,77.4147268 C29.4222892,78.0365172 29.2406024,78.4260251 28.8670482,78.7104527 C28.5091566,78.980659 27.8748193,79.155266 26.9663855,79.155266 L26.0328916,79.155266 L26.0328916,75.9096305 Z M30.603253,79.9169 C30.94,79.6964686 31.235241,79.4491745 31.4506024,79.1363041 C31.8194578,78.6353954 31.98,78.0104447 31.98,77.2985855 C31.98,76.1529741 31.5946988,75.2159431 30.8233133,74.5736106 C30.0495783,73.9233774 28.9970482,73.6278887 27.6696386,73.6278887 L23.5887349,73.6278887 L23.5887349,87.1350416 L28.3705422,87.1350416 C29.7441566,87.1350416 30.8726506,86.7960987 31.7278313,86.1087319 C32.5720482,85.4221551 33.0278313,84.4630019 33.0137349,83.3055394 C33.0137349,82.4088022 32.724759,81.6155651 32.1789157,80.9835037 C31.7630723,80.5173584 31.235241,80.1610337 30.603253,79.9169 L30.603253,79.9169 Z M13.018012,74.5736106 L10.5386145,74.5736106 L10.5386145,87.1350416 L19.2556627,87.1350416 L19.2556627,84.9923533 L13.018012,84.9923533 L13.018012,74.5736106 Z M3.02210843,81.4654505 L8.85174699,81.4654505 L8.85174699,79.1789683 L3.02210843,79.1789683 L3.02210843,75.893829 L9.01698795,75.893829 L9.01698795,73.6381597 L0.550542169,73.6381597 L0.550542169,87.1350416 L9.21277108,87.1350416 L9.21277108,84.8493494 L3.02210843,84.8493494 L3.02210843,81.4654505 Z" id="Fill-68"></path>
                        <path d="M79.342994,69.4210458 L79.342994,62.7306755 L81.1872711,62.7306755 C81.6845602,62.7306755 82.1238976,62.787561 82.4833554,62.8649885 C82.847512,62.9550573 83.1701627,63.0838398 83.4238976,63.2616071 C83.8507048,63.5499851 84.1843193,63.9560846 84.4255241,64.4459322 C84.6753434,64.9405203 84.7865482,65.4856733 84.7865482,66.0806011 C84.7865482,66.6668381 84.6753434,67.2080407 84.4255241,67.7208005 C84.1843193,68.2130184 83.8507048,68.6017362 83.4238976,68.9011753 C83.1701627,69.0805227 82.847512,69.2108854 82.4833554,69.3033244 C82.1238976,69.3799618 81.6845602,69.4210458 81.1872711,69.4210458 L79.342994,69.4210458 Z M82.8193193,69.793962 C83.249259,69.6778208 83.6165482,69.4984733 83.9376325,69.248019 C84.419259,68.8845837 84.7865482,68.4326597 85.0559458,67.8748655 C85.3284759,67.3162812 85.4584759,66.7031816 85.4584759,66.06954 C85.4584759,65.4319481 85.3284759,64.8314897 85.0559458,64.2650046 C84.7865482,63.7064203 84.419259,63.250546 83.9376325,62.8886908 C83.6165482,62.642977 83.249259,62.4588891 82.8302831,62.3435379 C82.4191386,62.2408279 81.9328133,62.1768317 81.3407651,62.1768317 L78.7039578,62.1768317 L78.7039578,69.9748896 L81.3407651,69.9748896 C81.9187169,69.9748896 82.4113072,69.9093133 82.8193193,69.793962 L82.8193193,69.793962 Z M71.7638373,66.871468 L73.174259,63.4986301 L74.5619699,66.871468 L71.7638373,66.871468 Z M73.0411265,62.4723204 L69.8639578,69.9748896 L70.4810663,69.9748896 L71.5617892,67.3802774 L74.7616687,67.3802774 L75.8494398,69.9748896 L76.4673313,69.9748896 L73.2878133,62.4723204 L73.0411265,62.4723204 Z M62.5972711,69.4210458 L62.5972711,62.7306755 L64.4360663,62.7306755 C64.936488,62.7306755 65.3719096,62.787561 65.7298012,62.8649885 C66.0955241,62.9550573 66.4134759,63.0838398 66.6719096,63.2616071 C67.0987169,63.5499851 67.4323313,63.9560846 67.6813675,64.4459322 C67.9217892,64.9405203 68.0353434,65.4856733 68.0353434,66.0806011 C68.0353434,66.6668381 67.9217892,67.2080407 67.6813675,67.7208005 C67.4323313,68.2130184 67.0987169,68.6017362 66.6719096,68.9011753 C66.4134759,69.0805227 66.0955241,69.2108854 65.7298012,69.3033244 C65.3719096,69.3799618 64.936488,69.4210458 64.4360663,69.4210458 L62.5972711,69.4210458 Z M66.0681145,69.793962 C66.4933554,69.6778208 66.8528133,69.4984733 67.1887771,69.248019 C67.666488,68.8845837 68.0353434,68.4326597 68.3086566,67.8748655 C68.5780542,67.3162812 68.7033554,66.7031816 68.7033554,66.06954 C68.7033554,65.4319481 68.5780542,64.8314897 68.3086566,64.2650046 C68.0353434,63.7064203 67.666488,63.250546 67.1887771,62.8886908 C66.8528133,62.642977 66.4933554,62.4588891 66.0790783,62.3435379 C65.6702831,62.2408279 65.1823916,62.1768317 64.5887771,62.1768317 L61.9394398,62.1768317 L61.9394398,69.9748896 L64.5887771,69.9748896 C65.1667289,69.9748896 65.6546205,69.9093133 66.0681145,69.793962 L66.0681145,69.793962 Z M58.4294398,69.9748896 L59.0825723,69.9748896 L59.0825723,62.1768317 L58.4294398,62.1768317 L58.4294398,69.9748896 Z M55.9649217,67.9483426 C55.9649217,67.6923578 55.9210663,67.4466439 55.8443193,67.2080407 C55.7495602,66.9765482 55.6258253,66.7679679 55.4684157,66.5894106 C55.2248614,66.3152539 54.7448012,66.0308263 54.0517289,65.7448185 C53.9749819,65.7076849 53.9248614,65.6910932 53.886488,65.6634406 C53.2537169,65.3932343 52.8449217,65.1601616 52.6632349,64.9405203 C52.4690181,64.7343102 52.3781747,64.4459322 52.3781747,64.1101496 C52.3781747,63.6914089 52.5191386,63.342985 52.8159458,63.0561871 C53.1111867,62.787561 53.4839578,62.642977 53.946006,62.642977 C54.2295,62.642977 54.5153434,62.694332 54.796488,62.7954618 C55.0964277,62.900542 55.3901024,63.0727787 55.7111867,63.2892598 L55.7111867,62.591622 C55.417512,62.4233356 55.1348012,62.2929729 54.8505241,62.2021141 C54.5670301,62.1278469 54.2717892,62.0701713 53.9749819,62.0701713 C53.3179337,62.0701713 52.7901024,62.2661103 52.3781747,62.6571983 C51.9638976,63.0459161 51.7618494,63.5397141 51.7618494,64.1322717 C51.7618494,64.6268598 51.8902831,65.029799 52.1643795,65.3442495 C52.4306446,65.6539596 52.9318494,65.96683 53.6664277,66.2733798 C54.3759458,66.5759793 54.8254639,66.8335443 55.0196807,67.0539757 C55.2248614,67.2894186 55.3117892,67.5770066 55.3117892,67.9254304 C55.3117892,68.4073773 55.174741,68.7795034 54.8763675,69.0663013 C54.5944398,69.3396679 54.1926928,69.4834619 53.6938373,69.4834619 C53.3954639,69.4834619 53.0743795,69.4044542 52.764259,69.2725114 C52.4306446,69.1342479 52.0970301,68.9248776 51.736006,68.6388698 L51.736006,69.3894427 C52.0711867,69.6264658 52.3907048,69.793962 52.716488,69.9093133 C53.0469699,70.0230843 53.3711867,70.0783897 53.7048012,70.0783897 C54.3641988,70.0783897 54.9006446,69.8895613 55.3274518,69.4834619 C55.7495602,69.0805227 55.9649217,68.5748735 55.9649217,67.9483426 L55.9649217,67.9483426 Z M45.0120301,62.7109236 L46.2932349,62.7109236 C46.8719699,62.7109236 47.309741,62.8246946 47.6308253,63.0838398 C47.9409458,63.3319239 48.0944398,63.6803478 48.0944398,64.1322717 C48.0944398,64.4609437 48.0317892,64.7437912 47.8923916,64.9673829 C47.7482952,65.2028258 47.5423313,65.369532 47.2572711,65.492784 C47.1061265,65.5623107 46.9244398,65.6144558 46.6941988,65.6539596 C46.4553434,65.6768719 46.0582952,65.6910932 45.4858253,65.6910932 L45.0120301,65.6910932 L45.0120301,62.7109236 Z M45.0120301,66.2259752 L45.631488,66.2259752 C46.0731747,66.2259752 46.4020904,66.2623188 46.6143193,66.3152539 C46.8351627,66.3634486 47.0145,66.4740593 47.1593795,66.6131129 C47.2572711,66.7197732 47.3888373,66.8888497 47.5666084,67.1329834 C47.7365482,67.3676362 47.9534759,67.6781364 48.1845,68.0581633 L49.4061867,69.9748896 L50.099259,69.9748896 L47.9918494,66.6937007 C47.9017892,66.5506968 47.7960663,66.418754 47.6966084,66.3152539 C47.5799217,66.2109638 47.4483554,66.1193149 47.309741,66.0308263 C47.7960663,65.8751811 48.1641386,65.6381581 48.402994,65.3173869 C48.6496807,65.0005661 48.7640181,64.6023674 48.7640181,64.1322717 C48.7640181,63.4986301 48.5572711,63.0182634 48.1218494,62.6816907 C47.682512,62.3435379 47.067753,62.1768317 46.2564277,62.1768317 L44.4011867,62.1768317 L44.4011867,69.9748896 L45.0120301,69.9748896 L45.0120301,66.2259752 Z M41.6758855,69.4407977 L38.0585964,69.4407977 L38.0585964,66.2733798 L41.4691386,66.2733798 L41.4691386,65.7740513 L38.0585964,65.7740513 L38.0585964,62.6816907 L41.5873916,62.6816907 L41.5873916,62.1768317 L37.4422711,62.1768317 L37.4422711,69.9748896 L41.6758855,69.9748896 L41.6758855,69.4407977 Z M32.3620904,70.1036721 L35.6050422,62.1768317 L34.9487771,62.1768317 L32.3088373,68.7194576 L29.701006,62.1768317 L29.0157651,62.1768317 L32.2704639,70.1036721 L32.3620904,70.1036721 Z M26.1479337,69.9748896 L26.8073313,69.9748896 L26.8073313,62.1768317 L26.1479337,62.1768317 L26.1479337,69.9748896 Z M17.1145,62.9684886 L22.7749819,69.8579583 L23.3411867,69.8579583 L23.3411867,62.0701713 L22.7319096,62.0701713 L22.7319096,68.856931 L17.1419096,62.0701713 L16.4973916,62.0701713 L16.4973916,69.8579583 L17.1145,69.8579583 L17.1145,62.9684886 Z M10.1289578,70.6638366 C11.234741,70.6638366 12.1110663,70.3114623 12.7579337,69.6130345 C13.3961867,68.9114463 13.7321506,67.9641442 13.7321506,66.7821893 L13.7321506,61.6277283 L12.9967892,61.6277283 L12.9967892,66.8224832 C12.9967892,67.7697853 12.7383554,68.5227285 12.2301024,69.0805227 C11.6999217,69.6375268 11.0052831,69.9259049 10.1289578,69.9259049 C9.25498193,69.9259049 8.55799398,69.6375268 8.04425904,69.0805227 C7.51799398,68.5227285 7.25799398,67.7697853 7.25799398,66.8224832 L7.25799398,61.6277283 L6.5555241,61.6277283 L6.5555241,66.7821893 C6.5555241,67.9759953 6.87034337,68.9248776 7.51799398,69.6130345 C8.16016265,70.3114623 9.03648795,70.6638366 10.1289578,70.6638366 L10.1289578,70.6638366 Z" id="Fill-70"></path>
                    </g>
                </g>
            </g>
        </g>
    </g>
</svg>