<?xml version="1.0" encoding="UTF-8"?>
<svg width="178px" height="90px" viewBox="0 0 178 90" version="1.1" xmlns="http://www.w3.org/2000/svg" xmlns:xlink="http://www.w3.org/1999/xlink">
    <!-- Generator: Sketch 50.2 (55047) - http://www.bohemiancoding.com/sketch -->
    <title>logo ueb footer</title>
    <desc>Created with Sketch.</desc>
    <defs>
        <polygon id="path-1" points="0.0648958333 0.581062857 130.644583 0.581062857 130.644583 40.7414057 0.0648958333 40.7414057"></polygon>
    </defs>
    <g id="Welcome" stroke="none" stroke-width="1" fill="none" fill-rule="evenodd">
        <g id="Desktop-HD" transform="translate(-859.000000, -4488.000000)">
            <g id="footer" transform="translate(149.000000, 4471.000000)">
                <g id="logo-ueb-footer" transform="translate(710.000000, 17.000000)">
                    <g id="Group-70">
                        <path d="M18.2389183,51.5972229 C14.1582683,41.6711657 12.7201767,31.3937371 12.7201767,20.7924229 C12.7201767,16.2223657 13.0123933,11.6426514 13.7733433,7.13499429 L17.6670933,7.13499429 C16.72666,11.4235086 16.4337017,15.8197371 16.4337017,20.1973943 C16.4337017,29.3984229 17.5729017,39.1818514 20.2325183,48.0471086 C22.8891683,39.1818514 24.0305933,29.3984229 24.0305933,20.1973943 C24.0305933,15.8197371 23.737635,11.4235086 22.7972017,7.13499429 L26.69021,7.13499429 C27.4519017,11.6426514 27.7418933,16.2223657 27.7418933,20.7924229 C27.7418933,31.3937371 26.3060267,41.6711657 22.2238933,51.5972229 L18.2389183,51.5972229 Z" id="Fill-1" fill="#EE9234"></path>
                        <path d="M34.147075,18.0774286 C34.50085,17.7565143 35.0452333,17.7825143 35.3678583,18.1368571 C35.6897417,18.4904571 35.6637833,19.0379429 35.3114917,19.3596 C34.9584583,19.682 34.41185,19.6552571 34.089225,19.3024 C33.7703083,18.9480571 33.7933,18.4005714 34.147075,18.0774286" id="Fill-3" fill="#EE9234"></path>
                        <path d="M34.147075,20.7659029 C34.50085,20.4449886 35.0452333,20.4709886 35.3678583,20.8253314 C35.6897417,21.1789314 35.6637833,21.7256743 35.3114917,22.0480743 C34.9584583,22.3704743 34.41185,22.3444743 34.089225,21.9901314 C33.7703083,21.6365314 33.7933,21.0890457 34.147075,20.7659029" id="Fill-5" fill="#EE9234"></path>
                        <path d="M35.9752092,22.8637314 C36.3289842,22.5413314 36.8733675,22.5680743 37.1959925,22.9216743 C37.5178758,23.2760171 37.4934008,23.8220171 37.1396258,24.1444171 C36.7865925,24.4668171 36.2414675,24.4408171 35.9188425,24.0864743 C35.5984425,23.7336171 35.6229175,23.1861314 35.9752092,22.8637314" id="Fill-7" fill="#EE9234"></path>
                        <path d="M33.602395,29.87608 C33.95617,29.5544229 34.5005533,29.5804229 34.8224367,29.9340229 C35.1450617,30.2883657 35.1191033,30.8351086 34.7668117,31.1567657 C34.4137783,31.4791657 33.86717,31.4531657 33.544545,31.0995657 C33.2256283,30.7467086 33.24862,30.19848 33.602395,29.87608" id="Fill-9" fill="#EE9234"></path>
                        <path d="M33.5096867,32.5981314 C33.8790367,32.2943029 34.4219367,32.3485314 34.7267617,32.7184743 C35.0293617,33.0884171 34.977445,33.6321886 34.6073533,33.9360171 C34.2380033,34.2398457 33.6951033,34.18636 33.39102,33.8164171 C33.0899033,33.4472171 33.14182,32.9027029 33.5096867,32.5981314" id="Fill-11" fill="#EE9234"></path>
                        <path d="M35.259575,34.77864 C35.6318917,34.4814971 36.1747917,34.5438971 36.4736833,34.9168114 C36.77035,35.2919543 36.7095333,35.8349829 36.3372167,36.1336114 C35.9634167,36.43224 35.4205167,36.36984 35.1231083,35.99544 C34.8249583,35.6217829 34.885775,35.0772686 35.259575,34.77864" id="Fill-13" fill="#EE9234"></path>
                        <path d="M35.4334217,28.20012 C35.7871967,27.8792057 36.33158,27.9059486 36.6534633,28.2588057 C36.974605,28.6138914 36.95013,29.1606343 36.596355,29.4822914 C36.2433217,29.8046914 35.6967133,29.7786914 35.3755717,29.4243486 C35.056655,29.0707486 35.0796467,28.5240057 35.4334217,28.20012" id="Fill-15" fill="#EE9234"></path>
                        <path d="M31.836635,41.5630057 C32.2245267,41.28592 32.762235,41.3772914 33.04036,41.7672914 C33.318485,42.1565486 33.2287433,42.6966057 32.8393683,42.9744343 C32.4492517,43.25152 31.9108017,43.1601486 31.6326767,42.7708914 C31.35826,42.3816343 31.44726,41.8408343 31.836635,41.5630057" id="Fill-17" fill="#EE9234"></path>
                        <path d="M31.63238,44.5721714 C32.030655,44.3062286 32.5653967,44.4139429 32.831655,44.8113714 C33.098655,45.2088 32.9911133,45.7458857 32.5943217,46.0118286 C32.19753,46.2785143 31.661305,46.1708 31.39653,45.7733714 C31.1310133,45.3766857 31.2355883,44.8381143 31.63238,44.5721714" id="Fill-19" fill="#EE9234"></path>
                        <path d="M33.874735,40.1010629 C34.2626267,39.82472 34.8018183,39.9168343 35.07846,40.3060914 C35.3551017,40.6975771 35.26536,41.2361486 34.8745017,41.5139771 C34.4858683,41.79032 33.9474183,41.6996914 33.6692933,41.3089486 C33.3956183,40.9189486 33.48536,40.3781486 33.874735,40.1010629" id="Fill-21" fill="#EE9234"></path>
                        <path d="M38.052395,14.0163771 C38.2608033,13.5877486 38.7784867,13.40872 39.2086533,13.6174629 C39.6373367,13.8262057 39.8183033,14.3439771 39.6084117,14.7740914 C39.3992617,15.2049486 38.8838033,15.3832343 38.4536367,15.1737486 C38.02347,14.9650057 37.8439867,14.4472343 38.052395,14.0163771" id="Fill-23" fill="#EE9234"></path>
                        <path d="M38.7622442,11.3227771 C38.7867192,10.8458629 39.1909275,10.4781486 39.6693025,10.5011771 C40.1469358,10.5249486 40.5148025,10.9298057 40.4903275,11.4074629 C40.4673358,11.8866057 40.0616442,12.2528343 39.5847525,12.2298057 C39.1086025,12.2052914 38.7407358,11.8011771 38.7622442,11.3227771" id="Fill-25" fill="#EE9234"></path>
                        <path d="M38.6578917,8.24162857 C38.56815,7.7714 38.8781667,7.32048571 39.3476417,7.2306 C39.816375,7.14145714 40.2687917,7.449 40.35705,7.91922857 C40.4467917,8.38945714 40.1382583,8.84111429 39.6687833,8.931 C39.1993083,9.01865714 38.7476333,8.71185714 38.6578917,8.24162857" id="Fill-27" fill="#EE9234"></path>
                        <path d="M37.7047758,5.48057714 C37.4644758,5.06829143 37.6031675,4.53863429 38.0147925,4.29646286 C38.4264175,4.05577714 38.9559675,4.19394857 39.1970092,4.60623429 C39.4387925,5.01926286 39.2993592,5.54743429 38.8869925,5.79034857 C38.4753675,6.03177714 37.9465592,5.89360571 37.7047758,5.48057714" id="Fill-29" fill="#EE9234"></path>
                        <path d="M36.3068825,16.0735714 C36.6606575,15.7526571 37.2065242,15.7786571 37.5276658,16.1315143 C37.8495492,16.4858571 37.8235908,17.0326 37.4698158,17.355 C37.1182658,17.6766571 36.5716575,17.6506571 36.2505158,17.2970571 C35.9286325,16.9434571 35.9545908,16.3967143 36.3068825,16.0735714" id="Fill-31" fill="#EE9234"></path>
                        <path d="M6.3432525,18.0774286 C5.99096083,17.7565143 5.44509417,17.7825143 5.12321083,18.1368571 C4.80206917,18.4904571 4.8280275,19.0379429 5.17883583,19.3596 C5.5333525,19.682 6.07996083,19.6552571 6.4011025,19.3024 C6.7215025,18.9480571 6.6970275,18.4005714 6.3432525,18.0774286" id="Fill-33" fill="#EE9234"></path>
                        <path d="M6.3432525,20.7659029 C5.99096083,20.4449886 5.44509417,20.4709886 5.12321083,20.8253314 C4.80206917,21.1789314 4.8280275,21.7256743 5.17883583,22.0480743 C5.5333525,22.3704743 6.07996083,22.3444743 6.4011025,21.9901314 C6.7215025,21.6365314 6.6970275,21.0890457 6.3432525,20.7659029" id="Fill-35" fill="#EE9234"></path>
                        <path d="M4.5151925,22.8637314 C4.1614175,22.5413314 3.61703417,22.5680743 3.29515083,22.9216743 C2.97252583,23.2760171 2.99848417,23.8220171 3.35077583,24.1444171 C3.70380917,24.4668171 4.24893417,24.4408171 4.5730425,24.0864743 C4.89195917,23.7336171 4.8689675,23.1861314 4.5151925,22.8637314" id="Fill-37" fill="#EE9234"></path>
                        <path d="M6.8879325,29.87608 C6.53564083,29.5544229 5.98977417,29.5804229 5.66789083,29.9340229 C5.34674917,30.2883657 5.3727075,30.8351086 5.72351583,31.1567657 C6.0780325,31.4791657 6.62464083,31.4531657 6.9457825,31.0995657 C7.2661825,30.7467086 7.2417075,30.19848 6.8879325,29.87608" id="Fill-39" fill="#EE9234"></path>
                        <path d="M6.98064083,32.5981314 C6.61277417,32.2943029 6.06839083,32.3485314 5.76504917,32.7184743 C5.46096583,33.0884171 5.51436583,33.6321886 5.88297417,33.9360171 C6.2538075,34.2398457 6.79522417,34.18636 7.0993075,33.8164171 C7.40042417,33.4472171 7.3485075,32.9027029 6.98064083,32.5981314" id="Fill-41" fill="#EE9234"></path>
                        <path d="M5.2307525,34.77864 C4.85991917,34.4814971 4.31553583,34.5438971 4.0181275,34.9168114 C3.72146083,35.2919543 3.7822775,35.8349829 4.15311083,36.1336114 C4.52839417,36.43224 5.07129417,36.36984 5.3687025,35.99544 C5.66536917,35.6217829 5.6045525,35.0772686 5.2307525,34.77864" id="Fill-43" fill="#EE9234"></path>
                        <path d="M5.05698,28.20012 C4.70468833,27.8792057 4.15882167,27.9059486 3.83693833,28.2588057 C3.51579667,28.6138914 3.541755,29.1606343 3.89404667,29.4822914 C4.24708,29.8046914 4.79368833,29.7786914 5.11483,29.4243486 C5.43671333,29.0707486 5.410755,28.5240057 5.05698,28.20012" id="Fill-45" fill="#EE9234"></path>
                        <path d="M8.65517583,41.5630057 C8.26580083,41.28592 7.7280925,41.3772914 7.4499675,41.7672914 C7.1718425,42.1565486 7.2630675,42.6966057 7.65095917,42.9744343 C8.04107583,43.25152 8.57952583,43.1601486 8.85765083,42.7708914 C9.13355083,42.3816343 9.0430675,41.8408343 8.65517583,41.5630057" id="Fill-47" fill="#EE9234"></path>
                        <path d="M8.85802167,44.5721714 C8.46123,44.3062286 7.925005,44.4139429 7.65874667,44.8113714 C7.39174667,45.2088 7.49928833,45.7458857 7.89608,46.0118286 C8.29287167,46.2785143 8.82909667,46.1708 9.095355,45.7733714 C9.35938833,45.3766857 9.25481333,44.8381143 8.85802167,44.5721714" id="Fill-49" fill="#EE9234"></path>
                        <path d="M6.6155925,40.1010629 C6.22770083,39.82472 5.68850917,39.9168343 5.4118675,40.3060914 C5.13522583,40.6975771 5.22645083,41.2361486 5.61582583,41.5139771 C6.00445917,41.79032 6.54290917,41.6996914 6.82103417,41.3089486 C7.0961925,40.9189486 7.00645083,40.3781486 6.6155925,40.1010629" id="Fill-51" fill="#EE9234"></path>
                        <path d="M2.4379325,14.0163771 C2.22952417,13.5877486 1.71332417,13.40872 1.2831575,13.6174629 C0.852990833,13.8262057 0.6735075,14.3439771 0.881915833,14.7740914 C1.09106583,15.2049486 1.60652417,15.3832343 2.03817417,15.1737486 C2.4668575,14.9650057 2.64634083,14.4472343 2.4379325,14.0163771" id="Fill-53" fill="#EE9234"></path>
                        <path d="M1.7281575,11.3227771 C1.7036825,10.8458629 1.29947417,10.4781486 0.821099167,10.5011771 C0.344949167,10.5249486 -0.0229175,10.9298057 0.0015575,11.4074629 C0.0245491667,11.8866057 0.430240833,12.2528343 0.905649167,12.2298057 C1.3832825,12.2052914 1.75114917,11.8011771 1.7281575,11.3227771" id="Fill-55" fill="#EE9234"></path>
                        <path d="M1.83243583,8.24162857 C1.9221775,7.7714 1.61364417,7.32048571 1.14268583,7.2306 C0.6739525,7.14145714 0.221535833,7.449 0.134760833,7.91922857 C0.0450191667,8.38945714 0.352069167,8.84111429 0.8230275,8.931 C1.29176083,9.01865714 1.74269417,8.71185714 1.83243583,8.24162857" id="Fill-57" fill="#EE9234"></path>
                        <path d="M2.787035,5.48057714 C3.027335,5.06829143 2.89012667,4.53863429 2.475535,4.29646286 C2.06391,4.05577714 1.53436,4.19394857 1.29331833,4.60623429 C1.05301833,5.01926286 1.19245167,5.54743429 1.603335,5.79034857 C2.01496,6.03177714 2.54376833,5.89360571 2.787035,5.48057714" id="Fill-59" fill="#EE9234"></path>
                        <path d="M4.18492833,16.0735714 C3.83115333,15.7526571 3.28677,15.7786571 2.96266167,16.1315143 C2.64077833,16.4858571 2.66673667,17.0326 3.02051167,17.355 C3.373545,17.6766571 3.91867,17.6506571 4.23981167,17.2970571 C4.561695,16.9434571 4.53722,16.3967143 4.18492833,16.0735714" id="Fill-61" fill="#EE9234"></path>
                        <path d="M7.64406167,2.92136 C7.91773667,2.62050286 8.38276167,2.59970286 8.68387833,2.87381714 C8.98425333,3.14718857 9.00576167,3.61370286 8.73060333,3.91456 C8.45692833,4.21616 7.99190333,4.23696 7.690045,3.96284571 C7.39041167,3.68798857 7.36890333,3.22296 7.64406167,2.92136 M14.59422,41.4511314 L9.65917,37.9663886 C9.26386167,37.6499314 9.20007833,37.0734743 9.51528667,36.6790171 L12.8171867,32.8102171 C13.49952,32.0606743 13.4453783,30.9003314 12.696295,30.2154171 L8.562245,26.4454171 C8.19141167,26.1051886 8.16397,25.52576 8.504395,25.1528457 L12.2720617,21.0151314 C12.954395,20.2655886 12.9024783,19.1045029 12.153395,18.4210743 L6.68063667,13.4127314 C5.93303667,12.7307886 5.95083667,11.62096 6.56048667,10.82016 L12.2594533,3.20067429 C12.81867,2.46598857 12.7838117,1.60798857 12.1593283,1.03970286 C11.8478283,0.754445714 11.2337283,0.423131429 10.1093617,0.543474286 C4.735245,1.12364571 1.13148667,5.84078857 1.72556167,11.2970743 C2.02222833,14.0374743 2.99677833,15.02176 3.53300333,15.51056 L7.654445,19.2798171 C8.028245,19.6207886 8.05568667,20.1994743 7.71377833,20.5723886 L3.947595,24.7101029 C3.266745,25.4596457 3.31866167,26.6199886 4.06626167,27.3034171 L8.19882833,31.0771314 C8.57262833,31.4181029 8.59858667,31.9967886 8.25816167,32.3697029 L4.94068667,36.5326743 C4.30952833,37.32456 4.437095,38.4797029 5.22771167,39.11336 L10.1716617,42.6463886 C10.5699367,42.9583886 10.6396533,43.53336 10.32667,43.9307886 L8.197345,47.1206171 C7.60772,47.9437029 7.79758667,49.0914171 8.620095,49.6819886 C9.443345,50.27256 10.58922,50.0838743 11.178845,49.25856 L14.90572,44.0288457 C15.5302033,43.2295314 15.39077,42.07736 14.59422,41.4511314" id="Fill-63" fill="#EE9234"></path>
                        <path d="M32.7999117,3.96314286 C32.498795,4.23725714 32.03377,4.21645714 31.760095,3.91485714 C31.4849367,3.614 31.5079283,3.14748571 31.8075617,2.87337143 C32.107195,2.6 32.5737033,2.6208 32.8473783,2.92165714 C33.121795,3.22325714 33.099545,3.68828571 32.7999117,3.96314286 M30.3820783,0.543771429 C29.25697,0.422685714 28.64287,0.754 28.3328533,1.04 C27.7068867,1.60828571 27.6720283,2.46554286 28.2327283,3.20097143 L33.92947,10.8197143 C34.5398617,11.6205143 34.5584033,12.7303429 33.8108033,13.4130286 L28.3365617,18.4213714 C27.58822,19.1048 27.5340783,20.2658857 28.2164117,21.0154286 L31.987045,25.1531429 C32.32747,25.5260571 32.3000283,26.1047429 31.9277117,26.4449714 L27.7936617,30.2157143 C27.0445783,30.8998857 26.9911783,32.0609714 27.674995,32.8105143 L30.97467,36.6793143 C31.29062,37.0737714 31.2268367,37.6502286 30.8315283,37.9659429 L25.8957367,41.4514286 C25.0991867,42.0776571 24.960495,43.2298286 25.5842367,44.0284 L29.3118533,49.2581143 C29.9029617,50.0834286 31.0473533,50.2728571 31.8698617,49.6822857 C32.69237,49.0917143 32.88372,47.944 32.2926117,47.1209143 L30.1632867,43.9303429 C29.8503033,43.5336571 29.92002,42.9586857 30.3197783,42.6466857 L35.262245,39.1136571 C36.0536033,38.48 36.18117,37.3248571 35.54927,36.5329714 L32.231795,32.37 C31.8928533,31.9970857 31.9195533,31.4184 32.2926117,31.0774286 L36.4244367,27.3037143 C37.1720367,26.6202857 37.2239533,25.4592 36.5431033,24.7104 L32.77692,20.5726857 C32.436495,20.1997714 32.4639367,19.6210857 32.8362533,19.2801143 L36.9569533,15.5108571 C37.4931783,15.0213143 38.4699533,14.0377714 38.7681033,11.2973714 C39.360695,5.84108571 35.7547117,1.1232 30.3820783,0.543771429" id="Fill-65" fill="#EE9234"></path>
                        <g id="Group-69" transform="translate(46.725000, 6.685714)">
                            <mask id="mask-2" fill="white">
                                <use xlink:href="#path-1"></use>
                            </mask>
                            <g id="Clip-68"></g>
                            <path d="M104.559054,11.6845486 L104.559054,2.15369143 L107.208287,2.15369143 C107.922512,2.15369143 108.551446,2.23169143 109.066904,2.34312 C109.588296,2.47014857 110.051837,2.65512 110.416737,2.90992 C111.031579,3.32146286 111.509212,3.89792 111.857054,4.59843429 C112.211571,5.30043429 112.373996,6.07894857 112.373996,6.92803429 C112.373996,7.76152 112.211571,8.53483429 111.857054,9.26209143 C111.509212,9.96409143 111.031579,10.5197486 110.416737,10.9461486 C110.051837,11.20392 109.588296,11.3888914 109.066904,11.5196343 C108.551446,11.6280914 107.922512,11.6845486 107.208287,11.6845486 L104.559054,11.6845486 Z M109.550471,12.2156914 C110.166796,12.0522629 110.694862,11.7944914 111.154696,11.4394057 C111.845188,10.9238629 112.373996,10.27832 112.759662,9.48197714 C113.152004,8.68786286 113.337421,7.81352 113.337421,6.91020571 C113.337421,6.00243429 113.152004,5.14963429 112.759662,4.33769143 C112.373996,3.54283429 111.845188,2.89506286 111.154696,2.37952 C110.694862,2.02592 110.166796,1.76740571 109.566788,1.60249143 C108.974196,1.45689143 108.276287,1.36032 107.425596,1.36032 L103.640871,1.36032 L103.640871,12.4749486 L107.425596,12.4749486 C108.255521,12.4749486 108.962329,12.38432 109.550471,12.2156914 Z M93.6802875,8.05420571 L95.7013292,3.24866286 L97.6941875,8.05420571 L93.6802875,8.05420571 Z M95.5129458,1.78374857 L90.9509542,12.4749486 L91.8379875,12.4749486 L93.3902958,8.77774857 L97.9826958,8.77774857 L99.5409375,12.4749486 L100.427971,12.4749486 L95.8644958,1.78374857 L95.5129458,1.78374857 Z M80.5171875,11.6845486 L80.5171875,2.15369143 L83.1582625,2.15369143 C83.8761958,2.15369143 84.5021625,2.23169143 85.0161375,2.34312 C85.5419792,2.47014857 86.0003292,2.65512 86.3696792,2.90992 C86.9822958,3.32146286 87.4599292,3.89792 87.8166708,4.59843429 C88.1615458,5.30043429 88.3261958,6.07894857 88.3261958,6.92803429 C88.3261958,7.76152 88.1615458,8.53483429 87.8166708,9.26209143 C87.4599292,9.96409143 86.9822958,10.5197486 86.3696792,10.9461486 C86.0003292,11.20392 85.5419792,11.3888914 85.0161375,11.5196343 C84.5021625,11.6280914 83.8761958,11.6845486 83.1582625,11.6845486 L80.5171875,11.6845486 Z M85.5019292,12.2156914 C86.1100958,12.0522629 86.6285208,11.7944914 87.1113458,11.4394057 C87.7959042,10.9238629 88.3261958,10.27832 88.7177958,9.48197714 C89.1056875,8.68786286 89.2851708,7.81352 89.2851708,6.91020571 C89.2851708,6.00243429 89.1056875,5.14963429 88.7177958,4.33769143 C88.3261958,3.54283429 87.7959042,2.89506286 87.1113458,2.37952 C86.6285208,2.02592 86.1100958,1.76740571 85.5160208,1.60249143 C84.9308458,1.45689143 84.2299708,1.36032 83.3807625,1.36032 L79.5752708,1.36032 L79.5752708,12.4749486 L83.3807625,12.4749486 C84.2099458,12.4749486 84.9093375,12.38432 85.5019292,12.2156914 Z M74.5341625,12.4771771 L75.4701458,12.4771771 L75.4701458,1.36032 L74.5341625,1.36032 L74.5341625,12.4771771 Z M70.9986375,9.58969143 C70.9986375,9.22272 70.9333708,8.87283429 70.8250875,8.53483429 C70.6915875,8.20352 70.5121042,7.90637714 70.2829292,7.65157714 C69.9350875,7.26232 69.2460792,6.85746286 68.2507625,6.44814857 C68.1417375,6.39392 68.0697958,6.37014857 68.0149125,6.33300571 C67.1048875,5.94597714 66.5197125,5.61540571 66.2586458,5.30043429 C65.9805208,5.00923429 65.8507292,4.59843429 65.8507292,4.11780571 C65.8507292,3.52203429 66.0502375,3.02432 66.4759542,2.61797714 C66.9024125,2.23169143 67.4378958,2.02592 68.0987208,2.02592 C68.5073792,2.02592 68.9167792,2.09946286 69.3209875,2.24506286 C69.7526375,2.39363429 70.1731625,2.63877714 70.6352208,2.95003429 L70.6352208,1.95460571 C70.2102458,1.71169143 69.8052958,1.52672 69.3966375,1.39820571 C68.9909458,1.29123429 68.5681958,1.21026286 68.1417375,1.21026286 C67.1975958,1.21026286 66.4410958,1.48883429 65.8507292,2.04449143 C65.2566542,2.60014857 64.9636958,3.30512 64.9636958,4.15049143 C64.9636958,4.85397714 65.1491125,5.43117714 65.5407125,5.87689143 C65.9256375,6.31963429 66.6443125,6.76386286 67.6989625,7.19992 C68.7157875,7.63226286 69.3617792,8.00072 69.6413875,8.31420571 C69.9350875,8.64774857 70.0582042,9.05854857 70.0582042,9.55774857 C70.0582042,10.2411771 69.8631458,10.7738057 69.4329792,11.1801486 C69.0317375,11.5716343 68.4532375,11.77592 67.7367875,11.77592 C67.3103292,11.77592 66.8453042,11.6630057 66.4040125,11.47432 C65.9256375,11.2789486 65.4450375,10.9795771 64.9288375,10.5717486 L64.9288375,11.6422057 C65.4086958,11.9802057 65.8677875,12.2156914 66.3342958,12.38432 C66.8097042,12.5447771 67.2754708,12.62352 67.7538458,12.62352 C68.7009542,12.62352 69.4700625,12.35312 70.0819375,11.77592 C70.6915875,11.20392 70.9986375,10.4796343 70.9986375,9.58969143 Z M55.2715958,2.12174857 L57.1138958,2.12174857 C57.9438208,2.12174857 58.5727542,2.28443429 59.0348125,2.65512 C59.4783292,3.00723429 59.6971208,3.50569143 59.6971208,4.15049143 C59.6971208,4.61774857 59.6103458,5.01889143 59.4071292,5.34054857 C59.2016875,5.67483429 58.9057625,5.91254857 58.4978458,6.09009143 C58.2805375,6.18740571 58.0179875,6.26094857 57.6879458,6.31963429 C57.3475208,6.35009143 56.7764375,6.37014857 55.9539292,6.37014857 L55.2715958,6.37014857 L55.2715958,2.12174857 Z M55.2715958,7.13157714 L56.1638208,7.13157714 C56.7994292,7.13157714 57.2689042,7.18654857 57.5759542,7.26232 C57.8919042,7.33066286 58.1500042,7.48592 58.3569292,7.68500571 C58.4978458,7.83580571 58.6854875,8.07574857 58.9406208,8.42712 C59.1824042,8.76066286 59.4953875,9.20266286 59.8269125,9.74494857 L61.5831792,12.4749486 L62.5777542,12.4749486 L59.5487875,7.80014857 C59.4219625,7.59586286 59.2706625,7.40792 59.1290042,7.26232 C58.9613875,7.11300571 58.7744875,6.98300571 58.5727542,6.85746286 C59.2706625,6.63237714 59.7979875,6.29586286 60.1428625,5.83603429 C60.4966375,5.38957714 60.6612875,4.81757714 60.6612875,4.15049143 C60.6612875,3.24866286 60.3631375,2.56152 59.7386542,2.08163429 C59.1060125,1.60249143 58.2219458,1.36032 57.0634625,1.36032 L54.3979125,1.36032 L54.3979125,12.4749486 L55.2715958,12.4749486 L55.2715958,7.13157714 Z M50.4841375,11.7164914 L45.2954375,11.7164914 L45.2954375,7.19992 L50.1867292,7.19992 L50.1867292,6.48826286 L45.2954375,6.48826286 L45.2954375,2.08163429 L50.3565708,2.08163429 L50.3565708,1.36032 L44.4069208,1.36032 L44.4069208,12.4749486 L50.4841375,12.4749486 L50.4841375,11.7164914 Z M37.1133708,12.6606629 L41.7695542,1.36032 L40.8261542,1.36032 L37.0384625,10.6876343 L33.2937875,1.36032 L32.3103375,1.36032 L36.9820958,12.6606629 L37.1133708,12.6606629 Z M28.1933458,12.4749486 L29.1360042,12.4749486 L29.1360042,1.35957714 L28.1933458,1.35957714 L28.1933458,12.4749486 Z M15.2260458,2.49020571 L23.3524875,12.3107771 L24.1660958,12.3107771 L24.1660958,1.21026286 L23.2916708,1.21026286 L23.2916708,10.8822629 L15.2623875,1.21026286 L14.3390125,1.21026286 L14.3390125,12.3107771 L15.2260458,12.3107771 L15.2260458,2.49020571 Z M5.19574583,13.4599771 C6.78365417,13.4599771 8.0422625,12.9555771 8.9723125,11.9616343 C9.8867875,10.9617486 10.3703542,9.61049143 10.3703542,7.92569143 L10.3703542,0.581062857 L9.3127375,0.581062857 L9.3127375,7.98363429 C9.3127375,9.33266286 8.94190417,10.4053486 8.2135875,11.20392 C7.45115417,11.9965486 6.4536125,12.4073486 5.19574583,12.4073486 C3.9415875,12.4073486 2.94182083,11.9965486 2.20312083,11.20392 C1.4473625,10.4053486 1.0735625,9.33266286 1.0735625,7.98363429 L1.0735625,0.581062857 L0.0648958333,0.581062857 L0.0648958333,7.92569143 C0.0648958333,9.62683429 0.5217625,10.9795771 1.4473625,11.9616343 C2.37147917,12.9555771 3.62860417,13.4599771 5.19574583,13.4599771 Z M63.0056958,30.2894057 C62.6927125,31.0144343 62.2692208,31.6622057 61.6929458,32.2208343 C61.1033208,32.7906057 60.4358208,33.2400343 59.7171458,33.51192 C58.9613875,33.80312 58.1848625,33.9554057 57.3326875,33.9554057 C56.5042458,33.9554057 55.7277208,33.80312 54.9675125,33.51192 C54.2139792,33.1976914 53.5694708,32.7690629 52.9983875,32.2208343 C52.4250792,31.6622057 51.9785958,31.0144343 51.6834125,30.2894057 C51.3704292,29.5732914 51.2228375,28.8296914 51.2228375,28.0177486 C51.2228375,27.2236343 51.3704292,26.4614629 51.6834125,25.7215771 C51.9993625,25.0010057 52.4250792,24.3740343 52.9983875,23.8176343 C53.6028458,23.2597486 54.2733125,22.8199771 55.0209125,22.5050057 C55.7625792,22.2048914 56.5391042,22.0585486 57.3326875,22.0585486 C58.1670625,22.0585486 58.9406208,22.2048914 59.6778375,22.5050057 C60.4209875,22.7984343 61.0818125,23.2441486 61.6610542,23.8176343 C62.2692208,24.4089486 62.7127375,25.0544914 63.0227542,25.7787771 C63.3157125,26.4800343 63.4647875,27.2236343 63.4647875,28.0177486 C63.4647875,28.8296914 63.3157125,29.5732914 63.0056958,30.2894057 Z M64.1515708,21.5563771 C63.2459958,20.6946629 62.2098875,20.0454057 61.0514042,19.5826057 C59.8662208,19.1376343 58.6335708,18.89992 57.3326875,18.89992 C56.0607292,18.89992 54.8473625,19.1376343 53.6792375,19.5826057 C52.5148208,20.0260914 51.4601708,20.6946629 50.5620125,21.5563771 C49.6556958,22.3920914 48.9540792,23.3734057 48.4519708,24.4869486 C47.9721125,25.5930629 47.7154958,26.7593486 47.7154958,27.9419771 C47.7154958,29.1825486 47.9550542,30.3852343 48.4341708,31.4958057 C48.9140292,32.6048914 49.6193542,33.6047771 50.5620125,34.4910057 C51.4431125,35.3230057 52.4799625,35.9930629 53.6621792,36.4514057 C54.8236292,36.8956343 56.0607292,37.1326057 57.3326875,37.1326057 C58.6335708,37.1326057 59.8662208,36.91272 61.0298958,36.4684914 C62.1943125,36.0116343 63.2259708,35.36312 64.1715958,34.4910057 C65.0786542,33.6396914 65.7602458,32.6554057 66.2586458,31.5700914 C66.7414708,30.4610057 66.9773208,29.2924914 66.9773208,28.0868343 C66.9773208,26.81432 66.7414708,25.6309486 66.2764458,24.5404343 C65.7899125,23.4283771 65.0786542,22.4284914 64.1515708,21.5563771 Z M121.681171,33.8469486 L121.681171,29.4574057 L130.102796,29.4574057 L130.102796,26.3901486 L121.681171,26.3901486 L121.681171,22.1729486 L130.366829,22.1729486 L130.366829,19.1220343 L118.120429,19.1220343 L118.120429,36.8956343 L130.644954,36.8956343 L130.644954,33.8469486 L121.681171,33.8469486 Z M112.723321,30.0338629 C112.705521,31.1778629 112.342104,32.02992 111.524046,32.7096343 C110.732688,33.3789486 109.658013,33.75632 108.255521,33.75632 C107.425596,33.75632 106.708404,33.6047771 106.095788,33.3477486 C105.466113,33.08552 104.932854,32.6776914 104.469313,32.1435771 C104.237171,31.8650057 104.063621,31.5351771 103.976846,31.1429486 C103.866338,30.7566629 103.804038,30.0145486 103.804038,28.9403771 L103.804038,19.0425486 L100.499913,19.0425486 L100.499913,29.0369486 C100.499913,30.4038057 100.591138,31.4207771 100.798804,32.1435771 C100.999796,32.8500343 101.329096,33.4955771 101.809696,34.0646057 C102.571388,35.0102629 103.493279,35.7130057 104.599846,36.2099771 C105.693063,36.6906057 106.924229,36.93352 108.255521,36.93352 C110.502771,36.93352 112.394021,36.3065486 113.835821,35.0503771 C115.296163,33.80312 116.034863,32.1064343 116.008904,30.1074057 L116.008904,19.0425486 L112.723321,19.0425486 L112.723321,30.0338629 Z M95.0909375,30.2760343 C94.7757292,31.0144343 94.3507542,31.6807771 93.7759625,32.2364343 L93.7574208,32.2527771 C93.1663125,32.8663771 92.5010375,33.3046629 91.7823625,33.6218629 C91.0392125,33.9182629 90.2686208,34.07872 89.4564958,34.07872 C88.6421458,34.07872 87.8804542,33.9182629 87.1269208,33.6047771 C86.3696792,33.2734629 85.7244292,32.8284914 85.1451875,32.2527771 L85.1451875,32.2364343 C84.5778125,31.6807771 84.1387458,31.0144343 83.8428208,30.2760343 C83.5246458,29.5331771 83.3807625,28.7606057 83.3807625,27.9419771 C83.3807625,27.1136914 83.5246458,26.3344343 83.8428208,25.5789486 C84.1387458,24.8368343 84.5778125,24.1898057 85.1355458,23.6282057 C85.7437125,23.0383771 86.4030542,22.59712 87.1499125,22.2836343 C87.9078958,21.9649486 88.6621708,21.8215771 89.4564958,21.8215771 C90.2686208,21.8215771 91.0392125,21.9649486 91.7823625,22.2836343 C92.5188375,22.5778057 93.1663125,23.02352 93.7470375,23.6126057 C94.3507542,24.22472 94.7898208,24.8866057 95.0909375,25.6309486 C95.4039208,26.3500343 95.5507708,27.1136914 95.5507708,27.9419771 C95.5507708,28.7606057 95.4039208,29.5331771 95.0909375,30.2760343 Z M97.0467125,33.9732343 C98.3794875,32.3812914 99.0440208,30.4996343 99.0440208,28.37432 C99.0440208,27.07432 98.7977875,25.8486057 98.3386958,24.7202057 C97.8640292,23.6126057 97.1572208,22.59712 96.2323625,21.6915771 C95.3490375,20.8209486 94.3092208,20.1352914 93.1485125,19.67472 C91.9655542,19.2104343 90.7514458,18.9742057 89.4564958,18.9742057 C88.1830542,18.9742057 86.9615292,19.2104343 85.8030458,19.67472 C84.6497542,20.1352914 83.6173542,20.8008914 82.6917542,21.6915771 C81.8076875,22.5592343 81.1053292,23.5583771 80.6314042,24.6860343 C80.1263292,25.8352343 79.8838042,26.9955771 79.8838042,28.2049486 C79.8838042,30.4038057 80.5535292,32.3604914 81.8670208,34.01632 C83.1582625,35.6565486 84.8863458,36.7478057 86.9963875,37.28192 C88.5694625,38.3969486 90.0461208,39.2490057 91.4463875,39.8336343 C92.8948625,40.4457486 94.2090958,40.7414057 95.4039208,40.7414057 L95.7517625,40.7414057 C95.8644958,40.7414057 95.9572042,40.7317486 96.0432375,40.7124343 L96.1848958,40.6916343 L98.8170708,38.3761486 L98.6168208,37.8197486 L98.4707125,37.4698629 L98.1243542,37.5463771 C97.7824458,37.6191771 97.4931958,37.6570629 97.2121042,37.68752 C96.9510375,37.7335771 96.7166708,37.7335771 96.4874958,37.7335771 C95.8066458,37.7335771 95.0909375,37.6332914 94.3336958,37.4512914 C93.8686708,37.3198057 93.3339292,37.1326057 92.7680375,36.91272 C94.4998292,36.2686629 95.9572042,35.3044343 97.0467125,33.9732343 Z M74.6951042,26.4458629 L74.3146292,26.2378629 C73.2963208,25.6480343 72.5531708,25.10872 72.0733125,24.6481486 C71.8330125,24.4089486 71.6705875,24.2076343 71.5778792,24.0256343 C71.4621792,23.8414057 71.4302875,23.7069486 71.4302875,23.5984914 C71.4466042,23.1512914 71.5912292,22.8511771 71.9984042,22.5592343 C72.4092875,22.2628343 72.9410625,22.09792 73.6627042,22.09792 C74.2738375,22.09792 74.8679125,22.2048914 75.4701458,22.4478057 C76.0842458,22.7070629 76.7650958,23.0985486 77.5037958,23.6720343 L78.2224708,24.2076343 L78.2224708,20.3752343 L78.0066458,20.2444914 C77.3057708,19.8604343 76.6019292,19.5632914 75.8966042,19.3597486 C75.1949875,19.1740343 74.4955958,19.06112 73.7680208,19.06112 C72.1704708,19.06112 70.7983875,19.5090629 69.7311292,20.3960343 C68.6764792,21.2837486 68.1217125,22.4849486 68.1217125,23.8696343 C68.1217125,24.8754629 68.4028042,25.7594629 68.9709208,26.4986057 C69.2890958,26.8900914 69.7526375,27.2949486 70.3786042,27.7562629 C71.0231125,28.2435771 71.8500708,28.7762057 72.8513208,29.3927771 C73.4817375,29.7530629 73.9882958,30.0888343 74.3821208,30.3696343 C74.7766875,30.6474629 75.0518458,30.88592 75.1823792,31.0322629 C75.4545708,31.3650629 75.5584042,31.69712 75.5873292,32.1435771 C75.5584042,32.6776914 75.3967208,33.01272 74.9939958,33.32472 C74.6053625,33.6218629 74.0142542,33.80312 73.2036125,33.80312 C72.4471125,33.80312 71.7432708,33.6396914 71.0757708,33.2905486 C70.4193958,32.9532914 69.6933042,32.3604914 68.9167792,31.5544914 L68.1417375,30.71432 L68.1417375,35.1588343 L68.3330875,35.28512 C69.0636292,35.8578629 69.8371875,36.2842629 70.6567292,36.5427771 C71.4822042,36.8302629 72.3892625,36.9565486 73.3615875,36.9565486 C74.9702625,36.9565486 76.3408625,36.5078629 77.3969958,35.62312 C78.4612875,34.7331771 79.0167958,33.5475771 79.0167958,32.1784914 C79.0167958,31.0144343 78.7423792,29.9930057 78.1520125,29.1632343 C77.5609042,28.3134057 76.4194792,27.4412914 74.6951042,26.4458629 Z M42.3384125,33.0706629 C41.8793208,33.4220343 41.0308542,33.66272 39.7937542,33.6396914 L36.7165792,33.6396914 L36.7165792,28.8296914 L39.3606208,28.8296914 C40.7497625,28.8296914 41.7117042,29.06592 42.2405125,29.4574057 C42.7663542,29.8548343 43.0415125,30.3852343 43.0415125,31.2922629 C43.0415125,32.1784914 42.8034375,32.7096343 42.3384125,33.0706629 Z M36.7165792,20.9368343 L38.7925042,20.9368343 C39.8834958,20.9368343 40.5977208,21.1329486 40.9870958,21.4516343 C41.1784458,21.6202629 41.3201042,21.7985486 41.4335792,22.0778629 C41.5262875,22.3393486 41.5841375,22.6736343 41.5841375,23.0784914 C41.5841375,23.96992 41.3201042,24.5218629 40.7846208,24.9282057 C40.2713875,25.3130057 39.3606208,25.5596343 38.0552875,25.5596343 L36.7165792,25.5596343 L36.7165792,20.9368343 Z M43.2788458,26.6449486 C43.7594458,26.3344343 44.1844208,25.9786057 44.4959208,25.5358629 C45.0202792,24.8197486 45.2516792,23.92832 45.2516792,22.9128343 C45.2516792,21.2837486 44.7013625,19.9458629 43.5918292,19.0291771 C42.4852625,18.1028343 40.9730042,17.6816343 39.0661792,17.6816343 L33.2084958,17.6816343 L33.2084958,36.93352 L40.0718792,36.93352 C42.0447125,36.93352 43.6645125,36.4514057 44.8897458,35.47232 C46.1060792,34.4910057 46.7594875,33.12712 46.7364958,31.4757486 C46.7364958,30.1980343 46.3226458,29.06592 45.5372208,28.1670629 C44.9416625,27.5014629 44.1844208,26.9955771 43.2788458,26.6449486 Z M18.0332542,19.0291771 L14.4710292,19.0291771 L14.4710292,36.93352 L26.9881375,36.93352 L26.9881375,33.8818629 L18.0332542,33.8818629 L18.0332542,19.0291771 Z M3.68052083,28.85272 L12.0509708,28.85272 L12.0509708,25.5930629 L3.68052083,25.5930629 L3.68052083,20.91232 L12.2883042,20.91232 L12.2883042,17.69872 L0.1346125,17.69872 L0.1346125,36.93352 L12.5679125,36.93352 L12.5679125,33.6775771 L3.68052083,33.6775771 L3.68052083,28.85272 Z" id="Fill-67" fill="#3E4729"></path>
                            <polygon id="Fill-72" fill="#3E4729" points="1.275 53.3142857 28.275 53.3142857 28.275 49.3142857 1.275 49.3142857"></polygon>
                        </g>
                    </g>
                    <path d="M48.896768,72.600736 L48.896768,75.829504 C48.896768,75.957376 48.854144,76 48.736928,76 L48.22544,76 C48.097568,76 48.054944,75.957376 48.054944,75.829504 L48.054944,68.7112959 C48.054944,68.5834239 48.097568,68.5407999 48.22544,68.5407999 L52.9567041,68.5407999 C53.0845761,68.5407999 53.1272001,68.5834239 53.1272001,68.7112959 L53.1272001,69.1055679 C53.1272001,69.2334399 53.0739201,69.2760639 52.9567041,69.2760639 L48.896768,69.2760639 L48.896768,71.8654719 L52.8608001,71.8654719 C52.9886721,71.8654719 53.0312961,71.9080959 53.0312961,72.0359679 L53.0312961,72.43024 C53.0312961,72.558112 52.9886721,72.600736 52.8608001,72.600736 L48.896768,72.600736 Z M54.6616641,71.3326719 C54.5231361,71.3646399 54.4911681,71.3113599 54.4592001,71.1834879 L54.3739521,70.8638079 C54.3419841,70.7465919 54.3739521,70.6933119 54.5018241,70.6506879 C54.6296961,70.6187199 55.5141441,70.4588799 56.3346561,70.4588799 C58.1248641,70.4588799 58.6150401,71.2580799 58.6150401,73.01632 L58.6150401,75.829504 C58.6150401,75.957376 58.5724161,76 58.4552001,76 L58.1461761,76 C58.0609281,76 58.0183041,75.957376 57.9863361,75.829504 L57.9437121,75.104896 C57.6560001,75.499168 56.9527041,76.117216 55.8018561,76.117216 C54.7788801,76.117216 53.9050881,75.488512 53.9050881,74.34832 C53.9050881,73.186816 54.7788801,72.622048 56.0895681,72.622048 C56.6543361,72.622048 57.2723841,72.771232 57.8158401,72.995008 C57.8158401,71.6523519 57.4215681,71.1621759 56.3026881,71.1621759 C55.6207041,71.1621759 55.0665921,71.2580799 54.6616641,71.3326719 Z M56.2494081,73.218784 C55.2370881,73.218784 54.7042881,73.623712 54.7042881,74.34832 C54.7042881,75.008992 55.1838081,75.488512 56.0469441,75.488512 C56.7822081,75.488512 57.4748481,74.98768 57.8158401,74.486848 L57.8158401,73.6024 C57.2723841,73.378624 56.8568001,73.218784 56.2494081,73.218784 Z M62.6856322,75.392608 C63.2717122,75.392608 63.8045122,75.158176 64.1668162,74.795872 C64.2520642,74.710624 64.3160002,74.731936 64.3905922,74.82784 L64.6463362,75.09424 C64.7315842,75.190144 64.7315842,75.243424 64.6463362,75.318016 C64.1028802,75.861472 63.4102402,76.117216 62.6749762,76.117216 C61.1192002,76.117216 59.8831042,74.849152 59.8831042,73.293376 C59.8831042,71.7375999 61.1192002,70.4588799 62.6749762,70.4588799 C63.4102402,70.4588799 64.1028802,70.7146239 64.6463362,71.2580799 C64.7315842,71.3326719 64.7315842,71.3859519 64.6463362,71.4818559 L64.3905922,71.7482559 C64.3160002,71.8441599 64.2520642,71.8654719 64.1668162,71.7802239 C63.8045122,71.4179199 63.2717122,71.1834879 62.6856322,71.1834879 C61.5667522,71.1834879 60.6716482,72.121216 60.6716482,73.293376 C60.6716482,74.476192 61.5667522,75.392608 62.6856322,75.392608 Z M69.9210563,75.829504 L69.8358083,74.870464 C69.6120323,75.296704 69.0579203,76.117216 68.0136323,76.117216 C66.8734403,76.117216 65.9037442,75.424576 65.9037442,73.719616 L65.9037442,70.7465919 C65.9037442,70.6187199 65.9463682,70.5760959 66.0635842,70.5760959 L66.5431043,70.5760959 C66.6603203,70.5760959 66.7029443,70.6187199 66.7029443,70.7465919 L66.7029443,73.506496 C66.7029443,74.77456 67.3423043,75.392608 68.2054403,75.392608 C69.1325123,75.392608 69.7292483,74.497504 69.7292483,73.431904 L69.7292483,70.7465919 C69.7292483,70.6187199 69.7718723,70.5760959 69.8890883,70.5760959 L70.3686083,70.5760959 C70.4858243,70.5760959 70.5284483,70.6187199 70.5284483,70.7465919 L70.5284483,75.829504 C70.5284483,75.957376 70.4858243,76 70.3686083,76 L70.1022083,76 C70.0169603,76 69.9743363,75.957376 69.9210563,75.829504 Z M72.6809603,75.829504 L72.6809603,68.3063679 C72.6809603,68.1784959 72.7235843,68.1358719 72.8514563,68.1358719 L73.3203203,68.1358719 C73.4481923,68.1358719 73.4801603,68.1784959 73.4801603,68.3063679 L73.4801603,75.829504 C73.4801603,75.957376 73.4481923,76 73.3203203,76 L72.8514563,76 C72.7235843,76 72.6809603,75.957376 72.6809603,75.829504 Z M78.6483204,75.861472 C78.2220804,76.117216 77.7638724,76.117216 77.6253444,76.117216 C76.2187524,76.117216 75.6966084,75.232768 75.6966084,73.751584 L75.6966084,71.2367679 L75.1744644,71.2367679 C75.0465924,71.2367679 75.0039684,71.1941439 75.0039684,71.0662719 L75.0039684,70.7465919 C75.0039684,70.6080639 75.0465924,70.5760959 75.1744644,70.5760959 L75.6966084,70.5760959 L75.6966084,69.4785279 C75.6966084,69.3506559 75.7285764,69.3080319 75.8564484,69.3080319 L76.3253124,69.3080319 C76.4531844,69.3080319 76.4851524,69.3506559 76.4851524,69.4785279 L76.4851524,70.5760959 L78.4138884,70.5760959 C78.5311044,70.5760959 78.5737284,70.6080639 78.5737284,70.7465919 L78.5737284,71.0662719 C78.5737284,71.1941439 78.5417604,71.2367679 78.4138884,71.2367679 L76.4851524,71.2367679 L76.4851524,73.687648 C76.4851524,74.9344 76.8581124,75.392608 77.7105924,75.392608 C78.0089604,75.392608 78.1794564,75.371296 78.4458564,75.232768 C78.5843844,75.158176 78.6163524,75.168832 78.6589764,75.318016 L78.7229124,75.659008 C78.7548804,75.765568 78.7442244,75.808192 78.6483204,75.861472 Z M80.4491844,71.3326719 C80.3106564,71.3646399 80.2786884,71.3113599 80.2467204,71.1834879 L80.1614724,70.8638079 C80.1295044,70.7465919 80.1614724,70.6933119 80.2893444,70.6506879 C80.4172164,70.6187199 81.3016644,70.4588799 82.1221765,70.4588799 C83.9123845,70.4588799 84.4025605,71.2580799 84.4025605,73.01632 L84.4025605,75.829504 C84.4025605,75.957376 84.3599365,76 84.2427205,76 L83.9336965,76 C83.8484485,76 83.8058245,75.957376 83.7738565,75.829504 L83.7312325,75.104896 C83.4435205,75.499168 82.7402245,76.117216 81.5893764,76.117216 C80.5664004,76.117216 79.6926084,75.488512 79.6926084,74.34832 C79.6926084,73.186816 80.5664004,72.622048 81.8770884,72.622048 C82.4418565,72.622048 83.0599045,72.771232 83.6033605,72.995008 C83.6033605,71.6523519 83.2090885,71.1621759 82.0902085,71.1621759 C81.4082244,71.1621759 80.8541124,71.2580799 80.4491844,71.3326719 Z M82.0369285,73.218784 C81.0246084,73.218784 80.4918084,73.623712 80.4918084,74.34832 C80.4918084,75.008992 80.9713284,75.488512 81.8344644,75.488512 C82.5697285,75.488512 83.2623685,74.98768 83.6033605,74.486848 L83.6033605,73.6024 C83.0599045,73.378624 82.6443205,73.218784 82.0369285,73.218784 Z M90.1035206,71.7056319 L90.1035206,68.3063679 C90.1035206,68.1784959 90.1461446,68.1358719 90.2633606,68.1358719 L90.7428806,68.1358719 C90.8600966,68.1358719 90.9027206,68.1784959 90.9027206,68.3063679 L90.9027206,75.829504 C90.9027206,75.957376 90.8600966,76 90.7428806,76 L90.4977926,76 C90.4018886,76 90.3592646,75.957376 90.3166406,75.829504 L90.2313926,74.838496 C89.9649926,75.243424 89.3895685,76.117216 88.1321605,76.117216 C86.6403205,76.117216 85.6706245,74.82784 85.6706245,73.28272 C85.6706245,71.7269439 86.6403205,70.4588799 88.1321605,70.4588799 C89.3895685,70.4588799 89.9756486,71.4072639 90.1035206,71.7056319 Z M88.2920005,75.403264 C89.4002245,75.403264 90.1141766,74.34832 90.1141766,73.293376 C90.1141766,72.227776 89.4002245,71.1834879 88.2920005,71.1834879 C87.1731205,71.1834879 86.4698245,72.185152 86.4698245,73.28272 C86.4698245,74.465536 87.1731205,75.403264 88.2920005,75.403264 Z M99.5447367,71.7056319 L99.5447367,68.3063679 C99.5447367,68.1784959 99.5873607,68.1358719 99.7045767,68.1358719 L100.184097,68.1358719 C100.301313,68.1358719 100.343937,68.1784959 100.343937,68.3063679 L100.343937,75.829504 C100.343937,75.957376 100.301313,76 100.184097,76 L99.9390087,76 C99.8431047,76 99.8004807,75.957376 99.7578567,75.829504 L99.6726087,74.838496 C99.4062087,75.243424 98.8307847,76.117216 97.5733767,76.117216 C96.0815366,76.117216 95.1118406,74.82784 95.1118406,73.28272 C95.1118406,71.7269439 96.0815366,70.4588799 97.5733767,70.4588799 C98.8307847,70.4588799 99.4168647,71.4072639 99.5447367,71.7056319 Z M97.7332167,75.403264 C98.8414407,75.403264 99.5553927,74.34832 99.5553927,73.293376 C99.5553927,72.227776 98.8414407,71.1834879 97.7332167,71.1834879 C96.6143366,71.1834879 95.9110406,72.185152 95.9110406,73.28272 C95.9110406,74.465536 96.6143366,75.403264 97.7332167,75.403264 Z M106.652289,74.891776 L106.854753,75.136864 C106.929345,75.232768 106.929345,75.296704 106.854753,75.371296 C106.353921,75.861472 105.490785,76.117216 104.702241,76.117216 C103.093185,76.117216 101.857089,74.849152 101.857089,73.293376 C101.857089,71.7375999 103.093185,70.4588799 104.648961,70.4588799 C106.311297,70.4588799 107.280993,71.8015359 107.280993,73.399936 C107.280993,73.527808 107.259681,73.570432 107.121153,73.570432 L102.677601,73.570432 C102.752193,74.56144 103.657953,75.41392 104.734209,75.41392 C105.256353,75.41392 105.895713,75.25408 106.407201,74.88112 C106.524417,74.817184 106.567041,74.795872 106.652289,74.891776 Z M102.698913,73.01632 L106.460481,73.01632 C106.417857,72.0572799 105.725217,71.1302079 104.638305,71.1302079 C103.540737,71.1302079 102.730881,72.0572799 102.698913,73.01632 Z M114.782817,75.392608 C115.773825,75.392608 116.530401,74.955712 117.031233,74.433568 C117.127137,74.34832 117.191073,74.369632 117.265665,74.444224 L117.585345,74.785216 C117.670593,74.891776 117.670593,74.945056 117.574689,75.04096 C116.892705,75.722944 115.816449,76.138528 114.782817,76.138528 C112.683585,76.138528 110.967969,74.390944 110.967969,72.2704 C110.967969,70.1498559 112.683585,68.4022719 114.782817,68.4022719 C115.816449,68.4022719 116.892705,68.8178559 117.574689,69.4998399 C117.659937,69.5850879 117.649281,69.6383679 117.564033,69.7342719 L117.255009,70.0752639 C117.169761,70.1711679 117.095169,70.1711679 117.009921,70.0859199 C116.541057,69.5850879 115.773825,69.1481919 114.782817,69.1481919 C113.120481,69.1481919 111.820449,70.6613439 111.820449,72.2704 C111.820449,73.879456 113.120481,75.392608 114.782817,75.392608 Z M121.986273,71.2474239 C120.600993,71.2474239 119.940321,72.21712 119.940321,73.208128 L119.940321,75.829504 C119.940321,75.957376 119.897697,76 119.780481,76 L119.300961,76 C119.183745,76 119.141121,75.957376 119.141121,75.829504 L119.141121,70.7465919 C119.141121,70.6187199 119.183745,70.5760959 119.300961,70.5760959 L119.567361,70.5760959 C119.652609,70.5760959 119.695233,70.6187199 119.748513,70.7465919 L119.876385,71.8121919 C120.089505,71.3646399 120.579681,70.4588799 122.092833,70.4588799 C122.242017,70.4588799 122.263329,70.5015039 122.242017,70.6080639 L122.178081,71.0875839 C122.146113,71.2154559 122.114145,71.2474239 121.986273,71.2474239 Z M127.655265,74.891776 L127.857729,75.136864 C127.932321,75.232768 127.932321,75.296704 127.857729,75.371296 C127.356897,75.861472 126.493761,76.117216 125.705217,76.117216 C124.096161,76.117216 122.860065,74.849152 122.860065,73.293376 C122.860065,71.7375999 124.096161,70.4588799 125.651937,70.4588799 C127.314273,70.4588799 128.283969,71.8015359 128.283969,73.399936 C128.283969,73.527808 128.262657,73.570432 128.124129,73.570432 L123.680577,73.570432 C123.755169,74.56144 124.660929,75.41392 125.737185,75.41392 C126.259329,75.41392 126.898689,75.25408 127.410177,74.88112 C127.527393,74.817184 127.570017,74.795872 127.655265,74.891776 Z M123.701889,73.01632 L127.463457,73.01632 C127.420833,72.0572799 126.728193,71.1302079 125.641281,71.1302079 C124.543713,71.1302079 123.733857,72.0572799 123.701889,73.01632 Z M130.063521,71.3326719 C129.924993,71.3646399 129.893025,71.3113599 129.861057,71.1834879 L129.775809,70.8638079 C129.743841,70.7465919 129.775809,70.6933119 129.903681,70.6506879 C130.031553,70.6187199 130.916001,70.4588799 131.736513,70.4588799 C133.526721,70.4588799 134.016897,71.2580799 134.016897,73.01632 L134.016897,75.829504 C134.016897,75.957376 133.974273,76 133.857057,76 L133.548033,76 C133.462785,76 133.420161,75.957376 133.388193,75.829504 L133.345569,75.104896 C133.057857,75.499168 132.354561,76.117216 131.203713,76.117216 C130.180737,76.117216 129.306945,75.488512 129.306945,74.34832 C129.306945,73.186816 130.180737,72.622048 131.491425,72.622048 C132.056193,72.622048 132.674241,72.771232 133.217697,72.995008 C133.217697,71.6523519 132.823425,71.1621759 131.704545,71.1621759 C131.022561,71.1621759 130.468449,71.2580799 130.063521,71.3326719 Z M131.651265,73.218784 C130.638945,73.218784 130.106145,73.623712 130.106145,74.34832 C130.106145,75.008992 130.585665,75.488512 131.448801,75.488512 C132.184065,75.488512 132.876705,74.98768 133.217697,74.486848 L133.217697,73.6024 C132.674241,73.378624 132.258657,73.218784 131.651265,73.218784 Z M138.087489,75.392608 C138.673569,75.392608 139.206369,75.158176 139.568673,74.795872 C139.653921,74.710624 139.717857,74.731936 139.792449,74.82784 L140.048193,75.09424 C140.133441,75.190144 140.133441,75.243424 140.048193,75.318016 C139.504737,75.861472 138.812097,76.117216 138.076833,76.117216 C136.521057,76.117216 135.284961,74.849152 135.284961,73.293376 C135.284961,71.7375999 136.521057,70.4588799 138.076833,70.4588799 C138.812097,70.4588799 139.504737,70.7146239 140.048193,71.2580799 C140.133441,71.3326719 140.133441,71.3859519 140.048193,71.4818559 L139.792449,71.7482559 C139.717857,71.8441599 139.653921,71.8654719 139.568673,71.7802239 C139.206369,71.4179199 138.673569,71.1834879 138.087489,71.1834879 C136.968609,71.1834879 136.073505,72.121216 136.073505,73.293376 C136.073505,74.476192 136.968609,75.392608 138.087489,75.392608 Z M141.806433,75.829504 L141.806433,70.7465919 C141.806433,70.6187199 141.838401,70.5760959 141.966273,70.5760959 L142.435137,70.5760959 C142.573665,70.5760959 142.605633,70.6187199 142.605633,70.7465919 L142.605633,75.829504 C142.605633,75.957376 142.563009,76 142.435137,76 L141.966273,76 C141.838401,76 141.806433,75.957376 141.806433,75.829504 Z M141.635937,68.7965439 C141.635937,68.4875199 141.881025,68.2424319 142.190049,68.2424319 C142.499073,68.2424319 142.754817,68.4875199 142.754817,68.7965439 C142.754817,69.1055679 142.499073,69.3506559 142.190049,69.3506559 C141.881025,69.3506559 141.635937,69.1055679 141.635937,68.7965439 Z M144.363873,73.293376 C144.363873,71.7375999 145.610625,70.4588799 147.166401,70.4588799 C148.722177,70.4588799 149.968929,71.7375999 149.968929,73.293376 C149.968929,74.849152 148.722177,76.117216 147.166401,76.117216 C145.610625,76.117216 144.363873,74.849152 144.363873,73.293376 Z M147.166401,75.403264 C148.285281,75.403264 149.180385,74.465536 149.180385,73.293376 C149.180385,72.121216 148.285281,71.1834879 147.166401,71.1834879 C146.058177,71.1834879 145.163073,72.121216 145.163073,73.293376 C145.163073,74.465536 146.058177,75.403264 147.166401,75.403264 Z M148.253313,68.8391679 L147.272961,69.7449279 C147.198369,69.8088639 147.102465,69.8514879 146.995905,69.8514879 L146.569665,69.8514879 C146.463105,69.8514879 146.420481,69.7875519 146.537697,69.6703359 L147.869697,68.2637439 C147.944289,68.1784959 148.018881,68.2104639 148.082817,68.3063679 L148.285281,68.6260479 C148.338561,68.7112959 148.338561,68.7645759 148.253313,68.8391679 Z M152.142753,70.7465919 L152.228001,71.7056319 C152.451777,71.2793919 153.005889,70.4588799 154.050177,70.4588799 C155.190369,70.4588799 156.160065,71.1515199 156.160065,72.85648 L156.160065,75.829504 C156.160065,75.957376 156.117441,76 156.000225,76 L155.520705,76 C155.403489,76 155.360865,75.957376 155.360865,75.829504 L155.360865,73.0696 C155.360865,71.8015359 154.721505,71.1834879 153.858369,71.1834879 C152.931297,71.1834879 152.334561,72.0785919 152.334561,73.144192 L152.334561,75.829504 C152.334561,75.957376 152.291937,76 152.174721,76 L151.695201,76 C151.577985,76 151.535361,75.957376 151.535361,75.829504 L151.535361,70.7465919 C151.535361,70.6187199 151.577985,70.5760959 151.695201,70.5760959 L151.961601,70.5760959 C152.046849,70.5760959 152.089473,70.6187199 152.142753,70.7465919 Z" id="Facultad-de-Creación" fill="#3E4729"></path>
                    <path d="M49.759904,85.817184 L51.5394561,81.7465919 C51.6033921,81.6080639 51.6566721,81.5760959 51.7632321,81.5760959 L52.3066881,81.5760959 C52.4239041,81.5760959 52.4558721,81.6187199 52.3919361,81.7465919 L49.163168,89.003328 C49.099232,89.141856 49.045952,89.173824 48.939392,89.173824 L48.395936,89.173824 C48.27872,89.173824 48.246752,89.1312 48.310688,89.003328 L49.323008,86.722944 L47.095904,81.7465919 C47.042624,81.6187199 47.063936,81.5760959 47.181152,81.5760959 L47.735264,81.5760959 C47.841824,81.5760959 47.884448,81.6080639 47.948384,81.7465919 L49.749248,85.817184 L49.759904,85.817184 Z M59.5421122,86.392608 C60.5331202,86.392608 61.2896962,85.955712 61.7905282,85.433568 C61.8864322,85.34832 61.9503682,85.369632 62.0249602,85.444224 L62.3446402,85.785216 C62.4298882,85.891776 62.4298882,85.945056 62.3339842,86.04096 C61.6520002,86.722944 60.5757442,87.138528 59.5421122,87.138528 C57.4428801,87.138528 55.7272641,85.390944 55.7272641,83.2704 C55.7272641,81.1498559 57.4428801,79.4022719 59.5421122,79.4022719 C60.5757442,79.4022719 61.6520002,79.8178559 62.3339842,80.4998399 C62.4192322,80.5850879 62.4085762,80.6383679 62.3233282,80.7342719 L62.0143042,81.0752639 C61.9290562,81.1711679 61.8544642,81.1711679 61.7692162,81.0859199 C61.3003522,80.5850879 60.5331202,80.1481919 59.5421122,80.1481919 C57.8797761,80.1481919 56.5797441,81.6613439 56.5797441,83.2704 C56.5797441,84.879456 57.8797761,86.392608 59.5421122,86.392608 Z M63.3569602,84.293376 C63.3569602,82.7375999 64.6037122,81.4588799 66.1594882,81.4588799 C67.7152643,81.4588799 68.9620163,82.7375999 68.9620163,84.293376 C68.9620163,85.849152 67.7152643,87.117216 66.1594882,87.117216 C64.6037122,87.117216 63.3569602,85.849152 63.3569602,84.293376 Z M66.1594882,86.403264 C67.2783683,86.403264 68.1734723,85.465536 68.1734723,84.293376 C68.1734723,83.121216 67.2783683,82.1834879 66.1594882,82.1834879 C65.0512642,82.1834879 64.1561602,83.121216 64.1561602,84.293376 C64.1561602,85.465536 65.0512642,86.403264 66.1594882,86.403264 Z M74.6949444,82.7695679 C74.9080644,82.2900479 75.4728324,81.4588799 76.4851524,81.4588799 C77.5294404,81.4588799 78.4884804,82.1515199 78.4884804,83.85648 L78.4884804,86.829504 C78.4884804,86.957376 78.4565124,87 78.3286404,87 L77.8491204,87 C77.7425604,87 77.6892804,86.957376 77.6892804,86.829504 L77.6892804,84.0696 C77.6892804,82.8015359 77.0499204,82.1834879 76.2933444,82.1834879 C75.5048004,82.1834879 74.8974084,82.9187519 74.8974084,84.090912 L74.8974084,86.829504 C74.8974084,86.957376 74.8654404,87 74.7375684,87 L74.2580484,87 C74.1514883,87 74.0982083,86.957376 74.0982083,86.829504 L74.0982083,84.0696 C74.0982083,82.9507199 73.5760643,82.1834879 72.7022723,82.1834879 C71.8391363,82.1834879 71.3063363,83.0146559 71.3063363,84.144192 L71.3063363,86.829504 C71.3063363,86.957376 71.2637123,87 71.1464963,87 L70.6669763,87 C70.5497603,87 70.5071363,86.957376 70.5071363,86.829504 L70.5071363,81.7465919 C70.5071363,81.6187199 70.5497603,81.5760959 70.6669763,81.5760959 L70.9333763,81.5760959 C71.0186243,81.5760959 71.0612483,81.6187199 71.1145283,81.7465919 L71.1997763,82.7375999 C71.3915843,82.2900479 71.8817603,81.4588799 72.8940803,81.4588799 C73.9383683,81.4588799 74.5031364,82.2580799 74.6949444,82.7695679 Z M84.0402565,86.829504 L83.9550085,85.870464 C83.7312325,86.296704 83.1771205,87.117216 82.1328325,87.117216 C80.9926404,87.117216 80.0229444,86.424576 80.0229444,84.719616 L80.0229444,81.7465919 C80.0229444,81.6187199 80.0655684,81.5760959 80.1827844,81.5760959 L80.6623044,81.5760959 C80.7795204,81.5760959 80.8221444,81.6187199 80.8221444,81.7465919 L80.8221444,84.506496 C80.8221444,85.77456 81.4615044,86.392608 82.3246405,86.392608 C83.2517125,86.392608 83.8484485,85.497504 83.8484485,84.431904 L83.8484485,81.7465919 C83.8484485,81.6187199 83.8910725,81.5760959 84.0082885,81.5760959 L84.4878085,81.5760959 C84.6050245,81.5760959 84.6476485,81.6187199 84.6476485,81.7465919 L84.6476485,86.829504 C84.6476485,86.957376 84.6050245,87 84.4878085,87 L84.2214085,87 C84.1361605,87 84.0935365,86.957376 84.0402565,86.829504 Z M87.3649285,81.7465919 L87.4501765,82.7056319 C87.6739525,82.2793919 88.2280645,81.4588799 89.2723525,81.4588799 C90.4125446,81.4588799 91.3822406,82.1515199 91.3822406,83.85648 L91.3822406,86.829504 C91.3822406,86.957376 91.3396166,87 91.2224006,87 L90.7428806,87 C90.6256646,87 90.5830406,86.957376 90.5830406,86.829504 L90.5830406,84.0696 C90.5830406,82.8015359 89.9436806,82.1834879 89.0805445,82.1834879 C88.1534725,82.1834879 87.5567365,83.0785919 87.5567365,84.144192 L87.5567365,86.829504 C87.5567365,86.957376 87.5141125,87 87.3968965,87 L86.9173765,87 C86.8001605,87 86.7575365,86.957376 86.7575365,86.829504 L86.7575365,81.7465919 C86.7575365,81.6187199 86.8001605,81.5760959 86.9173765,81.5760959 L87.1837765,81.5760959 C87.2690245,81.5760959 87.3116485,81.6187199 87.3649285,81.7465919 Z M93.4175366,86.829504 L93.4175366,81.7465919 C93.4175366,81.6187199 93.4495046,81.5760959 93.5773766,81.5760959 L94.0462406,81.5760959 C94.1847686,81.5760959 94.2167366,81.6187199 94.2167366,81.7465919 L94.2167366,86.829504 C94.2167366,86.957376 94.1741126,87 94.0462406,87 L93.5773766,87 C93.4495046,87 93.4175366,86.957376 93.4175366,86.829504 Z M93.2470406,79.7965439 C93.2470406,79.4875199 93.4921286,79.2424319 93.8011526,79.2424319 C94.1101766,79.2424319 94.3659206,79.4875199 94.3659206,79.7965439 C94.3659206,80.1055679 94.1101766,80.3506559 93.8011526,80.3506559 C93.4921286,80.3506559 93.2470406,80.1055679 93.2470406,79.7965439 Z M98.7775047,86.392608 C99.3635847,86.392608 99.8963847,86.158176 100.258689,85.795872 C100.343937,85.710624 100.407873,85.731936 100.482465,85.82784 L100.738209,86.09424 C100.823457,86.190144 100.823457,86.243424 100.738209,86.318016 C100.194753,86.861472 99.5021127,87.117216 98.7668487,87.117216 C97.2110726,87.117216 95.9749766,85.849152 95.9749766,84.293376 C95.9749766,82.7375999 97.2110726,81.4588799 98.7668487,81.4588799 C99.5021127,81.4588799 100.194753,81.7146239 100.738209,82.2580799 C100.823457,82.3326719 100.823457,82.3859519 100.738209,82.4818559 L100.482465,82.7482559 C100.407873,82.8441599 100.343937,82.8654719 100.258689,82.7802239 C99.8963847,82.4179199 99.3635847,82.1834879 98.7775047,82.1834879 C97.6586247,82.1834879 96.7635206,83.121216 96.7635206,84.293376 C96.7635206,85.476192 97.6586247,86.392608 98.7775047,86.392608 Z M102.560385,82.3326719 C102.421857,82.3646399 102.389889,82.3113599 102.357921,82.1834879 L102.272673,81.8638079 C102.240705,81.7465919 102.272673,81.6933119 102.400545,81.6506879 C102.528417,81.6187199 103.412865,81.4588799 104.233377,81.4588799 C106.023585,81.4588799 106.513761,82.2580799 106.513761,84.01632 L106.513761,86.829504 C106.513761,86.957376 106.471137,87 106.353921,87 L106.044897,87 C105.959649,87 105.917025,86.957376 105.885057,86.829504 L105.842433,86.104896 C105.554721,86.499168 104.851425,87.117216 103.700577,87.117216 C102.677601,87.117216 101.803809,86.488512 101.803809,85.34832 C101.803809,84.186816 102.677601,83.622048 103.988289,83.622048 C104.553057,83.622048 105.171105,83.771232 105.714561,83.995008 C105.714561,82.6523519 105.320289,82.1621759 104.201409,82.1621759 C103.519425,82.1621759 102.965313,82.2580799 102.560385,82.3326719 Z M104.148129,84.218784 C103.135809,84.218784 102.603009,84.623712 102.603009,85.34832 C102.603009,86.008992 103.082529,86.488512 103.945665,86.488512 C104.680929,86.488512 105.373569,85.98768 105.714561,85.486848 L105.714561,84.6024 C105.171105,84.378624 104.755521,84.218784 104.148129,84.218784 Z M110.584353,86.392608 C111.170433,86.392608 111.703233,86.158176 112.065537,85.795872 C112.150785,85.710624 112.214721,85.731936 112.289313,85.82784 L112.545057,86.09424 C112.630305,86.190144 112.630305,86.243424 112.545057,86.318016 C112.001601,86.861472 111.308961,87.117216 110.573697,87.117216 C109.017921,87.117216 107.781825,85.849152 107.781825,84.293376 C107.781825,82.7375999 109.017921,81.4588799 110.573697,81.4588799 C111.308961,81.4588799 112.001601,81.7146239 112.545057,82.2580799 C112.630305,82.3326719 112.630305,82.3859519 112.545057,82.4818559 L112.289313,82.7482559 C112.214721,82.8441599 112.150785,82.8654719 112.065537,82.7802239 C111.703233,82.4179199 111.170433,82.1834879 110.584353,82.1834879 C109.465473,82.1834879 108.570369,83.121216 108.570369,84.293376 C108.570369,85.476192 109.465473,86.392608 110.584353,86.392608 Z M114.303297,86.829504 L114.303297,81.7465919 C114.303297,81.6187199 114.335265,81.5760959 114.463137,81.5760959 L114.932001,81.5760959 C115.070529,81.5760959 115.102497,81.6187199 115.102497,81.7465919 L115.102497,86.829504 C115.102497,86.957376 115.059873,87 114.932001,87 L114.463137,87 C114.335265,87 114.303297,86.957376 114.303297,86.829504 Z M114.132801,79.7965439 C114.132801,79.4875199 114.377889,79.2424319 114.686913,79.2424319 C114.995937,79.2424319 115.251681,79.4875199 115.251681,79.7965439 C115.251681,80.1055679 114.995937,80.3506559 114.686913,80.3506559 C114.377889,80.3506559 114.132801,80.1055679 114.132801,79.7965439 Z M116.860737,84.293376 C116.860737,82.7375999 118.107489,81.4588799 119.663265,81.4588799 C121.219041,81.4588799 122.465793,82.7375999 122.465793,84.293376 C122.465793,85.849152 121.219041,87.117216 119.663265,87.117216 C118.107489,87.117216 116.860737,85.849152 116.860737,84.293376 Z M119.663265,86.403264 C120.782145,86.403264 121.677249,85.465536 121.677249,84.293376 C121.677249,83.121216 120.782145,82.1834879 119.663265,82.1834879 C118.555041,82.1834879 117.659937,83.121216 117.659937,84.293376 C117.659937,85.465536 118.555041,86.403264 119.663265,86.403264 Z M120.750177,79.8391679 L119.769825,80.7449279 C119.695233,80.8088639 119.599329,80.8514879 119.492769,80.8514879 L119.066529,80.8514879 C118.959969,80.8514879 118.917345,80.7875519 119.034561,80.6703359 L120.366561,79.2637439 C120.441153,79.1784959 120.515745,79.2104639 120.579681,79.3063679 L120.782145,79.6260479 C120.835425,79.7112959 120.835425,79.7645759 120.750177,79.8391679 Z M124.639617,81.7465919 L124.724865,82.7056319 C124.948641,82.2793919 125.502753,81.4588799 126.547041,81.4588799 C127.687233,81.4588799 128.656929,82.1515199 128.656929,83.85648 L128.656929,86.829504 C128.656929,86.957376 128.614305,87 128.497089,87 L128.017569,87 C127.900353,87 127.857729,86.957376 127.857729,86.829504 L127.857729,84.0696 C127.857729,82.8015359 127.218369,82.1834879 126.355233,82.1834879 C125.428161,82.1834879 124.831425,83.0785919 124.831425,84.144192 L124.831425,86.829504 C124.831425,86.957376 124.788801,87 124.671585,87 L124.192065,87 C124.074849,87 124.032225,86.957376 124.032225,86.829504 L124.032225,81.7465919 C124.032225,81.6187199 124.074849,81.5760959 124.192065,81.5760959 L124.458465,81.5760959 C124.543713,81.5760959 124.586337,81.6187199 124.639617,81.7465919 Z" id="y-Comunicación" fill="#3E4729"></path>
                </g>
            </g>
        </g>
    </g>
</svg>