<?xml version="1.0" encoding="UTF-8"?>
<svg width="114px" height="71px" viewBox="0 0 114 71" version="1.1" xmlns="http://www.w3.org/2000/svg" xmlns:xlink="http://www.w3.org/1999/xlink">
    <!-- Generator: Sketch 50.2 (55047) - http://www.bohemiancoding.com/sketch -->
    <title>logo ec footer</title>
    <desc>Created with Sketch.</desc>
    <defs>
        <polygon id="path-1" points="2.74217064e-06 0.0204 55.36142 0.0204 55.36142 60.51856 2.74217064e-06 60.51856"></polygon>
        <polygon id="path-3" points="0.154077766 0.0775021666 9.775 0.0775021666 9.775 23.6257377 0.154077766 23.6257377"></polygon>
    </defs>
    <g id="Welcome" stroke="none" stroke-width="1" fill="none" fill-rule="evenodd">
        <g id="Desktop-HD" transform="translate(-704.000000, -4487.000000)">
            <g id="footer" transform="translate(149.000000, 4471.000000)">
                <g id="logo-ec-footer" transform="translate(555.000000, 16.000000)">
                    <path d="M87.0738525,41.6673126 C88.7942525,40.1283126 89.5186525,37.9609126 90.4514525,35.9163126 C90.6724525,35.4315126 90.8284525,34.8289126 91.3764525,34.6641126 C91.5576525,34.6095126 91.3342525,34.4945126 91.3438525,34.5849126 C91.3560525,34.6997126 91.3356525,34.8165126 91.3156525,34.9287126 C91.1914525,35.6221126 90.8790525,36.2977126 90.6004525,36.9391126 C90.2894525,37.6553126 89.2836525,39.0307126 89.8894525,39.7635126 C90.4368525,40.4259126 91.4442525,39.6035126 91.8828525,39.2461126 C92.8520525,38.4563126 93.6942525,37.5007126 94.5560525,36.5995126 C95.3238525,35.7967126 96.1084525,34.8311126 97.0776525,34.2625126 C97.2216525,34.1779126 97.2630525,34.2513126 97.0888525,34.1681126 C96.7650525,34.0133126 97.1342525,34.2519126 97.2444525,34.4173126 C97.4880525,34.7841126 96.5892525,35.9203126 96.4054525,36.1853126 C95.2216525,37.8925126 93.6022525,39.4441126 91.9216525,40.6559126 C91.7860525,40.7539126 91.6530525,40.9073126 91.6722525,41.0907126 C91.8084525,42.3835126 93.3338525,41.4729126 93.9208525,41.1175126 C95.4250525,40.2065126 96.8258525,39.1349126 98.3322525,38.2261126 C98.8868525,37.8915126 99.4734525,37.5401126 100.111453,37.3955126 C100.339453,37.3437126 100.183653,37.3623126 100.139253,37.5819126 C100.044853,38.0503126 99.6460525,38.4607126 99.3342525,38.7955126 C97.6822525,40.5687126 95.3392525,41.8499126 93.1884525,42.9153126 C92.7894525,43.1129126 92.9068525,43.7289126 93.3088525,43.8357126 C95.8896525,44.5223126 98.3352525,42.3815126 100.851053,42.2835126 C101.186453,42.2705126 100.925853,42.1291126 100.905653,42.2725126 C100.871653,42.5169126 100.676453,42.7019126 100.509453,42.8641126 C100.031053,43.3291126 99.3568525,43.6245126 98.7634525,43.9087126 C97.4398525,44.5425126 96.0300525,45.0039126 94.7598525,45.7465126 C94.0460525,46.1637126 93.8084525,46.9617126 94.7332525,47.2949126 C95.5406525,47.5857126 96.7086525,47.1971126 97.5094525,47.0469126 C97.9514525,46.9641126 98.3936525,46.8781126 98.8426525,46.8445126 C99.3672525,46.8051126 98.9788525,46.9709126 99.0518525,46.5387126 C99.0248525,46.6989126 98.9306525,46.8799126 98.8960525,47.0523126 C98.7568525,47.7463126 97.4392525,48.3195126 96.9018525,48.6241126 C95.8524525,49.2191126 94.7456525,49.7171126 93.6498525,50.2187126 C93.0598525,50.4885126 93.5720525,51.3563126 94.1580525,51.0881126 C95.9280525,50.2783126 98.0046525,49.4975126 99.3986525,48.0841126 C99.7484525,47.7295126 100.396453,46.5399126 99.8530525,46.0969126 C99.2434525,45.6003126 98.2610525,45.8917126 97.5652525,46.0161126 C97.0272525,46.1123126 96.4916525,46.2211126 95.9510525,46.3017126 C95.7240525,46.3357126 95.4944525,46.3503126 95.2652525,46.3531126 C94.9500525,46.3569126 95.1020525,46.2561126 95.0994525,46.4625126 C95.0164525,46.6073126 94.9332525,46.7523126 94.8500525,46.8971126 C96.2228525,45.8951126 97.9514525,45.4105126 99.4730525,44.6819126 C100.478253,44.2007126 102.064853,43.3733126 101.897253,42.0265126 C101.728853,40.6727126 99.5710525,41.4813126 98.8154525,41.7171126 C97.2862525,42.1941126 95.2096525,43.2991126 93.5764525,42.8645126 C93.6166525,43.1715126 93.6566525,43.4781126 93.6966525,43.7849126 C95.9012525,42.6931126 98.1212525,41.3803126 99.8966525,39.6599126 C100.556453,39.0205126 102.202853,36.5079126 100.240253,36.3793126 C99.6630525,36.3415126 99.0354525,36.6961126 98.5436525,36.9499126 C97.6898525,37.3907126 96.8880525,37.9361126 96.0910525,38.4699126 C95.3290525,38.9799126 94.5762525,39.5037126 93.8058525,40.0009126 C93.4892525,40.2051126 93.1676525,40.4013126 92.8358525,40.5797126 C92.7264525,40.6381126 92.6154525,40.6921126 92.4992525,40.7353126 C92.1484525,40.8655126 92.6248525,40.5731126 92.6792525,41.0907126 C92.5962525,41.2357126 92.5130525,41.3805126 92.4298525,41.5255126 C94.1214525,40.3057126 95.6438525,38.8183126 96.9204525,37.1705126 C97.4718525,36.4589126 98.9044525,34.6651126 97.9836525,33.7297126 C97.6296525,33.3699126 98.1254525,34.0047126 97.8468525,33.5439126 C97.7602525,33.4005126 97.6002525,33.2701126 97.4356525,33.2281126 C97.0648525,33.1335126 96.7206525,33.2921126 96.4128525,33.4885126 C95.3896525,34.1417126 94.5526525,35.1465126 93.7212525,36.0155126 C92.8280525,36.9495126 91.9508525,37.9869126 90.8958525,38.7451126 C90.7658525,38.8385126 90.6258525,38.9323126 90.4724525,38.9815126 C90.7338525,38.8977126 90.5654525,39.5741126 90.7392525,39.1119126 C90.9964525,38.4277126 91.3330525,37.7707126 91.6202525,37.0987126 C91.9576525,36.3097126 92.8580525,34.6299126 92.0494525,33.8599126 C91.6836525,33.5117126 91.1146525,33.6537126 90.7104525,33.8401126 C89.7172525,34.2983126 89.3444525,35.9257126 88.9356525,36.8747126 C88.2858525,38.3825126 87.6064525,39.8415126 86.3616525,40.9551126 C85.8768525,41.3889126 86.5914525,42.0989126 87.0738525,41.6673126" id="Fill-24" fill="#E31363"></path>
                    <path d="M104.686857,37.1934 C106.832457,35.6686 107.509457,33.0392 107.537457,30.5246 C107.542057,30.0916 106.870857,30.092 106.866057,30.5246 C106.841057,32.7752 106.285457,35.2368 104.347857,36.6138 C103.998257,36.8622 104.332857,37.4448 104.686857,37.1934" id="Fill-32" fill="#E31363"></path>
                    <g id="Group-41" transform="translate(4.800000, 58.000000)" fill="#394394">
                        <path d="M6.39441888,10.6262069 L6.6847396,10.9670182 C6.78572072,11.0932446 6.79834336,11.1689804 6.69736224,11.2699616 C6.10409816,11.850603 5.06904168,12.1535464 4.14758896,12.1535464 C2.24157032,12.1535464 0.76472144,10.6514522 0.76472144,8.80854677 C0.76472144,6.96564133 2.24157032,5.45092453 4.08447576,5.45092453 C6.07885288,5.45092453 7.20226784,7.06662245 7.20226784,8.96001845 C7.20226784,9.12411277 7.17702256,9.18722597 7.0003056,9.18722597 L1.91338168,9.18722597 C2.0143628,10.272773 2.99892872,11.1942257 4.18545688,11.1942257 C4.74085304,11.1942257 5.46034352,11.0301314 6.07885288,10.6135843 C6.23032456,10.5252258 6.29343776,10.4999805 6.39441888,10.6262069 Z M1.93862696,8.42986757 L6.06623024,8.42986757 C6.00311704,7.40743373 5.27100392,6.38499989 4.05923048,6.38499989 C2.8348344,6.38499989 1.98911752,7.40743373 1.93862696,8.42986757 Z M10.9259466,11.2699616 C12.0619842,11.2699616 12.5416446,10.7903012 12.5416446,10.1970372 C12.5416446,9.69213157 11.9357578,9.42705613 10.8502108,9.27558445 C9.57532416,9.11149013 8.40141864,8.78330149 8.40141864,7.44530165 C8.40141864,6.23352821 9.36073928,5.45092453 10.8628334,5.45092453 C11.5192107,5.45092453 12.3901729,5.61501885 13.2863803,6.15779237 C13.4504746,6.25877349 13.4126067,6.34713197 13.3494935,6.47335837 L13.1475313,6.83941493 C13.0717954,6.97826397 13.0086822,7.04137717 12.8445879,6.94039605 C12.2134559,6.54909421 11.7337956,6.33450933 10.9259466,6.33450933 C9.91613544,6.33450933 9.44909776,6.75105645 9.44909776,7.39481109 C9.44909776,8.01332045 10.0549845,8.13954685 11.1405315,8.30364117 C12.4154182,8.46773549 13.6019463,8.88428261 13.6019463,10.1465466 C13.6019463,11.3204521 12.6173804,12.1535464 10.9890598,12.1535464 C10.3200599,12.1535464 9.31024872,11.9642068 8.388796,11.3456974 C8.24994696,11.2573389 8.2625696,11.1816031 8.33830544,11.042754 L8.55289032,10.6640748 C8.62862616,10.5252258 8.67911672,10.44949 8.85583368,10.5757164 C9.37336192,10.9543956 10.105475,11.2699616 10.9259466,11.2699616 Z M18.0451156,11.1563578 C18.6762476,11.1563578 19.2821343,10.9165276 19.6986814,10.4999805 C19.8249078,10.3863768 19.9006437,10.4242447 20.0142474,10.5378484 L20.3676814,10.9291503 C20.4686625,11.0553767 20.4812851,11.1058672 20.380304,11.2068484 C19.7365494,11.850603 18.9160778,12.1535464 18.0451156,12.1535464 C16.2022102,12.1535464 14.7253613,10.6514522 14.7253613,8.80854677 C14.7253613,6.96564133 16.2022102,5.45092453 18.0451156,5.45092453 C18.9160778,5.45092453 19.7365494,5.76649053 20.380304,6.39762253 C20.4812851,6.49860365 20.4686625,6.56171685 20.3676814,6.68794325 L20.0142474,7.06662245 C19.9006437,7.19284885 19.8249078,7.21809413 19.6986814,7.10449037 C19.2821343,6.68794325 18.6762476,6.46073573 18.0451156,6.46073573 C16.8207195,6.46073573 15.823531,7.49579221 15.823531,8.80854677 C15.823531,10.133924 16.8207195,11.1563578 18.0451156,11.1563578 Z M26.5401523,11.8001124 L26.4139259,10.7776786 C26.1109826,11.2825842 25.4798506,12.1535464 24.2933224,12.1535464 C22.9426999,12.1535464 21.819285,11.35832 21.819285,9.28820709 L21.819285,5.81698109 C21.819285,5.65288677 21.8697755,5.58977357 22.0338698,5.58977357 L22.7154924,5.58977357 C22.8669641,5.58977357 22.9300773,5.64026413 22.9300773,5.81698109 L22.9300773,9.02313165 C22.9300773,10.4621126 23.5990772,11.1563578 24.5710205,11.1563578 C25.6186996,11.1563578 26.2498316,10.1844145 26.2498316,8.94739581 L26.2498316,5.81698109 C26.2498316,5.65288677 26.3003222,5.58977357 26.4644165,5.58977357 L27.146039,5.58977357 C27.2975107,5.58977357 27.3606239,5.64026413 27.3606239,5.81698109 L27.3606239,11.8001124 C27.3606239,11.9642068 27.2975107,12.0146973 27.146039,12.0146973 L26.7799825,12.0146973 C26.6537561,12.0146973 26.6032655,11.9515841 26.5401523,11.8001124 Z M34.7701136,10.6262069 L35.0604343,10.9670182 C35.1614154,11.0932446 35.1740381,11.1689804 35.073057,11.2699616 C34.4797929,11.850603 33.4447364,12.1535464 32.5232837,12.1535464 C30.617265,12.1535464 29.1404162,10.6514522 29.1404162,8.80854677 C29.1404162,6.96564133 30.617265,5.45092453 32.4601705,5.45092453 C34.4545476,5.45092453 35.5779626,7.06662245 35.5779626,8.96001845 C35.5779626,9.12411277 35.5527173,9.18722597 35.3760003,9.18722597 L30.2890764,9.18722597 C30.3900575,10.272773 31.3746234,11.1942257 32.5611516,11.1942257 C33.1165478,11.1942257 33.8360382,11.0301314 34.4545476,10.6135843 C34.6060193,10.5252258 34.6691325,10.4999805 34.7701136,10.6262069 Z M30.3143217,8.42986757 L34.441925,8.42986757 C34.3788118,7.40743373 33.6466986,6.38499989 32.4349252,6.38499989 C31.2105291,6.38499989 30.3648122,7.40743373 30.3143217,8.42986757 Z M37.3325095,11.8001124 L37.3325095,2.92639653 C37.3325095,2.74967957 37.3830001,2.69918901 37.559717,2.69918901 L38.228717,2.69918901 C38.4054339,2.69918901 38.4433018,2.76230221 38.4433018,2.92639653 L38.4433018,11.8001124 C38.4433018,11.9642068 38.3928113,12.0146973 38.228717,12.0146973 L37.559717,12.0146973 C37.3830001,12.0146973 37.3325095,11.9642068 37.3325095,11.8001124 Z M41.2960185,6.62483005 C41.1193015,6.65007533 41.0814336,6.58696213 41.030943,6.41024517 L40.9173393,5.96845277 C40.8794714,5.80435845 40.9047166,5.72862261 41.068811,5.69075469 C41.2202826,5.65288677 42.293207,5.45092453 43.2525277,5.45092453 C45.4741123,5.45092453 46.0042632,6.43549045 46.0042632,8.49298077 L46.0042632,11.8001124 C46.0042632,11.9642068 45.9537726,12.0146973 45.7896783,12.0146973 L45.3731312,12.0146973 C45.2469048,12.0146973 45.1964142,11.9642068 45.1459237,11.8001124 L45.0828105,11.0301314 C44.7419992,11.4593012 43.9467729,12.1535464 42.608773,12.1535464 C41.4222449,12.1535464 40.3745658,11.4340559 40.3745658,10.0581881 C40.3745658,8.68232037 41.4222449,8.01332045 42.9117164,8.01332045 C43.5302258,8.01332045 44.2749615,8.17741477 44.8934709,8.41724493 C44.8934709,6.96564133 44.4895464,6.42286781 43.2146598,6.42286781 C42.4320561,6.42286781 41.7756788,6.52384893 41.2960185,6.62483005 Z M43.1515466,8.83379205 C42.0281316,8.83379205 41.4727354,9.28820709 41.4727354,10.0581881 C41.4727354,10.7398107 41.977641,11.2952068 42.9495843,11.2952068 C43.7448106,11.2952068 44.502169,10.7524333 44.8934709,10.2096598 L44.8934709,9.23771653 C44.2875842,8.99788637 43.8205465,8.83379205 43.1515466,8.83379205 Z M53.969149,11.1563578 C54.600281,11.1563578 55.2061678,10.9165276 55.6227149,10.4999805 C55.7489413,10.3863768 55.8246771,10.4242447 55.9382809,10.5378484 L56.2917148,10.9291503 C56.3926959,11.0553767 56.4053186,11.1058672 56.3043374,11.2068484 C55.6605828,11.850603 54.8401112,12.1535464 53.969149,12.1535464 C52.1262436,12.1535464 50.6493947,10.6514522 50.6493947,8.80854677 C50.6493947,6.96564133 52.1262436,5.45092453 53.969149,5.45092453 C54.8401112,5.45092453 55.6605828,5.76649053 56.3043374,6.39762253 C56.4053186,6.49860365 56.3926959,6.56171685 56.2917148,6.68794325 L55.9382809,7.06662245 C55.8246771,7.19284885 55.7489413,7.21809413 55.6227149,7.10449037 C55.2061678,6.68794325 54.600281,6.46073573 53.969149,6.46073573 C52.744753,6.46073573 51.7475644,7.49579221 51.7475644,8.80854677 C51.7475644,10.133924 52.744753,11.1563578 53.969149,11.1563578 Z M61.4796198,6.54909421 C59.9017898,6.54909421 59.1696767,7.63464125 59.1696767,8.75805621 L59.1696767,11.8001124 C59.1696767,11.9642068 59.1191862,12.0146973 58.9550918,12.0146973 L58.2734693,12.0146973 C58.109375,12.0146973 58.0588844,11.9642068 58.0588844,11.8001124 L58.0588844,5.81698109 C58.0588844,5.64026413 58.109375,5.58977357 58.2734693,5.58977357 L58.6269032,5.58977357 C58.7531296,5.58977357 58.8036202,5.65288677 58.879356,5.81698109 L59.0686956,6.99088661 C59.3590163,6.42286781 59.9144125,5.45092453 61.6310915,5.45092453 C61.8330538,5.45092453 61.858299,5.51403773 61.8330538,5.65288677 L61.7320726,6.34713197 C61.6942047,6.51122629 61.6437142,6.54909421 61.4796198,6.54909421 Z M67.9802794,10.6262069 L68.2706002,10.9670182 C68.3715813,11.0932446 68.3842039,11.1689804 68.2832228,11.2699616 C67.6899587,11.850603 66.6549022,12.1535464 65.7334495,12.1535464 C63.8274309,12.1535464 62.350582,10.6514522 62.350582,8.80854677 C62.350582,6.96564133 63.8274309,5.45092453 65.6703363,5.45092453 C67.6647134,5.45092453 68.7881284,7.06662245 68.7881284,8.96001845 C68.7881284,9.12411277 68.7628831,9.18722597 68.5861662,9.18722597 L63.4992422,9.18722597 C63.6002234,10.272773 64.5847893,11.1942257 65.7713174,11.1942257 C66.3267136,11.1942257 67.0462041,11.0301314 67.6647134,10.6135843 C67.8161851,10.5252258 67.8792983,10.4999805 67.9802794,10.6262069 Z M63.5244875,8.42986757 L67.6520908,8.42986757 C67.5889776,7.40743373 66.8568645,6.38499989 65.645091,6.38499989 C64.420695,6.38499989 63.5749781,7.40743373 63.5244875,8.42986757 Z M70.8582414,6.62483005 C70.6815244,6.65007533 70.6436565,6.58696213 70.5931659,6.41024517 L70.4795622,5.96845277 C70.4416942,5.80435845 70.4669395,5.72862261 70.6310338,5.69075469 C70.7825055,5.65288677 71.8554299,5.45092453 72.8147506,5.45092453 C75.0363352,5.45092453 75.5664861,6.43549045 75.5664861,8.49298077 L75.5664861,11.8001124 C75.5664861,11.9642068 75.5159955,12.0146973 75.3519012,12.0146973 L74.9353541,12.0146973 C74.8091277,12.0146973 74.7586371,11.9642068 74.7081466,11.8001124 L74.6450334,11.0301314 C74.3042221,11.4593012 73.5089958,12.1535464 72.1709959,12.1535464 C70.9844678,12.1535464 69.9367886,11.4340559 69.9367886,10.0581881 C69.9367886,8.68232037 70.9844678,8.01332045 72.4739393,8.01332045 C73.0924486,8.01332045 73.8371844,8.17741477 74.4556938,8.41724493 C74.4556938,6.96564133 74.0517693,6.42286781 72.7768826,6.42286781 C71.994279,6.42286781 71.3379017,6.52384893 70.8582414,6.62483005 Z M72.7137694,8.83379205 C71.5903545,8.83379205 71.0349583,9.28820709 71.0349583,10.0581881 C71.0349583,10.7398107 71.5398639,11.2952068 72.5118072,11.2952068 C73.3070335,11.2952068 74.0643919,10.7524333 74.4556938,10.2096598 L74.4556938,9.23771653 C73.849807,8.99788637 73.3827694,8.83379205 72.7137694,8.83379205 Z M81.3476552,11.850603 C80.8427496,12.1535464 80.2999761,12.1535464 80.1358818,12.1535464 C78.4696933,12.1535464 77.7880707,11.1058672 77.7880707,9.35132029 L77.7880707,6.49860365 L77.2200519,6.49860365 C77.0559576,6.49860365 77.005467,6.44811309 77.005467,6.27139613 L77.005467,5.81698109 C77.005467,5.64026413 77.0559576,5.58977357 77.2200519,5.58977357 L77.7880707,5.58977357 L77.7880707,4.31488693 C77.7880707,4.15079261 77.8385613,4.08767941 78.0152782,4.08767941 L78.6716555,4.08767941 C78.8483725,4.08767941 78.898863,4.13816997 78.898863,4.31488693 L78.898863,5.58977357 L81.0573345,5.58977357 C81.2214288,5.58977357 81.284542,5.64026413 81.284542,5.81698109 L81.284542,6.27139613 C81.284542,6.44811309 81.2340514,6.49860365 81.0573345,6.49860365 L78.898863,6.49860365 L78.898863,9.27558445 C78.898863,10.6388296 79.3154102,11.1563578 80.2494855,11.1563578 C80.5776742,11.1563578 80.7796364,11.1311125 81.0825798,10.9796408 C81.2719194,10.8786597 81.3097873,10.8912824 81.3602778,11.0932446 L81.4486363,11.5729049 C81.4865042,11.7243766 81.4738816,11.7748672 81.3476552,11.850603 Z M83.3294097,11.8001124 L83.3294097,5.81698109 C83.3294097,5.64026413 83.3799002,5.58977357 83.5566172,5.58977357 L84.2256171,5.58977357 C84.4023341,5.58977357 84.440202,5.65288677 84.440202,5.81698109 L84.440202,11.8001124 C84.440202,11.9642068 84.3897114,12.0146973 84.2256171,12.0146973 L83.5566172,12.0146973 C83.3799002,12.0146973 83.3294097,11.9642068 83.3294097,11.8001124 Z M83.1400701,3.51966061 C83.1400701,3.11573613 83.4682587,2.77492485 83.8721832,2.77492485 C84.2761077,2.77492485 84.616919,3.11573613 84.616919,3.51966061 C84.616919,3.92358509 84.2761077,4.25177373 83.8721832,4.25177373 C83.4682587,4.25177373 83.1400701,3.92358509 83.1400701,3.51966061 Z M88.9338618,12.02732 L85.9422962,5.81698109 C85.8918056,5.70337733 85.9422962,5.58977357 86.0685226,5.58977357 L86.825881,5.58977357 C86.9773526,5.58977357 87.0278432,5.64026413 87.1162017,5.81698109 L89.1232014,10.0834334 L89.1358241,10.096056 L91.1302012,5.81698109 C91.2185597,5.64026413 91.2816729,5.58977357 91.4205219,5.58977357 L92.1652577,5.58977357 C92.3167294,5.58977357 92.3545973,5.71599997 92.3041067,5.81698109 L89.3251637,12.02732 C89.2494278,12.1535464 89.2241826,12.2292822 89.1484467,12.2292822 L89.1105788,12.2292822 C89.034843,12.2292822 89.0095977,12.1535464 88.9338618,12.02732 Z M93.7935783,6.62483005 C93.6168613,6.65007533 93.5789934,6.58696213 93.5285028,6.41024517 L93.4148991,5.96845277 C93.3770311,5.80435845 93.4022764,5.72862261 93.5663707,5.69075469 C93.7178424,5.65288677 94.7907668,5.45092453 95.7500875,5.45092453 C97.9716721,5.45092453 98.501823,6.43549045 98.501823,8.49298077 L98.501823,11.8001124 C98.501823,11.9642068 98.4513324,12.0146973 98.2872381,12.0146973 L97.870691,12.0146973 C97.7444646,12.0146973 97.693974,11.9642068 97.6434835,11.8001124 L97.5803703,11.0301314 C97.239559,11.4593012 96.4443327,12.1535464 95.1063328,12.1535464 C93.9198047,12.1535464 92.8721255,11.4340559 92.8721255,10.0581881 C92.8721255,8.68232037 93.9198047,8.01332045 95.4092762,8.01332045 C96.0277855,8.01332045 96.7725213,8.17741477 97.3910307,8.41724493 C97.3910307,6.96564133 96.9871062,6.42286781 95.7122195,6.42286781 C94.9296159,6.42286781 94.2732386,6.52384893 93.7935783,6.62483005 Z M95.6491063,8.83379205 C94.5256914,8.83379205 93.9702952,9.28820709 93.9702952,10.0581881 C93.9702952,10.7398107 94.4752008,11.2952068 95.4471441,11.2952068 C96.2423704,11.2952068 96.9997288,10.7524333 97.3910307,10.2096598 L97.3910307,9.23771653 C96.7851439,8.99788637 96.3181063,8.83379205 95.6491063,8.83379205 Z" id="escuela-creativa"></path>
                        <path d="M1,9.13718643 L6.393,8.45458643 C6.393,8.45458643 5.8256,5.61758643 3.6956,6.04358643 C1.5674,6.46958643 1,9.13718643 1,9.13718643" id="Fill-38"></path>
                        <path d="M29.4,9.13718643 L34.792,8.45458643 C34.792,8.45458643 34.2264,5.61758643 32.0964,6.04358643 C29.9664,6.46958643 29.4,9.13718643 29.4,9.13718643" id="Fill-39"></path>
                        <path d="M63.2,9.16338643 L68.169,8.45458643 C68.169,8.45458643 67.5996,5.61758643 65.4734,6.04358643 C63.3434,6.46958643 63.2,9.16338643 63.2,9.16338643" id="Fill-40"></path>
                    </g>
                    <g id="Group-3">
                        <mask id="mask-2" fill="white">
                            <use xlink:href="#path-1"></use>
                        </mask>
                        <g id="Clip-2"></g>
                        <path d="M32.84542,14.14736 C40.25022,14.14736 41.84642,19.95896 42.18862,24.74256 L19.74442,24.74256 C21.45222,20.64156 24.75602,14.14736 32.84542,14.14736 M42.87242,42.74556 C36.03582,45.59356 31.70602,45.70696 29.08582,45.70696 C23.04822,45.70696 18.60322,41.60596 17.57822,35.79536 L43.87422,35.79536 C43.82662,34.02076 43.94302,32.19296 44.23882,30.32616 C45.51662,22.27856 49.63822,15.12956 55.36142,9.80076 C51.63522,3.85616 45.15962,0.02036 35.46562,0.02036 C18.83202,0.02036 3.10982,13.12236 0.37422,30.32616 C-2.24498,46.96096 9.14642,60.51856 26.35222,60.51856 C34.66942,60.51856 44.42302,57.74496 50.59162,52.64016 C47.82442,49.69356 45.80882,46.05316 44.73922,41.96236 C44.24342,42.14656 43.64242,42.42936 42.87242,42.74556" id="Fill-1" fill="#E20A62" mask="url(#mask-2)"></path>
                    </g>
                    <path d="M76.7502,15.496 C79.4848,15.496 83.7002,15.721 86.6618,19.0268 C88.1426,20.621 89.1694,20.1654 91.106,18.3422 L97.8292,12.075 C99.5386,10.3672 99.9926,9.797 98.9676,8.5442 C94.0676,2.848 87.1194,0 79.256,0 C70.403,0 61.8046,3.7122 55.2872,9.7802 C59.0534,15.7844 60.0096,23.9398 58.6348,32.4692 C58.2944,34.9768 57.7232,35.775 55.33,35.775 L43.8,35.775 C43.8568,37.917 44.1516,39.981 44.665,41.9418 C45.7784,41.527 46.3728,41.6116 47.2416,42.9528 L50.7732,48.5346 C51.9126,50.2442 52.1424,51.1556 50.7732,52.4076 C50.6904,52.4802 50.603,52.549 50.5174,52.6198 C55.1096,57.5104 61.7638,60.498 69.5712,60.498 C77.433,60.498 85.2962,57.65 92.0156,51.952 C93.5002,50.7 93.2696,50.1306 92.0156,48.421 L87.3446,42.1556 C85.8656,40.3326 85.0676,39.876 83.131,41.471 C79.0272,44.775 74.8136,45.0038 72.0808,45.0038 C65.0156,45.0038 60.0022,38.9654 61.3694,30.3056 C62.7368,21.647 69.6868,15.496 76.7502,15.496" id="Fill-4" fill="#394394"></path>
                    <path d="M31.59785,22.7712 C35.06165,22.7712 35.06165,17.4 31.59785,17.4 C28.13405,17.4 28.13405,22.7712 31.59785,22.7712" id="Fill-6" fill="#E31363"></path>
                    <path d="M32.4495,21.1428 C33.3155,21.1428 33.3155,19.8 32.4495,19.8 C31.5835,19.8 31.5835,21.1428 32.4495,21.1428" id="Fill-8" fill="#F8F7F6"></path>
                    <path d="M19.3514085,17.4214284 C18.5448085,16.2390284 17.5550085,15.2088284 16.5472085,14.1984284 C15.9350085,13.5848284 14.9856085,14.5344284 15.5976085,15.1480284 C16.5228085,16.0756284 17.4512085,17.0132284 18.1918085,18.0992284 C18.6766085,18.8098284 19.8408085,18.1388284 19.3514085,17.4214284" id="Fill-10" fill="#FFFFFF"></path>
                    <path d="M24.034002,14.1322563 C23.584402,12.4508563 22.812402,10.8922563 22.037202,9.3416563 C21.650002,8.5668563 20.491802,9.2472563 20.877602,10.0194563 C21.602402,11.4692563 22.318602,12.9170563 22.739002,14.4892563 C22.962602,15.3250563 24.258002,14.9698563 24.034002,14.1322563" id="Fill-12" fill="#FFFFFF"></path>
                    <path d="M30.3428,11.50995 L30.3428,7.64935 C30.3428,6.78355 29,6.78355 29,7.64935 L29,11.50995 C29,12.37595 30.3428,12.37595 30.3428,11.50995" id="Fill-14" fill="#FFFFFF"></path>
                    <path d="M35.7353198,12.0781187 C36.1885198,10.7675187 36.8249198,9.52951867 37.2783198,8.21891867 C37.5623198,7.39831867 36.2647198,7.04891867 35.9835198,7.86191867 C35.5301198,9.17231867 34.8937198,10.4105187 34.4403198,11.7211187 C34.1565198,12.5417187 35.4541198,12.8913187 35.7353198,12.0781187" id="Fill-16" fill="#FFFFFF"></path>
                    <path d="M40.3826846,14.5057297 C41.7618846,13.5785297 43.1364846,12.5533297 44.0966846,11.1767297 C44.5934846,10.4645297 43.4286846,9.79432968 42.9370846,10.4989297 C42.1162846,11.6757297 40.8812846,12.5555297 39.7048846,13.3461297 C38.9904846,13.8265297 39.6618846,14.9903297 40.3826846,14.5057297" id="Fill-18" fill="#FFFFFF"></path>
                    <path d="M42.8174291,17.5761705 C43.8500291,17.0487705 44.8254291,16.3513705 45.6564291,15.5429705 C46.2780291,14.9383705 45.3276291,13.9895705 44.7068291,14.5933705 C43.9532291,15.3265705 43.0758291,15.9385705 42.1396291,16.4165705 C41.3682291,16.8105705 42.0478291,17.9689705 42.8174291,17.5761705" id="Fill-20" fill="#FFFFFF"></path>
                    <path d="M89.4817351,19.428001 C91.0855351,21.936401 90.6137351,24.370001 90.1021351,27.128601 C89.9289351,28.062001 89.5681351,29.084801 90.1381351,29.914001 C90.4009351,30.296001 90.8381351,30.621401 91.3191351,30.448801 C92.3627351,30.074601 92.5185351,28.128601 92.6851351,27.236801 C92.8011351,26.616001 92.8933351,25.990201 93.0301351,25.373401 C93.1319351,24.915601 92.9591351,25.565001 92.7089351,25.347801 C92.8355351,25.457601 92.8953351,25.668401 92.9511351,25.820001 C93.8279351,28.208601 93.5695351,30.939601 94.5775351,33.282401 C94.7131351,33.597401 94.9035351,33.906001 95.2413351,34.028001 C95.3879351,34.081001 95.5427351,34.074801 95.6921351,34.036201 C95.7647351,34.017201 95.8455351,33.973001 95.9095351,33.931001 C96.1837351,33.750601 95.5433351,34.014001 96.0279351,33.920201 C97.2925351,33.675801 97.0947351,31.309601 97.0471351,30.453601 C96.9343351,28.424401 96.5023351,26.350001 95.8061351,24.442201 C95.7629351,24.605601 95.7197351,24.768801 95.6767351,24.932201 C95.4613351,25.187801 95.1863351,24.715401 95.4903351,25.212601 C95.6701351,25.507001 95.8105351,25.827201 95.9513351,26.141401 C96.3511351,27.033601 96.6923351,27.952801 97.0571351,28.859401 C97.5769351,30.150801 98.1171351,32.117001 99.3103351,32.972001 C99.7985351,33.322001 100.324535,33.184401 100.667735,32.702001 C101.167135,32.000201 101.061135,31.067601 100.936735,30.266601 C100.552735,27.793601 99.2915351,25.321201 98.0713351,23.164801 C97.8819351,23.411401 97.6923351,23.658001 97.5027351,23.904601 C99.0817351,24.455001 100.217135,26.570601 101.193935,27.815201 C101.702535,28.463801 103.159335,30.426601 104.001335,29.123401 C104.819135,27.858001 103.652935,26.137401 102.999135,25.068801 C102.498535,24.250801 101.955735,23.459801 101.462535,22.636801 C101.246335,22.276001 101.040135,21.903401 100.881735,21.513001 C101.106735,22.067801 100.410935,21.737001 100.672535,21.862001 C100.813135,21.929201 100.942935,22.028401 101.064135,22.125001 C102.018335,22.884201 102.745335,23.950201 103.793935,24.589401 C104.732535,25.161401 105.129335,24.107401 105.227135,23.540001 C105.442135,22.290601 104.535335,20.853001 103.972735,19.811801 C102.990935,17.994201 101.855135,16.261001 100.791935,14.490601 C100.102735,13.343401 99.4033351,12.175801 98.8943351,10.934801 C98.6513351,10.342401 97.6765351,10.601601 97.9231351,11.202601 C99.3863351,14.768601 101.884535,17.811401 103.589135,21.256801 C103.869335,21.822801 104.171935,22.454201 104.241735,23.090601 C104.260935,23.265801 104.251135,23.408001 104.148135,23.550801 C103.773935,24.069801 104.383135,23.762001 104.302335,23.719801 C103.245935,23.168001 102.521535,21.964801 101.568935,21.250201 C100.756735,20.640801 99.4515351,20.774001 100.027535,22.064601 C100.802535,23.799401 102.070535,25.264201 102.908135,26.968401 C103.078935,27.316001 103.226135,27.701801 103.264335,28.090201 C103.278135,28.230401 103.263535,28.375401 103.203335,28.504001 C103.077935,28.772801 103.373135,28.575201 103.244535,28.507801 C102.561335,28.149401 102.028735,27.266801 101.573135,26.675201 C100.590135,25.399201 99.5611351,23.708801 98.0315351,23.033201 C97.9465351,22.994401 97.8597351,22.961201 97.7703351,22.933401 C97.3371351,22.782401 96.9961351,23.309801 97.2019351,23.673201 C98.3729351,25.743001 99.4405351,27.984401 99.9273351,30.324401 C100.019535,30.768001 100.076935,31.251201 100.006935,31.703001 C99.9851351,31.844801 99.9385351,31.968001 99.8699351,32.092601 C99.7701351,32.274201 100.029935,32.235001 99.8853351,32.150201 C99.3959351,31.863601 99.0911351,31.000601 98.8603351,30.522201 C98.0929351,28.931601 97.5303351,27.249401 96.8207351,25.633001 C96.5951351,25.119201 95.7743351,23.258401 94.9645351,24.220001 C94.8535351,24.351601 94.7709351,24.534201 94.8351351,24.710001 C95.5553351,26.684601 95.9795351,28.814801 96.0619351,30.915001 C96.0841351,31.479401 96.1727351,32.462801 95.7739351,32.932201 C95.7281351,32.986001 95.4319351,33.041001 95.3521351,33.093601 C95.6167351,32.919601 95.6837351,33.279601 95.4847351,32.861201 C94.9743351,31.787401 94.8949351,30.396401 94.7005351,29.239401 C94.4881351,27.975801 94.3275351,26.656801 93.8841351,25.448201 C93.6599351,24.837601 92.9659351,23.903401 92.2633351,24.606001 C91.9505351,24.919001 91.9417351,25.686201 91.8699351,26.092601 C91.7337351,26.863401 91.6009351,27.634801 91.4083351,28.394201 C91.3333351,28.690401 91.2453351,28.988401 91.1161351,29.265601 C91.0745351,29.354601 91.0251351,29.440001 90.9593351,29.512801 C91.0383351,29.425001 91.1949351,29.595601 91.0141351,29.409801 C90.6101351,28.994401 90.9325351,28.212001 91.0177351,27.708401 C91.1365351,27.004601 91.2829351,26.305601 91.4099351,25.603201 C91.8443351,23.200801 91.6923351,21.017201 90.3513351,18.919601 C90.0025351,18.374401 89.1307351,18.879001 89.4817351,19.428001" id="Fill-22" fill="#E31363"></path>
                    <path d="M53.9653437,10.8495 C53.9653437,18.8299 53.9751437,26.8279 53.1933437,34.7783 C53.4169437,34.5545 53.6407437,34.3307 53.8647437,34.1069 C52.1391437,34.1289 50.3473437,34.5019 48.6399437,34.1309 C47.7957437,33.9475 47.4369437,35.2419 48.2829437,35.4257 C50.1277437,35.8265 52.0027437,35.4735 53.8647437,35.4497 C54.2579437,35.4447 54.4999437,35.1461 54.5361437,34.7783 C55.3179437,26.8279 55.3081437,18.8299 55.3081437,10.8495 C55.3081437,9.9835 53.9653437,9.9835 53.9653437,10.8495" id="Fill-26" fill="#E31363"></path>
                    <path d="M85.8068624,26.2882052 C84.5840624,27.3670052 83.9342624,28.9810052 83.5962624,30.5424052 C83.3248624,31.7968052 83.2042624,33.4582052 84.1270624,34.4850052 C84.4168624,34.8078052 84.8900624,34.3314052 84.6016624,34.0102052 C83.8012624,33.1194052 84.0678624,31.5344052 84.2954624,30.4820052 C84.5918624,29.1130052 85.2166624,27.7024052 86.2814624,26.7630052 C86.6068624,26.4760052 86.1300624,26.0030052 85.8068624,26.2882052" id="Fill-28" fill="#E31363"></path>
                    <path d="M82.9857954,21.4374226 C77.1397954,23.3700226 75.7783954,30.4110226 77.4827954,35.6928226 C77.7477954,36.5132226 79.0443954,36.1622226 78.7777954,35.3358226 C77.3159954,30.8062226 78.2037954,24.4310226 83.3427954,22.7324226 C84.1609954,22.4618226 83.8103954,21.1648226 82.9857954,21.4374226" id="Fill-30" fill="#E31363"></path>
                    <g id="Group-36" transform="translate(103.800000, 20.400000)">
                        <mask id="mask-4" fill="white">
                            <use xlink:href="#path-3"></use>
                        </mask>
                        <g id="Clip-35"></g>
                        <path d="M0.97314,23.58536 C9.96734,20.47256 12.45214,7.28756 6.64014,0.30356 C6.08554,-0.36284 5.14094,0.59256 5.69054,1.25316 C10.83974,7.44056 8.60334,19.52616 0.61614,22.29036 C-0.19706,22.57196 0.15234,23.86936 0.97314,23.58536" id="Fill-34" fill="#E31363" mask="url(#mask-4)"></path>
                    </g>
                </g>
            </g>
        </g>
    </g>
</svg>