<svg xmlns="http://www.w3.org/2000/svg" xmlns:xlink="http://www.w3.org/1999/xlink" width="264" height="43" viewBox="0 0 264 43">
  <defs>
    <polygon id="logo-escuela-creativa-a" points="0 .014 39.972 .014 39.972 42.942 0 42.942"/>
    <polygon id="logo-escuela-creativa-c" points=".11 .055 6.982 .055 6.982 16.876 .11 16.876"/>
  </defs>
  <g fill="none" fill-rule="evenodd">
    <mask id="logo-escuela-creativa-b" fill="#fff">
      <use xlink:href="#logo-escuela-creativa-a"/>
    </mask>
    <path fill="#E20A62" d="M23.7151047,10.0385558 C29.0615307,10.0385558 30.2140217,14.1622983 30.4610975,17.556602 L14.2558989,17.556602 C15.4889675,14.6466515 17.8743827,10.0385558 23.7151047,10.0385558 M30.9548159,30.3310079 C26.0186426,32.351866 22.8924332,32.4323314 21.0005921,32.4323314 C16.6413141,32.4323314 13.4319278,29.5223809 12.6918556,25.3993479 L31.6781372,25.3993479 C31.643769,24.1401432 31.7278123,22.8431894 31.9413863,21.5185624 C32.8639856,15.8082191 35.83987,10.7354964 39.9721444,6.95433465 C37.2817473,2.73621914 32.6062238,0.0144468647 25.6069458,0.0144468647 C13.5971264,0.0144468647 2.2453574,9.31124554 0.270194946,21.5185624 C-1.62092419,33.3221333 6.60391336,42.9422125 19.0268736,42.9422125 C25.0320722,42.9422125 32.0743827,40.9741465 36.5282455,37.3519287 C34.5302671,35.2611069 33.0749603,32.6779848 32.3026859,29.7752719 C31.9447076,29.9059749 31.5107726,30.1066416 30.9548159,30.3310079" mask="url(#logo-escuela-creativa-b)"/>
    <path fill="#394394" d="M54.6583479,11.0140501 C56.6217994,11.0140501 59.6484699,11.1739727 61.7749081,13.5236272 C62.8381272,14.6567325 63.5753728,14.3329069 64.9658577,13.0370359 L69.7931366,8.58251512 C71.0204912,7.36866673 71.3464647,6.96338722 70.6105114,6.07293795 C67.0922959,2.02426526 62.1034663,0 56.4575202,0 C50.1010382,0 43.9273598,2.63851036 39.247846,6.95144633 C41.9519895,11.2190353 42.6385441,17.015627 41.6514334,23.0780456 C41.4070251,24.8603656 40.9969017,25.4277001 39.2785765,25.4277001 L31,25.4277001 C31.0407826,26.9501636 31.2524499,28.4171873 31.6210727,29.8108599 C32.4204975,29.5160336 32.8472785,29.5761645 33.4710797,30.5294456 L36.0067797,34.4968065 C36.8248725,35.7119343 36.9898696,36.3597276 36.0067797,37.2496083 C35.947329,37.30121 35.8845755,37.3501107 35.8231145,37.4004331 C39.1203286,40.8765116 43.8980653,43 49.5038032,43 C55.1486005,43 60.794403,40.9757347 65.6189534,36.9257827 C66.6849009,36.035902 66.5193294,35.6311911 65.6189534,34.4160633 L62.2651606,29.9628219 C61.203234,28.6670931 60.6302674,28.3425568 59.2397825,29.4762306 C56.2932411,31.8246058 53.267863,31.9872293 51.3057039,31.9872293 C46.232868,31.9872293 42.6332309,27.6953321 43.6148848,21.5402294 C44.5966823,15.3859797 49.5868043,11.0140501 54.6583479,11.0140501"/>
    <path fill="#E31363" d="M23,16 C25.6666667,16 25.6666667,12 23,12 C20.3333333,12 20.3333333,16 23,16"/>
    <path fill="#F8F7F6" d="M23.5,15 C24.1666667,15 24.1666667,14 23.5,14 C22.8333333,14 22.8333333,15 23.5,15"/>
    <path fill="#FFF" d="M13.9132197 12.3318438C13.3185449 11.5259897 12.5888039 10.8238661 11.8457922 10.1352371 11.394441 9.71704351 10.6944853 10.3642349 11.1456891 10.7824284 11.827803 11.4146259 12.5122762 12.0536388 13.0582918 12.7937923 13.415716 13.2780954 14.2740353 12.8207814 13.9132197 12.3318438M16.9840991 9.44106231C16.7082641 8.31372146 16.2346328 7.26871525 15.7590383 6.22907286 15.5214864 5.7095869 14.8109168 6.16577979 15.0476097 6.6835225 15.4922833 7.65558076 15.9316806 8.62629807 16.189601 9.68042277 16.3267823 10.2408079 17.1215258 10.0026543 16.9840991 9.44106231M22 8.49645796L22 5.50342575C22 4.83219142 21 4.83219142 21 5.50342575L21 8.49645796C21 9.16784735 22 9.16784735 22 8.49645796M24.9150123 8.64047146C25.2255623 7.62057388 25.661648 6.657173 25.972335 5.63727542 26.1669427 4.9986916 25.2777775 4.72679155 25.0850884 5.35946111 24.7744014 6.37920305 24.3383157 7.34275957 24.0276286 8.36265715 23.833158 9.00124097 24.7223233 9.27329666 24.9150123 8.64047146M28.8159353 9.92147701C29.9611024 9.29236332 31.1024501 8.59675574 31.8997162 7.66272003 32.3122154 7.17948581 31.3450674 6.72474898 30.9368857 7.20282653 30.2553652 8.0012961 29.2299292 8.59824846 28.2531495 9.13467779 27.6599742 9.46063359 28.2174461 10.2502825 28.8159353 9.92147701M30.7519812 11.9507855C31.5151752 11.6268595 32.2360928 11.1985205 32.8502844 10.7020059 33.3097086 10.330664 32.6072685 9.74791658 32.1484356 10.118767 31.5914503 10.5690942 30.9429645 10.9449811 30.2510196 11.2385659 29.6808784 11.4805584 30.1831703 12.192041 30.7519812 11.9507855"/>
    <path fill="#E31363" d="M64.0566908 13.3953425C65.1690736 15.2125236 64.8418369 16.9755168 64.4869953 18.9739524 64.3668652 19.6501432 64.1166172 20.3910987 64.5119646 20.991803 64.6942406 21.2685385 64.997479 21.5042707 65.3310967 21.3792326 66.0549293 21.1081478 66.1629909 19.6983908 66.2785433 19.0523367 66.359 18.6026053 66.4229492 18.1492518 66.5178325 17.7024182 66.5884402 17.3707704 66.4685875 17.8412206 66.2950508 17.6838726 66.3828595 17.763416 66.4243363 17.9161276 66.4630388 18.0259524 67.0711802 19.7563458 66.891956 21.734787 67.5910967 23.4320011 67.6851478 23.6601992 67.8172077 23.8837609 68.0515031 23.9721424 68.1531837 24.0105376 68.2605517 24.0060461 68.3641743 23.9780828 68.4145291 23.9643184 68.4705713 23.9322983 68.5149612 23.9018719 68.7051441 23.7711832 68.2609679 23.9620002 68.5970825 23.8940479 69.4741989 23.7169952 69.3370064 22.0028292 69.3039914 21.3827099 69.2257543 19.9126796 68.9261225 18.4099047 68.4432438 17.0278213 68.4132806 17.1461945 68.3833175 17.2644228 68.353493 17.382796 68.2040933 17.5679625 68.0133555 17.2257378 68.2242075 17.5859286 68.3489153 17.7992032 68.4462956 18.0311684 68.5439534 18.2587869 68.8212514 18.9051308 69.057905 19.5710345 69.3109274 20.2278103 69.6714565 21.16335 70.0461348 22.5877407 70.8737288 23.2071355 71.2123403 23.4606889 71.5771697 23.3610062 71.8152105 23.0115371 72.1615903 22.5031263 72.0880696 21.8275151 72.0017867 21.24724 71.7354474 19.4557039 70.8606892 17.6646026 70.0143683 16.1024237 69.883002 16.2810702 69.751497 16.4597167 69.6199919 16.6383632 70.7151736 17.0370941 71.5026779 18.5697158 72.1801786 19.4713518 72.5329394 19.9412225 73.5433642 21.3631501 74.1273686 20.4190621 74.6945881 19.5023578 73.8857212 18.2558891 73.4322508 17.4817543 73.0850386 16.8891638 72.7085569 16.316133 72.3664774 15.7199203 72.2165228 15.4585429 72.0735041 15.1886172 71.9636392 14.9057964 72.1196973 15.3077148 71.6370961 15.0680706 71.8185397 15.1586254 71.9160588 15.2073077 72.006087 15.279172 72.0901503 15.3491527 72.7519758 15.8991463 73.2562171 16.6713976 73.9835177 17.1344586 74.6345231 17.5488373 74.9097404 16.7852793 74.9775737 16.374233 75.1266959 15.4691197 74.4977467 14.4276671 74.1075319 13.6733819 73.4265633 12.3566428 72.6387816 11.1010462 71.9013546 9.81850058 71.423331 8.98742491 70.9382328 8.14157069 70.5851945 7.2425427 70.4166517 6.81338542 69.7405382 7.00115984 69.911578 7.43654729 70.9264417 10.0198944 72.6591732 12.2242154 73.84147 14.7201953 74.0358145 15.1302274 74.2456954 15.5876378 74.2941081 16.0486704 74.3074251 16.175592 74.3006279 16.2786071 74.2291879 16.3820569 73.9696458 16.7580404 74.392182 16.5350583 74.3361398 16.504487 73.6034293 16.1047419 73.1009913 15.2330977 72.4402756 14.715414 71.8769402 14.2739413 70.9716639 14.3704365 71.3711729 15.3053966 71.9087067 16.5621523 72.7881813 17.6233096 73.3691339 18.8578974 73.4875994 19.1097122 73.5896961 19.3892005 73.6161914 19.6705723 73.6257629 19.7721386 73.6156365 19.8771822 73.5738822 19.9703449 73.4869058 20.165074 73.6916542 20.0219249 73.6024582 19.9730978 73.1285962 19.7134591 72.7591891 19.0740698 72.4431886 18.6454921 71.7613877 17.7211088 71.0476816 16.4965182 69.9867634 16.0070876 69.927808 15.9789794 69.8676043 15.9549281 69.8055971 15.9347887 69.5051331 15.8253985 69.2686182 16.2074673 69.4113595 16.4707282 70.2235557 17.9701707 70.9640344 19.5939268 71.301675 21.2891125 71.3656242 21.6104734 71.4054364 21.960522 71.3568849 22.2878232 71.3417646 22.3905486 71.3094432 22.4797994 71.2618628 22.5700644 71.1926423 22.7016224 71.3728375 22.6732244 71.2725441 22.611792 70.9331002 22.404168 70.7216934 21.7789777 70.5616124 21.4324064 70.0293499 20.2801148 69.6391351 19.0614646 69.1469622 17.8904824 68.9904879 17.518266 68.4211876 16.1702311 67.8595168 16.8668511 67.7825281 16.9621871 67.7252374 17.0944696 67.769766 17.2218258 68.269291 18.6523018 68.5635127 20.1955004 68.6206646 21.7169658 68.6360624 22.1258388 68.6975146 22.8382515 68.4209102 23.1783028 68.3891436 23.2172776 68.1837017 23.2571217 68.1283531 23.2952272 68.3118775 23.1691749 68.3583482 23.4299727 68.2203234 23.1268677 67.866314 22.3489658 67.8112428 21.3412721 67.6764085 20.5030969 67.5290896 19.5876966 67.4176987 18.6321624 67.1101601 17.7566062 66.9546568 17.3142642 66.4733039 16.6374939 65.9859862 17.1464843 65.7690307 17.3732335 65.7629271 17.9290226 65.7131272 18.2234343 65.6186599 18.7818314 65.5265509 19.3406631 65.3929651 19.8908016 65.3409457 20.1053802 65.2799096 20.3212629 65.1902975 20.5220772 65.1614441 20.5865522 65.1271807 20.6484192 65.0815423 20.7011583 65.1363361 20.6375527 65.2449526 20.7611418 65.1195512 20.6265412 64.83934 20.3256095 65.0629541 19.7588089 65.1220481 19.3939818 65.2044468 18.8841221 65.3059887 18.3777397 65.3940749 17.8688942 65.6953712 16.1285035 65.5899452 14.5466199 64.6598384 13.027038 64.4179135 12.6320742 63.8132401 12.9976258 64.0566908 13.3953425M62.611882 30.1361002C63.8165266 29.0208162 64.3237601 27.4501427 64.9769177 25.96846 65.1316646 25.6171347 65.2408976 25.1804419 65.6246138 25.0610145 65.7514922 25.0214469 65.5950648 24.9381086 65.6017869 25.0036198 65.6103294 25.0868132 65.5960451 25.1714559 65.5820409 25.2527651 65.4950746 25.7552589 65.2763284 26.2448533 65.0812493 26.7096637 64.8634834 27.2286802 64.1592103 28.2254064 64.5833986 28.7564526 64.9666947 29.2364812 65.6720881 28.6405036 65.9792011 28.3815026 66.6578465 27.8091496 67.247565 27.1166445 67.8510076 26.463562 68.3886303 25.8817882 68.9380166 25.1820362 69.616662 24.7699826 69.7174925 24.7086746 69.7464813 24.7618662 69.6245043 24.7015728 69.3977757 24.5893921 69.656294 24.762301 69.7334573 24.8821633 69.9040289 25.1479762 69.2746785 25.9713587 69.1459795 26.1633992 68.3170686 27.4005745 67.1831455 28.5249895 66.0063693 29.4031578 65.9114206 29.4741766 65.8182924 29.5853426 65.8317365 29.7182491 65.9271053 30.6551167 66.9952086 29.9952222 67.406233 29.7376706 68.4594917 29.0774862 69.4403486 28.3009181 70.4951478 27.6423281 70.8834854 27.3998498 71.2942297 27.1451969 71.7409649 27.0404081 71.9006132 27.0028696 71.7915202 27.0163487 71.7604308 27.1754886 71.6943308 27.5149292 71.4150863 27.8123382 71.1967602 28.0549614 70.0400101 29.3399657 68.3994136 30.2684269 66.8933978 31.040502 66.6140132 31.1836989 66.6962181 31.6301024 66.9777033 31.7074983 68.7848102 32.2050643 70.4972485 30.6536673 72.2588416 30.5826486 72.4936927 30.5732277 72.3112175 30.4707578 72.2970732 30.5746771 72.273266 30.7517891 72.1365846 30.8858551 72.0196492 31.0033983 71.6846678 31.340375 71.212585 31.5544457 70.7970792 31.7604 69.8702787 32.2197028 68.88312 32.5540706 67.9937108 33.0922187 67.4938995 33.3945556 67.3275292 33.972851 67.9750851 34.2143147 68.5404362 34.4250519 69.3582838 34.1434409 69.9190135 34.0345938 70.2285071 33.9745902 70.5381408 33.9122677 70.852536 33.8879184 71.2198672 33.859366 70.9479049 33.9795181 70.9990203 33.666311 70.9801146 33.7824048 70.9141546 33.9135721 70.8899273 34.0385071 70.7924578 34.5414357 69.8698586 34.9568228 69.4935647 35.1775606 68.7587623 35.6087458 67.9837678 35.9696369 67.2164755 36.3331369 66.8033505 36.5286558 67.1619991 37.1575339 67.5723232 36.9631745 68.8116983 36.3763278 70.2657584 35.810497 71.2418538 34.7862329 71.486788 34.529261 71.9405253 33.6671806 71.5600301 33.3461469 71.1331809 32.9862703 70.4452927 33.1974424 69.9580853 33.2875927 69.5813713 33.357307 69.2063378 33.4361523 68.8278032 33.4945616 68.6688551 33.5192007 68.5080865 33.5297811 68.3475979 33.5318102 68.1268911 33.534564 68.2333233 33.4615161 68.2315027 33.6110903 68.1733852 33.7160241 68.1151275 33.8211028 68.0568699 33.9260366 69.0181208 33.1999063 70.2285071 32.8487259 71.2939496 32.3207234 71.9978026 31.9720069 73.1087588 31.3724059 72.9914033 30.3964056 72.8734876 29.4153325 71.3625704 30.0013095 70.8334902 30.1721893 69.7627262 30.5178621 68.3086661 31.3186345 67.16508 31.0036882 67.1932285 31.2261652 67.221237 31.4483524 67.2492455 31.6706845 68.7929327 30.8794779 70.3474031 29.9281167 71.5905594 28.6813756 72.0525592 28.2180146 73.2053881 26.3971813 71.8311522 26.3039873 71.4269899 26.2765943 70.9875369 26.5335662 70.6431726 26.7174902 70.0453317 27.0369296 69.4839018 27.4321706 68.9258329 27.8190053 68.3922714 28.1885926 67.8651519 28.5681805 67.3257086 28.9284918 67.1040215 29.0764717 66.8788334 29.2186541 66.646503 29.3479372 66.5698999 29.3902585 66.4921763 29.4293913 66.4108117 29.4606975 66.1651774 29.555051 66.4987583 29.3431543 66.5368499 29.7182491 66.4787323 29.8233279 66.4204746 29.9282617 66.362217 30.0333404 67.5466955 29.1493746 68.6126981 28.0714841 69.5065886 26.8773549 69.8926855 26.3616719 70.8958091 25.0617392 70.251054 24.3838726 70.0031789 24.1231324 70.350344 24.5831599 70.155265 24.2492269 70.0946266 24.1453077 69.9825927 24.0508093 69.8673378 24.0203727 69.6076992 23.9518178 69.3666863 24.0667522 69.1511611 24.2090796 68.4347042 24.6824412 67.8486269 25.4106006 67.2664707 26.0403484 66.6410414 26.7172004 66.0268155 27.4689844 65.2880919 28.0184375 65.1970644 28.0861227 65.0990347 28.1540978 64.9916222 28.1897521 65.1746576 28.1290238 65.0567419 28.619198 65.1784387 28.2842505 65.3585332 27.7884237 65.5942246 27.3123084 65.7953254 26.8253228 66.0315769 26.2535495 66.6620477 25.0362304 66.0958564 24.4782261 65.8397189 24.2258922 65.4412983 24.3287969 65.1582726 24.4638774 64.4628222 24.7959262 64.2017832 25.975272 63.9155365 26.6629942 63.4605388 27.7556682 62.9848148 28.8129777 62.113191 29.6199824 61.7737283 29.934349 62.2740997 30.4488725 62.611882 30.1361002M38.1057693 7.45998547C38.1057693 13.1118224 38.1122956 18.7761238 37.5916611 24.4067143 37.740566 24.2482158 37.8896042 24.0897173 38.0387755 23.9312189 36.8896237 23.9467996 35.6963865 24.2109637 34.5593549 23.948216 33.9971656 23.8183295 33.7582251 24.7350426 34.3216131 24.8652125 35.5501453 25.1490649 36.798789 24.8990651 38.0387755 24.8822096 38.3006244 24.8786686 38.4617826 24.6671956 38.4858898 24.4067143 39.0065243 18.7761238 38.999998 13.1118224 38.999998 7.45998547 38.999998 6.84667151 38.1057693 6.84667151 38.1057693 7.45998547M61.6097417 19.0630596C60.7919167 19.8343143 60.3573218 20.9881938 60.1312629 22.1044685 59.949747 23.001263 59.8690881 24.1890296 60.486269 24.9231086 60.6800911 25.1538845 60.9965736 24.813297 60.8036879 24.583665 60.2683696 23.946815 60.4466753 22.8136682 60.5988972 22.0612873 60.7971335 21.0825631 61.2150081 20.0740982 61.9271605 19.4025032 62.1447924 19.1973214 61.8259022 18.8591646 61.6097417 19.0630596M59.4133149 15.0253547C55.2424303 16.3347399 54.2711264 21.1051948 55.4871469 24.6837474 55.6762137 25.2395891 56.6012854 25.0017778 56.411077 24.4418709 55.3681419 21.3729528 56.0015513 17.0535942 59.6680199 15.9027499 60.2517726 15.7194115 60.0016336 14.8406614 59.4133149 15.0253547M74.2917514 25.9563089C75.5775116 24.8756643 75.9832068 23.0121761 75.9999859 21.230048 76.0027425 20.9231756 75.6005229 20.9234591 75.5976465 21.230048 75.5826652 22.825076 75.2497194 24.5696423 74.0886042 25.5455392 73.8791049 25.7215834 74.0796154 26.1344792 74.2917514 25.9563089"/>
    <g transform="translate(74 15)">
      <mask id="logo-escuela-creativa-d" fill="#fff">
        <use xlink:href="#logo-escuela-creativa-c"/>
      </mask>
      <path fill="#E31363" d="M0.6951,16.8466857 C7.11952857,14.6232571 8.89438571,5.2054 4.74295714,0.216828571 C4.34681429,-0.259171429 3.6721,0.423257143 4.06467143,0.895114286 C7.74267143,5.31468571 6.14524286,13.9472571 0.4401,15.9216857 C-0.140757143,16.1228286 0.108814286,17.0495429 0.6951,16.8466857" mask="url(#logo-escuela-creativa-d)"/>
    </g>
    <path fill="#394394" fill-rule="nonzero" d="M102.190233,25.5958622 L102.698294,26.1922819 C102.875011,26.4131781 102.897101,26.5457158 102.720384,26.7224328 C101.682172,27.7385553 99.8708228,28.2687061 98.2582806,28.2687061 C94.922748,28.2687061 92.3382625,25.6400414 92.3382625,22.4149569 C92.3382625,19.1898725 94.922748,16.5391181 98.1478325,16.5391181 C101.637992,16.5391181 103.603969,19.3665894 103.603969,22.6800324 C103.603969,22.9671974 103.559789,23.0776455 103.250535,23.0776455 L94.3484179,23.0776455 C94.5251348,24.9773528 96.2481252,26.5898951 98.3245494,26.5898951 C99.2964927,26.5898951 100.555601,26.30273 101.637992,25.5737725 C101.903068,25.4191452 102.013516,25.374966 102.190233,25.5958622 Z M110.120406,26.7224328 C112.108472,26.7224328 112.947878,25.8830272 112.947878,24.8448151 C112.947878,23.9612303 111.887576,23.4973483 109.987869,23.2322729 C107.756817,22.9451078 105.702482,22.3707777 105.702482,20.029278 C105.702482,17.9086745 107.381293,16.5391181 110.009958,16.5391181 C111.158618,16.5391181 112.682802,16.8262832 114.251165,17.7761368 C114.53833,17.9528538 114.472061,18.1074811 114.361613,18.3283773 L114.008179,18.9689763 C113.875642,19.2119621 113.765194,19.3224102 113.478028,19.1456932 C112.373547,18.460915 111.534142,18.0853915 110.120406,18.0853915 C108.353237,18.0853915 107.535921,18.8143489 107.535921,19.9409195 C107.535921,21.0233109 108.596223,21.2442071 110.49593,21.5313722 C112.726981,21.8185372 114.803406,22.5474947 114.803406,24.7564566 C114.803406,26.8107912 113.080415,28.2687061 110.230854,28.2687061 C109.060105,28.2687061 107.292935,27.9373618 105.680393,26.8549705 C105.437407,26.7003431 105.459497,26.5678054 105.592034,26.3248196 L105.967558,25.662131 C106.100096,25.4191452 106.188454,25.2866075 106.497709,25.5075037 C107.403383,26.1701923 108.684581,26.7224328 110.120406,26.7224328 Z M122.578952,26.5236262 C123.683433,26.5236262 124.743734,26.1039234 125.472692,25.374966 C125.693588,25.1761594 125.826126,25.2424283 126.024932,25.4412348 L126.643442,26.126013 C126.820159,26.3469092 126.842248,26.4352677 126.665531,26.6119847 C125.538961,27.7385553 124.103136,28.2687061 122.578952,28.2687061 C119.353867,28.2687061 116.769382,25.6400414 116.769382,22.4149569 C116.769382,19.1898725 119.353867,16.5391181 122.578952,16.5391181 C124.103136,16.5391181 125.538961,17.0913586 126.665531,18.1958396 C126.842248,18.3725566 126.820159,18.4830046 126.643442,18.7039008 L126.024932,19.3665894 C125.826126,19.5874856 125.693588,19.6316649 125.472692,19.4328583 C124.743734,18.7039008 123.683433,18.3062877 122.578952,18.3062877 C120.436259,18.3062877 118.691179,20.1176365 118.691179,22.4149569 C118.691179,24.734367 120.436259,26.5236262 122.578952,26.5236262 Z M137.445266,27.6501968 L137.22437,25.8609376 C136.694219,26.7445224 135.589738,28.2687061 133.513313,28.2687061 C131.149724,28.2687061 129.183748,26.8770601 129.183748,23.2543625 L129.183748,17.1797171 C129.183748,16.892552 129.272107,16.7821039 129.559272,16.7821039 L130.752111,16.7821039 C131.017186,16.7821039 131.127635,16.8704624 131.127635,17.1797171 L131.127635,22.7904805 C131.127635,25.3086971 132.298384,26.5236262 133.999285,26.5236262 C135.832724,26.5236262 136.937205,24.8227255 136.937205,22.6579428 L136.937205,17.1797171 C136.937205,16.892552 137.025563,16.7821039 137.312728,16.7821039 L138.505568,16.7821039 C138.770643,16.7821039 138.881091,16.8704624 138.881091,17.1797171 L138.881091,27.6501968 C138.881091,27.9373618 138.770643,28.0257203 138.505568,28.0257203 L137.864969,28.0257203 C137.644072,28.0257203 137.555714,27.9152722 137.445266,27.6501968 Z M151.847698,25.5958622 L152.355759,26.1922819 C152.532476,26.4131781 152.554566,26.5457158 152.377849,26.7224328 C151.339637,27.7385553 149.528288,28.2687061 147.915745,28.2687061 C144.580213,28.2687061 141.995727,25.6400414 141.995727,22.4149569 C141.995727,19.1898725 144.580213,16.5391181 147.805297,16.5391181 C151.295457,16.5391181 153.261433,19.3665894 153.261433,22.6800324 C153.261433,22.9671974 153.217254,23.0776455 152.908,23.0776455 L144.005883,23.0776455 C144.1826,24.9773528 145.90559,26.5898951 147.982014,26.5898951 C148.953958,26.5898951 150.213066,26.30273 151.295457,25.5737725 C151.560533,25.4191452 151.670981,25.374966 151.847698,25.5958622 Z M156.331891,27.6501968 L156.331891,12.1211942 C156.331891,11.8119395 156.420249,11.723581 156.729504,11.723581 L157.900254,11.723581 C158.209508,11.723581 158.275777,11.8340291 158.275777,12.1211942 L158.275777,27.6501968 C158.275777,27.9373618 158.187419,28.0257203 157.900254,28.0257203 L156.729504,28.0257203 C156.420249,28.0257203 156.331891,27.9373618 156.331891,27.6501968 Z M163.268031,18.5934527 C162.958776,18.637632 162.892508,18.5271839 162.804149,18.2179292 L162.605343,17.4447925 C162.539074,17.1576275 162.583253,17.0250898 162.870418,16.9588209 C163.135493,16.892552 165.013111,16.5391181 166.691922,16.5391181 C170.579695,16.5391181 171.507459,18.2621085 171.507459,21.8627165 L171.507459,27.6501968 C171.507459,27.9373618 171.419101,28.0257203 171.131936,28.0257203 L170.402978,28.0257203 C170.182082,28.0257203 170.093724,27.9373618 170.005365,27.6501968 L169.894917,26.30273 C169.298497,27.0537771 167.906851,28.2687061 165.565352,28.2687061 C163.488927,28.2687061 161.655489,27.0095978 161.655489,24.6018293 C161.655489,22.1940607 163.488927,21.0233109 166.095502,21.0233109 C167.177894,21.0233109 168.481181,21.310476 169.563573,21.7301787 C169.563573,19.1898725 168.856705,18.2400188 166.625653,18.2400188 C165.256097,18.2400188 164.107437,18.4167358 163.268031,18.5934527 Z M185.446009,26.5236262 C186.55049,26.5236262 187.610792,26.1039234 188.339749,25.374966 C188.560646,25.1761594 188.693183,25.2424283 188.89199,25.4412348 L189.510499,26.126013 C189.687216,26.3469092 189.709306,26.4352677 189.532589,26.6119847 C188.406018,27.7385553 186.970193,28.2687061 185.446009,28.2687061 C182.220925,28.2687061 179.636439,25.6400414 179.636439,22.4149569 C179.636439,19.1898725 182.220925,16.5391181 185.446009,16.5391181 C186.970193,16.5391181 188.406018,17.0913586 189.532589,18.1958396 C189.709306,18.3725566 189.687216,18.4830046 189.510499,18.7039008 L188.89199,19.3665894 C188.693183,19.5874856 188.560646,19.6316649 188.339749,19.4328583 C187.610792,18.7039008 186.55049,18.3062877 185.446009,18.3062877 C183.303316,18.3062877 181.558236,20.1176365 181.558236,22.4149569 C181.558236,24.734367 183.303316,26.5236262 185.446009,26.5236262 Z M198.589333,18.460915 C195.82813,18.460915 194.546932,20.3606223 194.546932,22.3265985 L194.546932,27.6501968 C194.546932,27.9373618 194.458574,28.0257203 194.171409,28.0257203 L192.97857,28.0257203 C192.691404,28.0257203 192.603046,27.9373618 192.603046,27.6501968 L192.603046,17.1797171 C192.603046,16.8704624 192.691404,16.7821039 192.97857,16.7821039 L193.597079,16.7821039 C193.817975,16.7821039 193.906334,16.892552 194.038871,17.1797171 L194.370216,19.2340517 C194.878277,18.2400188 195.85022,16.5391181 198.854408,16.5391181 C199.207842,16.5391181 199.252021,16.6495662 199.207842,16.892552 L199.031125,18.1074811 C198.964856,18.3946462 198.876498,18.460915 198.589333,18.460915 Z M209.965487,25.5958622 L210.473548,26.1922819 C210.650265,26.4131781 210.672355,26.5457158 210.495638,26.7224328 C209.457426,27.7385553 207.646077,28.2687061 206.033535,28.2687061 C202.698002,28.2687061 200.113517,25.6400414 200.113517,22.4149569 C200.113517,19.1898725 202.698002,16.5391181 205.923087,16.5391181 C209.413247,16.5391181 211.379223,19.3665894 211.379223,22.6800324 C211.379223,22.9671974 211.335043,23.0776455 211.025789,23.0776455 L202.123672,23.0776455 C202.300389,24.9773528 204.023379,26.5898951 206.099804,26.5898951 C207.071747,26.5898951 208.330855,26.30273 209.413247,25.5737725 C209.678322,25.4191452 209.78877,25.374966 209.965487,25.5958622 Z M215.00192,18.5934527 C214.692666,18.637632 214.626397,18.5271839 214.538038,18.2179292 L214.339232,17.4447925 C214.272963,17.1576275 214.317142,17.0250898 214.604307,16.9588209 C214.869383,16.892552 216.747,16.5391181 218.425811,16.5391181 C222.313584,16.5391181 223.241348,18.2621085 223.241348,21.8627165 L223.241348,27.6501968 C223.241348,27.9373618 223.15299,28.0257203 222.865825,28.0257203 L222.136867,28.0257203 C221.915971,28.0257203 221.827613,27.9373618 221.739254,27.6501968 L221.628806,26.30273 C221.032386,27.0537771 219.64074,28.2687061 217.299241,28.2687061 C215.222816,28.2687061 213.389378,27.0095978 213.389378,24.6018293 C213.389378,22.1940607 215.222816,21.0233109 217.829392,21.0233109 C218.911783,21.0233109 220.215071,21.310476 221.297462,21.7301787 C221.297462,19.1898725 220.590594,18.2400188 218.359542,18.2400188 C216.989986,18.2400188 215.841326,18.4167358 215.00192,18.5934527 Z M233.358394,27.7385553 C232.474809,28.2687061 231.524956,28.2687061 231.237791,28.2687061 C228.321961,28.2687061 227.129121,26.4352677 227.129121,23.3648106 L227.129121,18.3725566 L226.135089,18.3725566 C225.847924,18.3725566 225.759565,18.2841981 225.759565,17.9749434 L225.759565,17.1797171 C225.759565,16.8704624 225.847924,16.7821039 226.135089,16.7821039 L227.129121,16.7821039 L227.129121,14.5510524 C227.129121,14.2638873 227.21748,14.1534392 227.526735,14.1534392 L228.675395,14.1534392 C228.984649,14.1534392 229.073008,14.2417977 229.073008,14.5510524 L229.073008,16.7821039 L232.850333,16.7821039 C233.137498,16.7821039 233.247946,16.8704624 233.247946,17.1797171 L233.247946,17.9749434 C233.247946,18.2841981 233.159588,18.3725566 232.850333,18.3725566 L229.073008,18.3725566 L229.073008,23.2322729 C229.073008,25.6179518 229.801965,26.5236262 231.436597,26.5236262 C232.010927,26.5236262 232.364361,26.479447 232.894512,26.2143715 C233.225856,26.0376546 233.292125,26.0597442 233.380484,26.4131781 L233.535111,27.2525836 C233.60138,27.5176591 233.57929,27.6060176 233.358394,27.7385553 Z M236.826464,27.6501968 L236.826464,17.1797171 C236.826464,16.8704624 236.914823,16.7821039 237.224078,16.7821039 L238.394827,16.7821039 C238.704082,16.7821039 238.770351,16.892552 238.770351,17.1797171 L238.770351,27.6501968 C238.770351,27.9373618 238.681993,28.0257203 238.394827,28.0257203 L237.224078,28.0257203 C236.914823,28.0257203 236.826464,27.9373618 236.826464,27.6501968 Z M236.49512,13.1594063 C236.49512,12.4525385 237.06945,11.8561188 237.776318,11.8561188 C238.483186,11.8561188 239.079606,12.4525385 239.079606,13.1594063 C239.079606,13.8662741 238.483186,14.4406043 237.776318,14.4406043 C237.06945,14.4406043 236.49512,13.8662741 236.49512,13.1594063 Z M246.634256,28.0478099 L241.399016,17.1797171 C241.310657,16.9809105 241.399016,16.7821039 241.619912,16.7821039 L242.945289,16.7821039 C243.210365,16.7821039 243.298723,16.8704624 243.45335,17.1797171 L246.9656,24.6460085 L246.987689,24.6680981 L250.477849,17.1797171 C250.632477,16.8704624 250.742925,16.7821039 250.985911,16.7821039 L252.289198,16.7821039 C252.554274,16.7821039 252.620542,17.0030001 252.532184,17.1797171 L247.319034,28.0478099 C247.186496,28.2687061 247.142317,28.4012439 247.009779,28.4012439 L246.94351,28.4012439 C246.810973,28.4012439 246.766793,28.2687061 246.634256,28.0478099 Z M255.138759,18.5934527 C254.829504,18.637632 254.763236,18.5271839 254.674877,18.2179292 L254.476071,17.4447925 C254.409802,17.1576275 254.453981,17.0250898 254.741146,16.9588209 C255.006221,16.892552 256.883839,16.5391181 258.56265,16.5391181 C262.450423,16.5391181 263.378187,18.2621085 263.378187,21.8627165 L263.378187,27.6501968 C263.378187,27.9373618 263.289829,28.0257203 263.002664,28.0257203 L262.273706,28.0257203 C262.05281,28.0257203 261.964452,27.9373618 261.876093,27.6501968 L261.765645,26.30273 C261.169225,27.0537771 259.777579,28.2687061 257.43608,28.2687061 C255.359655,28.2687061 253.526217,27.0095978 253.526217,24.6018293 C253.526217,22.1940607 255.359655,21.0233109 257.96623,21.0233109 C259.048622,21.0233109 260.351909,21.310476 261.434301,21.7301787 C261.434301,19.1898725 260.727433,18.2400188 258.496381,18.2400188 C257.126825,18.2400188 255.978165,18.4167358 255.138759,18.5934527 Z"/>
  </g>
</svg>
