<?xml version="1.0" encoding="UTF-8"?>
<svg width="264px" height="43px" viewBox="0 0 264 43" version="1.1" xmlns="http://www.w3.org/2000/svg" xmlns:xlink="http://www.w3.org/1999/xlink">
    <!-- Generator: Sketch 50.2 (55047) - http://www.bohemiancoding.com/sketch -->
    <title>logo-escuela creativa</title>
    <desc>Created with Sketch.</desc>
    <defs>
        <polygon id="path-1" points="1.9799066e-06 0.0144752475 39.9721444 0.0144752475 39.9721444 42.9422125 1.9799066e-06 42.9422125"></polygon>
        <polygon id="path-3" points="0.110055547 0.0553586904 6.98214286 0.0553586904 6.98214286 16.875527 0.110055547 16.875527"></polygon>
    </defs>
    <g id="Welcome" stroke="none" stroke-width="1" fill="none" fill-rule="evenodd">
        <g id="Desktop-HD" transform="translate(-447.000000, -19.000000)">
            <g id="Header">
                <g id="Group-10">
                    <g id="Group-6" transform="translate(447.000000, 19.000000)">
                        <g id="logo-escuela-creativa">
                            <g id="Group-2">
                                <g id="Group-3-Copy">
                                    <mask id="mask-2" fill="white">
                                        <use xlink:href="#path-1"></use>
                                    </mask>
                                    <g id="Clip-2"></g>
                                    <path d="M23.7151047,10.0385558 C29.0615307,10.0385558 30.2140217,14.1622983 30.4610975,17.556602 L14.2558989,17.556602 C15.4889675,14.6466515 17.8743827,10.0385558 23.7151047,10.0385558 M30.9548159,30.3310079 C26.0186426,32.351866 22.8924332,32.4323314 21.0005921,32.4323314 C16.6413141,32.4323314 13.4319278,29.5223809 12.6918556,25.3993479 L31.6781372,25.3993479 C31.643769,24.1401432 31.7278123,22.8431894 31.9413863,21.5185624 C32.8639856,15.8082191 35.83987,10.7354964 39.9721444,6.95433465 C37.2817473,2.73621914 32.6062238,0.0144468647 25.6069458,0.0144468647 C13.5971264,0.0144468647 2.2453574,9.31124554 0.270194946,21.5185624 C-1.62092419,33.3221333 6.60391336,42.9422125 19.0268736,42.9422125 C25.0320722,42.9422125 32.0743827,40.9741465 36.5282455,37.3519287 C34.5302671,35.2611069 33.0749603,32.6779848 32.3026859,29.7752719 C31.9447076,29.9059749 31.5107726,30.1066416 30.9548159,30.3310079" id="Fill-1" fill="#E20A62" mask="url(#mask-2)"></path>
                                </g>
                                <path d="M54.6583479,11.0140501 C56.6217994,11.0140501 59.6484699,11.1739727 61.7749081,13.5236272 C62.8381272,14.6567325 63.5753728,14.3329069 64.9658577,13.0370359 L69.7931366,8.58251512 C71.0204912,7.36866673 71.3464647,6.96338722 70.6105114,6.07293795 C67.0922959,2.02426526 62.1034663,0 56.4575202,0 C50.1010382,0 43.9273598,2.63851036 39.247846,6.95144633 C41.9519895,11.2190353 42.6385441,17.015627 41.6514334,23.0780456 C41.4070251,24.8603656 40.9969017,25.4277001 39.2785765,25.4277001 L31,25.4277001 C31.0407826,26.9501636 31.2524499,28.4171873 31.6210727,29.8108599 C32.4204975,29.5160336 32.8472785,29.5761645 33.4710797,30.5294456 L36.0067797,34.4968065 C36.8248725,35.7119343 36.9898696,36.3597276 36.0067797,37.2496083 C35.947329,37.30121 35.8845755,37.3501107 35.8231145,37.4004331 C39.1203286,40.8765116 43.8980653,43 49.5038032,43 C55.1486005,43 60.794403,40.9757347 65.6189534,36.9257827 C66.6849009,36.035902 66.5193294,35.6311911 65.6189534,34.4160633 L62.2651606,29.9628219 C61.203234,28.6670931 60.6302674,28.3425568 59.2397825,29.4762306 C56.2932411,31.8246058 53.267863,31.9872293 51.3057039,31.9872293 C46.232868,31.9872293 42.6332309,27.6953321 43.6148848,21.5402294 C44.5966823,15.3859797 49.5868043,11.0140501 54.6583479,11.0140501" id="Fill-4-Copy" fill="#394394"></path>
                                <path d="M23,16 C25.6666667,16 25.6666667,12 23,12 C20.3333333,12 20.3333333,16 23,16" id="Fill-6-Copy" fill="#E31363"></path>
                                <path d="M23.5,15 C24.1666667,15 24.1666667,14 23.5,14 C22.8333333,14 22.8333333,15 23.5,15" id="Fill-8-Copy" fill="#F8F7F6"></path>
                                <path d="M13.9132197,12.3318438 C13.3185449,11.5259897 12.5888039,10.8238661 11.8457922,10.1352371 C11.394441,9.71704351 10.6944853,10.3642349 11.1456891,10.7824284 C11.827803,11.4146259 12.5122762,12.0536388 13.0582918,12.7937923 C13.415716,13.2780954 14.2740353,12.8207814 13.9132197,12.3318438" id="Fill-10-Copy" fill="#FFFFFF"></path>
                                <path d="M16.9840991,9.44106231 C16.7082641,8.31372146 16.2346328,7.26871525 15.7590383,6.22907286 C15.5214864,5.7095869 14.8109168,6.16577979 15.0476097,6.6835225 C15.4922833,7.65558076 15.9316806,8.62629807 16.189601,9.68042277 C16.3267823,10.2408079 17.1215258,10.0026543 16.9840991,9.44106231" id="Fill-12-Copy" fill="#FFFFFF"></path>
                                <path d="M22,8.49645796 L22,5.50342575 C22,4.83219142 21,4.83219142 21,5.50342575 L21,8.49645796 C21,9.16784735 22,9.16784735 22,8.49645796" id="Fill-14-Copy" fill="#FFFFFF"></path>
                                <path d="M24.9150123,8.64047146 C25.2255623,7.62057388 25.661648,6.657173 25.972335,5.63727542 C26.1669427,4.9986916 25.2777775,4.72679155 25.0850884,5.35946111 C24.7744014,6.37920305 24.3383157,7.34275957 24.0276286,8.36265715 C23.833158,9.00124097 24.7223233,9.27329666 24.9150123,8.64047146" id="Fill-16-Copy" fill="#FFFFFF"></path>
                                <path d="M28.8159353,9.92147701 C29.9611024,9.29236332 31.1024501,8.59675574 31.8997162,7.66272003 C32.3122154,7.17948581 31.3450674,6.72474898 30.9368857,7.20282653 C30.2553652,8.0012961 29.2299292,8.59824846 28.2531495,9.13467779 C27.6599742,9.46063359 28.2174461,10.2502825 28.8159353,9.92147701" id="Fill-18-Copy" fill="#FFFFFF"></path>
                                <path d="M30.7519812,11.9507855 C31.5151752,11.6268595 32.2360928,11.1985205 32.8502844,10.7020059 C33.3097086,10.330664 32.6072685,9.74791658 32.1484356,10.118767 C31.5914503,10.5690942 30.9429645,10.9449811 30.2510196,11.2385659 C29.6808784,11.4805584 30.1831703,12.192041 30.7519812,11.9507855" id="Fill-20-Copy" fill="#FFFFFF"></path>
                                <path d="M64.0566908,13.3953425 C65.1690736,15.2125236 64.8418369,16.9755168 64.4869953,18.9739524 C64.3668652,19.6501432 64.1166172,20.3910987 64.5119646,20.991803 C64.6942406,21.2685385 64.997479,21.5042707 65.3310967,21.3792326 C66.0549293,21.1081478 66.1629909,19.6983908 66.2785433,19.0523367 C66.359,18.6026053 66.4229492,18.1492518 66.5178325,17.7024182 C66.5884402,17.3707704 66.4685875,17.8412206 66.2950508,17.6838726 C66.3828595,17.763416 66.4243363,17.9161276 66.4630388,18.0259524 C67.0711802,19.7563458 66.891956,21.734787 67.5910967,23.4320011 C67.6851478,23.6601992 67.8172077,23.8837609 68.0515031,23.9721424 C68.1531837,24.0105376 68.2605517,24.0060461 68.3641743,23.9780828 C68.4145291,23.9643184 68.4705713,23.9322983 68.5149612,23.9018719 C68.7051441,23.7711832 68.2609679,23.9620002 68.5970825,23.8940479 C69.4741989,23.7169952 69.3370064,22.0028292 69.3039914,21.3827099 C69.2257543,19.9126796 68.9261225,18.4099047 68.4432438,17.0278213 C68.4132806,17.1461945 68.3833175,17.2644228 68.353493,17.382796 C68.2040933,17.5679625 68.0133555,17.2257378 68.2242075,17.5859286 C68.3489153,17.7992032 68.4462956,18.0311684 68.5439534,18.2587869 C68.8212514,18.9051308 69.057905,19.5710345 69.3109274,20.2278103 C69.6714565,21.16335 70.0461348,22.5877407 70.8737288,23.2071355 C71.2123403,23.4606889 71.5771697,23.3610062 71.8152105,23.0115371 C72.1615903,22.5031263 72.0880696,21.8275151 72.0017867,21.24724 C71.7354474,19.4557039 70.8606892,17.6646026 70.0143683,16.1024237 C69.883002,16.2810702 69.751497,16.4597167 69.6199919,16.6383632 C70.7151736,17.0370941 71.5026779,18.5697158 72.1801786,19.4713518 C72.5329394,19.9412225 73.5433642,21.3631501 74.1273686,20.4190621 C74.6945881,19.5023578 73.8857212,18.2558891 73.4322508,17.4817543 C73.0850386,16.8891638 72.7085569,16.316133 72.3664774,15.7199203 C72.2165228,15.4585429 72.0735041,15.1886172 71.9636392,14.9057964 C72.1196973,15.3077148 71.6370961,15.0680706 71.8185397,15.1586254 C71.9160588,15.2073077 72.006087,15.279172 72.0901503,15.3491527 C72.7519758,15.8991463 73.2562171,16.6713976 73.9835177,17.1344586 C74.6345231,17.5488373 74.9097404,16.7852793 74.9775737,16.374233 C75.1266959,15.4691197 74.4977467,14.4276671 74.1075319,13.6733819 C73.4265633,12.3566428 72.6387816,11.1010462 71.9013546,9.81850058 C71.423331,8.98742491 70.9382328,8.14157069 70.5851945,7.2425427 C70.4166517,6.81338542 69.7405382,7.00115984 69.911578,7.43654729 C70.9264417,10.0198944 72.6591732,12.2242154 73.84147,14.7201953 C74.0358145,15.1302274 74.2456954,15.5876378 74.2941081,16.0486704 C74.3074251,16.175592 74.3006279,16.2786071 74.2291879,16.3820569 C73.9696458,16.7580404 74.392182,16.5350583 74.3361398,16.504487 C73.6034293,16.1047419 73.1009913,15.2330977 72.4402756,14.715414 C71.8769402,14.2739413 70.9716639,14.3704365 71.3711729,15.3053966 C71.9087067,16.5621523 72.7881813,17.6233096 73.3691339,18.8578974 C73.4875994,19.1097122 73.5896961,19.3892005 73.6161914,19.6705723 C73.6257629,19.7721386 73.6156365,19.8771822 73.5738822,19.9703449 C73.4869058,20.165074 73.6916542,20.0219249 73.6024582,19.9730978 C73.1285962,19.7134591 72.7591891,19.0740698 72.4431886,18.6454921 C71.7613877,17.7211088 71.0476816,16.4965182 69.9867634,16.0070876 C69.927808,15.9789794 69.8676043,15.9549281 69.8055971,15.9347887 C69.5051331,15.8253985 69.2686182,16.2074673 69.4113595,16.4707282 C70.2235557,17.9701707 70.9640344,19.5939268 71.301675,21.2891125 C71.3656242,21.6104734 71.4054364,21.960522 71.3568849,22.2878232 C71.3417646,22.3905486 71.3094432,22.4797994 71.2618628,22.5700644 C71.1926423,22.7016224 71.3728375,22.6732244 71.2725441,22.611792 C70.9331002,22.404168 70.7216934,21.7789777 70.5616124,21.4324064 C70.0293499,20.2801148 69.6391351,19.0614646 69.1469622,17.8904824 C68.9904879,17.518266 68.4211876,16.1702311 67.8595168,16.8668511 C67.7825281,16.9621871 67.7252374,17.0944696 67.769766,17.2218258 C68.269291,18.6523018 68.5635127,20.1955004 68.6206646,21.7169658 C68.6360624,22.1258388 68.6975146,22.8382515 68.4209102,23.1783028 C68.3891436,23.2172776 68.1837017,23.2571217 68.1283531,23.2952272 C68.3118775,23.1691749 68.3583482,23.4299727 68.2203234,23.1268677 C67.866314,22.3489658 67.8112428,21.3412721 67.6764085,20.5030969 C67.5290896,19.5876966 67.4176987,18.6321624 67.1101601,17.7566062 C66.9546568,17.3142642 66.4733039,16.6374939 65.9859862,17.1464843 C65.7690307,17.3732335 65.7629271,17.9290226 65.7131272,18.2234343 C65.6186599,18.7818314 65.5265509,19.3406631 65.3929651,19.8908016 C65.3409457,20.1053802 65.2799096,20.3212629 65.1902975,20.5220772 C65.1614441,20.5865522 65.1271807,20.6484192 65.0815423,20.7011583 C65.1363361,20.6375527 65.2449526,20.7611418 65.1195512,20.6265412 C64.83934,20.3256095 65.0629541,19.7588089 65.1220481,19.3939818 C65.2044468,18.8841221 65.3059887,18.3777397 65.3940749,17.8688942 C65.6953712,16.1285035 65.5899452,14.5466199 64.6598384,13.027038 C64.4179135,12.6320742 63.8132401,12.9976258 64.0566908,13.3953425" id="Fill-22-Copy" fill="#E31363"></path>
                                <path d="M62.611882,30.1361002 C63.8165266,29.0208162 64.3237601,27.4501427 64.9769177,25.96846 C65.1316646,25.6171347 65.2408976,25.1804419 65.6246138,25.0610145 C65.7514922,25.0214469 65.5950648,24.9381086 65.6017869,25.0036198 C65.6103294,25.0868132 65.5960451,25.1714559 65.5820409,25.2527651 C65.4950746,25.7552589 65.2763284,26.2448533 65.0812493,26.7096637 C64.8634834,27.2286802 64.1592103,28.2254064 64.5833986,28.7564526 C64.9666947,29.2364812 65.6720881,28.6405036 65.9792011,28.3815026 C66.6578465,27.8091496 67.247565,27.1166445 67.8510076,26.463562 C68.3886303,25.8817882 68.9380166,25.1820362 69.616662,24.7699826 C69.7174925,24.7086746 69.7464813,24.7618662 69.6245043,24.7015728 C69.3977757,24.5893921 69.656294,24.762301 69.7334573,24.8821633 C69.9040289,25.1479762 69.2746785,25.9713587 69.1459795,26.1633992 C68.3170686,27.4005745 67.1831455,28.5249895 66.0063693,29.4031578 C65.9114206,29.4741766 65.8182924,29.5853426 65.8317365,29.7182491 C65.9271053,30.6551167 66.9952086,29.9952222 67.406233,29.7376706 C68.4594917,29.0774862 69.4403486,28.3009181 70.4951478,27.6423281 C70.8834854,27.3998498 71.2942297,27.1451969 71.7409649,27.0404081 C71.9006132,27.0028696 71.7915202,27.0163487 71.7604308,27.1754886 C71.6943308,27.5149292 71.4150863,27.8123382 71.1967602,28.0549614 C70.0400101,29.3399657 68.3994136,30.2684269 66.8933978,31.040502 C66.6140132,31.1836989 66.6962181,31.6301024 66.9777033,31.7074983 C68.7848102,32.2050643 70.4972485,30.6536673 72.2588416,30.5826486 C72.4936927,30.5732277 72.3112175,30.4707578 72.2970732,30.5746771 C72.273266,30.7517891 72.1365846,30.8858551 72.0196492,31.0033983 C71.6846678,31.340375 71.212585,31.5544457 70.7970792,31.7604 C69.8702787,32.2197028 68.88312,32.5540706 67.9937108,33.0922187 C67.4938995,33.3945556 67.3275292,33.972851 67.9750851,34.2143147 C68.5404362,34.4250519 69.3582838,34.1434409 69.9190135,34.0345938 C70.2285071,33.9745902 70.5381408,33.9122677 70.852536,33.8879184 C71.2198672,33.859366 70.9479049,33.9795181 70.9990203,33.666311 C70.9801146,33.7824048 70.9141546,33.9135721 70.8899273,34.0385071 C70.7924578,34.5414357 69.8698586,34.9568228 69.4935647,35.1775606 C68.7587623,35.6087458 67.9837678,35.9696369 67.2164755,36.3331369 C66.8033505,36.5286558 67.1619991,37.1575339 67.5723232,36.9631745 C68.8116983,36.3763278 70.2657584,35.810497 71.2418538,34.7862329 C71.486788,34.529261 71.9405253,33.6671806 71.5600301,33.3461469 C71.1331809,32.9862703 70.4452927,33.1974424 69.9580853,33.2875927 C69.5813713,33.357307 69.2063378,33.4361523 68.8278032,33.4945616 C68.6688551,33.5192007 68.5080865,33.5297811 68.3475979,33.5318102 C68.1268911,33.534564 68.2333233,33.4615161 68.2315027,33.6110903 C68.1733852,33.7160241 68.1151275,33.8211028 68.0568699,33.9260366 C69.0181208,33.1999063 70.2285071,32.8487259 71.2939496,32.3207234 C71.9978026,31.9720069 73.1087588,31.3724059 72.9914033,30.3964056 C72.8734876,29.4153325 71.3625704,30.0013095 70.8334902,30.1721893 C69.7627262,30.5178621 68.3086661,31.3186345 67.16508,31.0036882 C67.1932285,31.2261652 67.221237,31.4483524 67.2492455,31.6706845 C68.7929327,30.8794779 70.3474031,29.9281167 71.5905594,28.6813756 C72.0525592,28.2180146 73.2053881,26.3971813 71.8311522,26.3039873 C71.4269899,26.2765943 70.9875369,26.5335662 70.6431726,26.7174902 C70.0453317,27.0369296 69.4839018,27.4321706 68.9258329,27.8190053 C68.3922714,28.1885926 67.8651519,28.5681805 67.3257086,28.9284918 C67.1040215,29.0764717 66.8788334,29.2186541 66.646503,29.3479372 C66.5698999,29.3902585 66.4921763,29.4293913 66.4108117,29.4606975 C66.1651774,29.555051 66.4987583,29.3431543 66.5368499,29.7182491 C66.4787323,29.8233279 66.4204746,29.9282617 66.362217,30.0333404 C67.5466955,29.1493746 68.6126981,28.0714841 69.5065886,26.8773549 C69.8926855,26.3616719 70.8958091,25.0617392 70.251054,24.3838726 C70.0031789,24.1231324 70.350344,24.5831599 70.155265,24.2492269 C70.0946266,24.1453077 69.9825927,24.0508093 69.8673378,24.0203727 C69.6076992,23.9518178 69.3666863,24.0667522 69.1511611,24.2090796 C68.4347042,24.6824412 67.8486269,25.4106006 67.2664707,26.0403484 C66.6410414,26.7172004 66.0268155,27.4689844 65.2880919,28.0184375 C65.1970644,28.0861227 65.0990347,28.1540978 64.9916222,28.1897521 C65.1746576,28.1290238 65.0567419,28.619198 65.1784387,28.2842505 C65.3585332,27.7884237 65.5942246,27.3123084 65.7953254,26.8253228 C66.0315769,26.2535495 66.6620477,25.0362304 66.0958564,24.4782261 C65.8397189,24.2258922 65.4412983,24.3287969 65.1582726,24.4638774 C64.4628222,24.7959262 64.2017832,25.975272 63.9155365,26.6629942 C63.4605388,27.7556682 62.9848148,28.8129777 62.113191,29.6199824 C61.7737283,29.934349 62.2740997,30.4488725 62.611882,30.1361002" id="Fill-24-Copy" fill="#E31363"></path>
                                <path d="M38.1057693,7.45998547 C38.1057693,13.1118224 38.1122956,18.7761238 37.5916611,24.4067143 C37.740566,24.2482158 37.8896042,24.0897173 38.0387755,23.9312189 C36.8896237,23.9467996 35.6963865,24.2109637 34.5593549,23.948216 C33.9971656,23.8183295 33.7582251,24.7350426 34.3216131,24.8652125 C35.5501453,25.1490649 36.798789,24.8990651 38.0387755,24.8822096 C38.3006244,24.8786686 38.4617826,24.6671956 38.4858898,24.4067143 C39.0065243,18.7761238 38.999998,13.1118224 38.999998,7.45998547 C38.999998,6.84667151 38.1057693,6.84667151 38.1057693,7.45998547" id="Fill-26-Copy" fill="#E31363"></path>
                                <path d="M61.6097417,19.0630596 C60.7919167,19.8343143 60.3573218,20.9881938 60.1312629,22.1044685 C59.949747,23.001263 59.8690881,24.1890296 60.486269,24.9231086 C60.6800911,25.1538845 60.9965736,24.813297 60.8036879,24.583665 C60.2683696,23.946815 60.4466753,22.8136682 60.5988972,22.0612873 C60.7971335,21.0825631 61.2150081,20.0740982 61.9271605,19.4025032 C62.1447924,19.1973214 61.8259022,18.8591646 61.6097417,19.0630596" id="Fill-28-Copy" fill="#E31363"></path>
                                <path d="M59.4133149,15.0253547 C55.2424303,16.3347399 54.2711264,21.1051948 55.4871469,24.6837474 C55.6762137,25.2395891 56.6012854,25.0017778 56.411077,24.4418709 C55.3681419,21.3729528 56.0015513,17.0535942 59.6680199,15.9027499 C60.2517726,15.7194115 60.0016336,14.8406614 59.4133149,15.0253547" id="Fill-30-Copy" fill="#E31363"></path>
                                <path d="M74.2917514,25.9563089 C75.5775116,24.8756643 75.9832068,23.0121761 75.9999859,21.230048 C76.0027425,20.9231756 75.6005229,20.9234591 75.5976465,21.230048 C75.5826652,22.825076 75.2497194,24.5696423 74.0886042,25.5455392 C73.8791049,25.7215834 74.0796154,26.1344792 74.2917514,25.9563089" id="Fill-32-Copy" fill="#E31363"></path>
                                <g id="Group-36-Copy" transform="translate(74.000000, 15.000000)">
                                    <mask id="mask-4" fill="white">
                                        <use xlink:href="#path-3"></use>
                                    </mask>
                                    <g id="Clip-35"></g>
                                    <path d="M0.6951,16.8466857 C7.11952857,14.6232571 8.89438571,5.2054 4.74295714,0.216828571 C4.34681429,-0.259171429 3.6721,0.423257143 4.06467143,0.895114286 C7.74267143,5.31468571 6.14524286,13.9472571 0.4401,15.9216857 C-0.140757143,16.1228286 0.108814286,17.0495429 0.6951,16.8466857" id="Fill-34" fill="#E31363" mask="url(#mask-4)"></path>
                                </g>
                            </g>
                            <g id="Group-41" transform="translate(91.000000, 7.000000)" fill="#394394">
                                <path d="M11.1902328,18.5958622 L11.6982941,19.1922819 C11.8750111,19.4131781 11.8971007,19.5457158 11.7203837,19.7224328 C10.6821716,20.7385553 8.87082279,21.2687061 7.25828056,21.2687061 C3.92274799,21.2687061 1.3382625,18.6400414 1.3382625,15.4149569 C1.3382625,12.1898725 3.92274799,9.53911812 7.14783246,9.53911812 C10.6379924,9.53911812 12.6039685,12.3665894 12.6039685,15.6800324 C12.6039685,15.9671974 12.5597893,16.0776455 12.2505346,16.0776455 L3.34841788,16.0776455 C3.52513484,17.9773528 5.24812517,19.5898951 7.32454942,19.5898951 C8.29649268,19.5898951 9.555601,19.30273 10.6379924,18.5737725 C10.9030678,18.4191452 11.0135159,18.374966 11.1902328,18.5958622 Z M3.39259712,14.7522684 L10.6159027,14.7522684 C10.5054546,12.9630092 9.2242567,11.17375 7.10365322,11.17375 C4.96096012,11.17375 3.4809556,12.9630092 3.39259712,14.7522684 Z M19.1204063,19.7224328 C21.1084721,19.7224328 21.9478776,18.8830272 21.9478776,17.8448151 C21.9478776,16.9612303 20.8875759,16.4973483 18.9878686,16.2322729 C16.756817,15.9451078 14.7024824,15.3707777 14.7024824,13.029278 C14.7024824,10.9086745 16.3812935,9.53911812 19.0099582,9.53911812 C20.1586184,9.53911812 21.6828022,9.82628318 23.2511652,10.7761368 C23.5383302,10.9528538 23.4720614,11.1074811 23.3616133,11.3283773 L23.0081793,11.9689763 C22.8756416,12.2119621 22.7651935,12.3224102 22.4780285,12.1456932 C21.3735475,11.460915 20.534142,11.0853915 19.1204063,11.0853915 C17.3532367,11.0853915 16.5359208,11.8143489 16.5359208,12.9409195 C16.5359208,14.0233109 17.5962225,14.2442071 19.4959298,14.5313722 C21.7269814,14.8185372 23.8034057,15.5474947 23.8034057,17.7564566 C23.8034057,19.8107912 22.0804153,21.2687061 19.2308544,21.2687061 C18.0601046,21.2687061 16.292935,20.9373618 14.6803927,19.8549705 C14.4374069,19.7003431 14.4594966,19.5678054 14.5920343,19.3248196 L14.9675578,18.662131 C15.1000955,18.4191452 15.188454,18.2866075 15.4977087,18.5075037 C16.4033831,19.1701923 17.684581,19.7224328 19.1204063,19.7224328 Z M31.5789518,19.5236262 C32.6834327,19.5236262 33.7437345,19.1039234 34.4726919,18.374966 C34.6935881,18.1761594 34.8261258,18.2424283 35.0249324,18.4412348 L35.6434418,19.126013 C35.8201587,19.3469092 35.8422483,19.4352677 35.6655314,19.6119847 C34.5389608,20.7385553 33.1031355,21.2687061 31.5789518,21.2687061 C28.3538673,21.2687061 25.7693818,18.6400414 25.7693818,15.4149569 C25.7693818,12.1898725 28.3538673,9.53911812 31.5789518,9.53911812 C33.1031355,9.53911812 34.5389608,10.0913586 35.6655314,11.1958396 C35.8422483,11.3725566 35.8201587,11.4830046 35.6434418,11.7039008 L35.0249324,12.3665894 C34.8261258,12.5874856 34.6935881,12.6316649 34.4726919,12.4328583 C33.7437345,11.7039008 32.6834327,11.3062877 31.5789518,11.3062877 C29.4362587,11.3062877 27.6911787,13.1176365 27.6911787,15.4149569 C27.6911787,17.734367 29.4362587,19.5236262 31.5789518,19.5236262 Z M46.4452658,20.6501968 L46.2243696,18.8609376 C45.6942187,19.7445224 44.5897377,21.2687061 42.5133135,21.2687061 C40.1497242,21.2687061 38.183748,19.8770601 38.183748,16.2543625 L38.183748,10.1797171 C38.183748,9.89255204 38.2721065,9.78210394 38.5592716,9.78210394 L39.752111,9.78210394 C40.0171865,9.78210394 40.1276346,9.87046242 40.1276346,10.1797171 L40.1276346,15.7904805 C40.1276346,18.3086971 41.2983844,19.5236262 42.9992851,19.5236262 C44.8327235,19.5236262 45.9372045,17.8227255 45.9372045,15.6579428 L45.9372045,10.1797171 C45.9372045,9.89255204 46.025563,9.78210394 46.3127281,9.78210394 L47.5055675,9.78210394 C47.7706429,9.78210394 47.881091,9.87046242 47.881091,10.1797171 L47.881091,20.6501968 C47.881091,20.9373618 47.7706429,21.0257203 47.5055675,21.0257203 L46.8649685,21.0257203 C46.6440723,21.0257203 46.5557139,20.9152722 46.4452658,20.6501968 Z M60.8476978,18.5958622 L61.355759,19.1922819 C61.532476,19.4131781 61.5545656,19.5457158 61.3778486,19.7224328 C60.3396365,20.7385553 58.5282877,21.2687061 56.9157455,21.2687061 C53.5802129,21.2687061 50.9957274,18.6400414 50.9957274,15.4149569 C50.9957274,12.1898725 53.5802129,9.53911812 56.8052974,9.53911812 C60.2954573,9.53911812 62.2614334,12.3665894 62.2614334,15.6800324 C62.2614334,15.9671974 62.2172542,16.0776455 61.9079995,16.0776455 L53.0058828,16.0776455 C53.1825998,17.9773528 54.9055901,19.5898951 56.9820143,19.5898951 C57.9539576,19.5898951 59.2130659,19.30273 60.2954573,18.5737725 C60.5605327,18.4191452 60.6709808,18.374966 60.8476978,18.5958622 Z M53.050062,14.7522684 L60.2733677,14.7522684 C60.1629196,12.9630092 58.8817216,11.17375 56.7611181,11.17375 C54.618425,11.17375 53.1384205,12.9630092 53.050062,14.7522684 Z M65.3318905,20.6501968 L65.3318905,5.1211942 C65.3318905,4.81193952 65.420249,4.72358104 65.7295037,4.72358104 L66.9002535,4.72358104 C67.2095082,4.72358104 67.2757771,4.83402914 67.2757771,5.1211942 L67.2757771,20.6501968 C67.2757771,20.9373618 67.1874186,21.0257203 66.9002535,21.0257203 L65.7295037,21.0257203 C65.420249,21.0257203 65.3318905,20.9373618 65.3318905,20.6501968 Z M72.2680311,11.5934527 C71.9587764,11.637632 71.8925076,11.5271839 71.8041491,11.2179292 L71.6053425,10.4447925 C71.5390737,10.1576275 71.5832529,10.0250898 71.870418,9.95882089 C72.1354934,9.89255204 74.0131111,9.53911812 75.6919222,9.53911812 C79.5796952,9.53911812 80.5074592,11.2621085 80.5074592,14.8627165 L80.5074592,20.6501968 C80.5074592,20.9373618 80.4191008,21.0257203 80.1319357,21.0257203 L79.4029782,21.0257203 C79.1820821,21.0257203 79.0937236,20.9373618 79.0053651,20.6501968 L78.894917,19.30273 C78.2984973,20.0537771 76.9068512,21.2687061 74.5653516,21.2687061 C72.4889273,21.2687061 70.6554889,20.0095978 70.6554889,17.6018293 C70.6554889,15.1940607 72.4889273,14.0233109 75.0955024,14.0233109 C76.1778938,14.0233109 77.4811813,14.310476 78.5635727,14.7301787 C78.5635727,12.1898725 77.8567049,11.2400188 75.6256533,11.2400188 C74.2560969,11.2400188 73.1074367,11.4167358 72.2680311,11.5934527 Z M75.5152052,15.4591362 C73.549229,15.4591362 72.5772858,16.2543625 72.5772858,17.6018293 C72.5772858,18.7946687 73.4608706,19.766612 75.1617713,19.766612 C76.5534173,19.766612 77.8787945,18.8167584 78.5635727,17.8669047 L78.5635727,16.166004 C77.503271,15.7463012 76.685955,15.4591362 75.5152052,15.4591362 Z M94.4460092,19.5236262 C95.5504902,19.5236262 96.6107919,19.1039234 97.3397494,18.374966 C97.5606456,18.1761594 97.6931833,18.2424283 97.8919899,18.4412348 L98.5104992,19.126013 C98.6872162,19.3469092 98.7093058,19.4352677 98.5325888,19.6119847 C97.4060182,20.7385553 95.970193,21.2687061 94.4460092,21.2687061 C91.2209247,21.2687061 88.6364393,18.6400414 88.6364393,15.4149569 C88.6364393,12.1898725 91.2209247,9.53911812 94.4460092,9.53911812 C95.970193,9.53911812 97.4060182,10.0913586 98.5325888,11.1958396 C98.7093058,11.3725566 98.6872162,11.4830046 98.5104992,11.7039008 L97.8919899,12.3665894 C97.6931833,12.5874856 97.5606456,12.6316649 97.3397494,12.4328583 C96.6107919,11.7039008 95.5504902,11.3062877 94.4460092,11.3062877 C92.3033161,11.3062877 90.5582362,13.1176365 90.5582362,15.4149569 C90.5582362,17.734367 92.3033161,19.5236262 94.4460092,19.5236262 Z M107.589333,11.460915 C104.82813,11.460915 103.546932,13.3606223 103.546932,15.3265985 L103.546932,20.6501968 C103.546932,20.9373618 103.458574,21.0257203 103.171409,21.0257203 L101.97857,21.0257203 C101.691404,21.0257203 101.603046,20.9373618 101.603046,20.6501968 L101.603046,10.1797171 C101.603046,9.87046242 101.691404,9.78210394 101.97857,9.78210394 L102.597079,9.78210394 C102.817975,9.78210394 102.906334,9.89255204 103.038871,10.1797171 L103.370216,12.2340517 C103.878277,11.2400188 104.85022,9.53911812 107.854408,9.53911812 C108.207842,9.53911812 108.252021,9.64956622 108.207842,9.89255204 L108.031125,11.1074811 C107.964856,11.3946462 107.876498,11.460915 107.589333,11.460915 Z M118.965487,18.5958622 L119.473548,19.1922819 C119.650265,19.4131781 119.672355,19.5457158 119.495638,19.7224328 C118.457426,20.7385553 116.646077,21.2687061 115.033535,21.2687061 C111.698002,21.2687061 109.113517,18.6400414 109.113517,15.4149569 C109.113517,12.1898725 111.698002,9.53911812 114.923087,9.53911812 C118.413247,9.53911812 120.379223,12.3665894 120.379223,15.6800324 C120.379223,15.9671974 120.335043,16.0776455 120.025789,16.0776455 L111.123672,16.0776455 C111.300389,17.9773528 113.023379,19.5898951 115.099804,19.5898951 C116.071747,19.5898951 117.330855,19.30273 118.413247,18.5737725 C118.678322,18.4191452 118.78877,18.374966 118.965487,18.5958622 Z M111.167851,14.7522684 L118.391157,14.7522684 C118.280709,12.9630092 116.999511,11.17375 114.878907,11.17375 C112.736214,11.17375 111.25621,12.9630092 111.167851,14.7522684 Z M124.00192,11.5934527 C123.692666,11.637632 123.626397,11.5271839 123.538038,11.2179292 L123.339232,10.4447925 C123.272963,10.1576275 123.317142,10.0250898 123.604307,9.95882089 C123.869383,9.89255204 125.747,9.53911812 127.425811,9.53911812 C131.313584,9.53911812 132.241348,11.2621085 132.241348,14.8627165 L132.241348,20.6501968 C132.241348,20.9373618 132.15299,21.0257203 131.865825,21.0257203 L131.136867,21.0257203 C130.915971,21.0257203 130.827613,20.9373618 130.739254,20.6501968 L130.628806,19.30273 C130.032386,20.0537771 128.64074,21.2687061 126.299241,21.2687061 C124.222816,21.2687061 122.389378,20.0095978 122.389378,17.6018293 C122.389378,15.1940607 124.222816,14.0233109 126.829392,14.0233109 C127.911783,14.0233109 129.215071,14.310476 130.297462,14.7301787 C130.297462,12.1898725 129.590594,11.2400188 127.359542,11.2400188 C125.989986,11.2400188 124.841326,11.4167358 124.00192,11.5934527 Z M127.249094,15.4591362 C125.283118,15.4591362 124.311175,16.2543625 124.311175,17.6018293 C124.311175,18.7946687 125.19476,19.766612 126.89566,19.766612 C128.287306,19.766612 129.612684,18.8167584 130.297462,17.8669047 L130.297462,16.166004 C129.23716,15.7463012 128.419844,15.4591362 127.249094,15.4591362 Z M142.358394,20.7385553 C141.474809,21.2687061 140.524956,21.2687061 140.237791,21.2687061 C137.321961,21.2687061 136.129121,19.4352677 136.129121,16.3648106 L136.129121,11.3725566 L135.135089,11.3725566 C134.847924,11.3725566 134.759565,11.2841981 134.759565,10.9749434 L134.759565,10.1797171 C134.759565,9.87046242 134.847924,9.78210394 135.135089,9.78210394 L136.129121,9.78210394 L136.129121,7.55105236 C136.129121,7.2638873 136.21748,7.1534392 136.526735,7.1534392 L137.675395,7.1534392 C137.984649,7.1534392 138.073008,7.24179768 138.073008,7.55105236 L138.073008,9.78210394 L141.850333,9.78210394 C142.137498,9.78210394 142.247946,9.87046242 142.247946,10.1797171 L142.247946,10.9749434 C142.247946,11.2841981 142.159588,11.3725566 141.850333,11.3725566 L138.073008,11.3725566 L138.073008,16.2322729 C138.073008,18.6179518 138.801965,19.5236262 140.436597,19.5236262 C141.010927,19.5236262 141.364361,19.479447 141.894512,19.2143715 C142.225856,19.0376546 142.292125,19.0597442 142.380484,19.4131781 L142.535111,20.2525836 C142.60138,20.5176591 142.57929,20.6060176 142.358394,20.7385553 Z M145.826464,20.6501968 L145.826464,10.1797171 C145.826464,9.87046242 145.914823,9.78210394 146.224078,9.78210394 L147.394827,9.78210394 C147.704082,9.78210394 147.770351,9.89255204 147.770351,10.1797171 L147.770351,20.6501968 C147.770351,20.9373618 147.681993,21.0257203 147.394827,21.0257203 L146.224078,21.0257203 C145.914823,21.0257203 145.826464,20.9373618 145.826464,20.6501968 Z M145.49512,6.15940632 C145.49512,5.45253849 146.06945,4.85611876 146.776318,4.85611876 C147.483186,4.85611876 148.079606,5.45253849 148.079606,6.15940632 C148.079606,6.86627415 147.483186,7.44060426 146.776318,7.44060426 C146.06945,7.44060426 145.49512,6.86627415 145.49512,6.15940632 Z M155.634256,21.0478099 L150.399016,10.1797171 C150.310657,9.98091051 150.399016,9.78210394 150.619912,9.78210394 L151.945289,9.78210394 C152.210365,9.78210394 152.298723,9.87046242 152.45335,10.1797171 L155.9656,17.6460085 L155.987689,17.6680981 L159.477849,10.1797171 C159.632477,9.87046242 159.742925,9.78210394 159.985911,9.78210394 L161.289198,9.78210394 C161.554274,9.78210394 161.620542,10.0030001 161.532184,10.1797171 L156.319034,21.0478099 C156.186496,21.2687061 156.142317,21.4012439 156.009779,21.4012439 L155.94351,21.4012439 C155.810973,21.4012439 155.766793,21.2687061 155.634256,21.0478099 Z M164.138759,11.5934527 C163.829504,11.637632 163.763236,11.5271839 163.674877,11.2179292 L163.476071,10.4447925 C163.409802,10.1576275 163.453981,10.0250898 163.741146,9.95882089 C164.006221,9.89255204 165.883839,9.53911812 167.56265,9.53911812 C171.450423,9.53911812 172.378187,11.2621085 172.378187,14.8627165 L172.378187,20.6501968 C172.378187,20.9373618 172.289829,21.0257203 172.002664,21.0257203 L171.273706,21.0257203 C171.05281,21.0257203 170.964452,20.9373618 170.876093,20.6501968 L170.765645,19.30273 C170.169225,20.0537771 168.777579,21.2687061 166.43608,21.2687061 C164.359655,21.2687061 162.526217,20.0095978 162.526217,17.6018293 C162.526217,15.1940607 164.359655,14.0233109 166.96623,14.0233109 C168.048622,14.0233109 169.351909,14.310476 170.434301,14.7301787 C170.434301,12.1898725 169.727433,11.2400188 167.496381,11.2400188 C166.126825,11.2400188 164.978165,11.4167358 164.138759,11.5934527 Z M167.385933,15.4591362 C165.419957,15.4591362 164.448014,16.2543625 164.448014,17.6018293 C164.448014,18.7946687 165.331599,19.766612 167.032499,19.766612 C168.424145,19.766612 169.749523,18.8167584 170.434301,17.8669047 L170.434301,16.166004 C169.373999,15.7463012 168.556683,15.4591362 167.385933,15.4591362 Z" id="escuela-creativa"></path>
                                <path d="M1.74999997,15.990076 L11.1877498,14.795526 C11.1877498,14.795526 10.1947998,9.83077608 6.46729989,10.5762761 C2.74294995,11.3217761 1.74999997,15.990076 1.74999997,15.990076" id="Fill-38"></path>
                                <path d="M51.4499991,15.990076 L60.885999,14.795526 C60.885999,14.795526 59.896199,9.83077608 56.168699,10.5762761 C52.4411991,11.3217761 51.4499991,15.990076 51.4499991,15.990076" id="Fill-39"></path>
                                <path d="M110.599998,16.035926 L119.295748,14.795526 C119.295748,14.795526 118.299298,9.83077608 114.578448,10.5762761 C110.850948,11.3217761 110.599998,16.035926 110.599998,16.035926" id="Fill-40"></path>
                            </g>
                        </g>
                    </g>
                </g>
            </g>
        </g>
    </g>
</svg>