<?xml version="1.0" encoding="utf-8"?>
<!-- Generator: Adobe Illustrator 22.1.0, SVG Export Plug-In . SVG Version: 6.00 Build 0)  -->
<svg version="1.1" id="Layer_1" xmlns="http://www.w3.org/2000/svg" xmlns:xlink="http://www.w3.org/1999/xlink" x="0px" y="0px"
	 viewBox="0 0 187 33" style="enable-background:new 0 0 187 33;" xml:space="preserve">
<style type="text/css">
	.st0{fill:#0660AA;}
	.st1{fill:#FDB718;}
	.st2{fill:#ED2026;}
	.st3{fill:#F26A21;}
	.st4{fill:#F99F1D;}
	.st5{fill:#273991;}
	.st6{fill:#FBAA19;}
</style>
<g id="XMLID_1_">
	<g id="XMLID_2_">
		<path id="XMLID_3_" class="st0" d="M33.9,20.1h-4.2c-0.1,0-0.2-0.1-0.2-0.2s0.1-0.2,0.2-0.2h4.2c0.2,0,1.3-0.3,1.3-1.6
			c0-1.3-0.7-1.4-0.8-1.4c0,0-2.7,0-2.7,0c-1.1-0.2-1.3-1.1-1.3-1.7c0-1.3,1.1-1.9,1.7-2.1c0,0,0,0,0.1,0H36c0.1,0,0.2,0.1,0.2,0.2
			c0,0.1-0.1,0.2-0.2,0.2h-3.7c-0.2,0-1.3,0.4-1.3,1.6c0,0,0,0,0,0c0,0-0.1,1,0.9,1.2c0,0,2.7,0,2.6,0c0,0,1.3,0.1,1.3,1.9
			C35.6,19.5,34.5,20,33.9,20.1C33.9,20.1,33.9,20.1,33.9,20.1z"/>
	</g>
	<g id="XMLID_4_">
		<path id="XMLID_5_" class="st0" d="M41.8,20.1h-3.9c0,0,0,0,0,0c-0.5-0.1-1.5-0.4-1.5-1.4c0-1,0.7-4.1,0.7-4.2c0,0,0,0,0,0
			c0-0.1,0.6-1.6,1.8-1.6h2.8c0,0,0,0,0.1,0c0,0,1.2,0.4,1.2,1.3c0,0.8-0.2,2.2-0.3,2.3c0,0.1-0.1,0.2-0.2,0.2l-5.4,0
			c-0.1,0.8-0.2,1.5-0.2,1.9c0,0.7,0.9,0.9,1.1,0.9h3.8c0.1,0,0.2,0.1,0.2,0.2C42,20,41.9,20.1,41.8,20.1z M37.5,14.7
			c0,0.1-0.2,0.9-0.3,1.7l5.1,0c0.1-0.4,0.2-1.4,0.2-2c0-0.6-0.7-0.8-0.8-0.9h-2.7C38.1,13.5,37.6,14.6,37.5,14.7z"/>
	</g>
	<g id="XMLID_8_">
		<path id="XMLID_9_" class="st0" d="M22.5,23.3C22.5,23.3,22.4,23.3,22.5,23.3c-0.2,0-0.3-0.2-0.2-0.3c0,0,0.4-2.1,0.8-4.2
			c0.2-1,0.4-2.1,0.5-2.9c0.1-0.4,0.1-0.7,0.2-0.9c0-0.2,0.1-0.3,0.1-0.4l0,0c0.3-0.7,1.1-1.5,1.7-1.6c0,0,0,0,0.1,0
			c0.2,0,1.7,0,2.7,0c0,0,0,0,0,0c0.2,0,1.5,0.5,1.3,1.4c0,0,0,0,0,0l-0.7,4c0,0,0,0,0,0c0,0.1-0.4,1.2-1.5,1.6c0,0,0,0-0.1,0
			l-2.4,0.1c0,0,0,0,0,0c0,0-0.8-0.1-1.4-0.9c-0.3,1.4-0.5,2.9-0.7,3.8C22.7,23.2,22.6,23.3,22.5,23.3z M23.5,18.6
			c0.5,0.9,1.2,1.1,1.3,1.1l2.4-0.1c0.8-0.3,1.1-1.1,1.2-1.2l0.7-4c0.1-0.4-0.6-0.9-0.9-0.9c-0.2,0-0.7,0-1.3,0c-0.3,0-0.7,0-0.9,0
			c-0.2,0-0.3,0-0.4,0c-0.4,0.1-1.1,0.7-1.3,1.3C24.2,14.9,23.9,16.7,23.5,18.6z"/>
	</g>
	<path id="XMLID_12_" class="st1" d="M19.3,12c0,0.4-0.3,0.7-0.7,0.7s-0.7-0.3-0.7-0.7c0-0.4,0.3-0.7,0.7-0.7S19.3,11.6,19.3,12z"/>
	<circle id="XMLID_13_" class="st1" cx="17.1" cy="9.7" r="0.7"/>
	<path id="XMLID_15_" class="st1" d="M16.3,12c0,0.4-0.3,0.7-0.7,0.7c-0.4,0-0.7-0.3-0.7-0.7c0-0.4,0.3-0.7,0.7-0.7
		C16,11.3,16.3,11.6,16.3,12z"/>
	<circle id="XMLID_16_" class="st1" cx="18.5" cy="21" r="0.7"/>
	<circle id="XMLID_17_" class="st1" cx="17.1" cy="18.9" r="0.7"/>
	<circle id="XMLID_21_" class="st1" cx="14.2" cy="18.9" r="0.5"/>
	<path id="XMLID_22_" class="st1" d="M16.2,21c0,0.3-0.2,0.5-0.5,0.5c-0.3,0-0.5-0.2-0.5-0.5s0.2-0.5,0.5-0.5
		C15.9,20.4,16.2,20.7,16.2,21z"/>
	<circle id="XMLID_23_" class="st1" cx="14.1" cy="23.3" r="0.5"/>
	<circle id="XMLID_24_" class="st1" cx="12.7" cy="21" r="0.4"/>
	<circle id="XMLID_25_" class="st1" cx="7.5" cy="16.5" r="0.4"/>
	<circle id="XMLID_26_" class="st1" cx="8.3" cy="14.3" r="0.4"/>
	<path id="XMLID_27_" class="st1" d="M10.1,12c0,0.2-0.2,0.4-0.4,0.4c-0.2,0-0.4-0.2-0.4-0.4c0-0.2,0.2-0.4,0.4-0.4
		C9.9,11.5,10.1,11.7,10.1,12z"/>
	<path id="XMLID_28_" class="st1" d="M11.6,9.8c0,0.2-0.2,0.4-0.4,0.4c-0.2,0-0.4-0.2-0.4-0.4c0-0.2,0.2-0.4,0.4-0.4
		C11.4,9.3,11.6,9.5,11.6,9.8z"/>
	<circle id="XMLID_29_" class="st1" cx="11.2" cy="23.3" r="0.4"/>
	<circle id="XMLID_30_" class="st1" cx="9.7" cy="21" r="0.4"/>
	<circle id="XMLID_32_" class="st1" cx="8.2" cy="18.9" r="0.4"/>
	<circle id="XMLID_33_" class="st1" cx="7.4" cy="21" r="0.2"/>
	<circle id="XMLID_34_" class="st1" cx="6.1" cy="18.9" r="0.2"/>
	<path id="XMLID_38_" class="st1" d="M5.4,16.5c0,0.1-0.1,0.2-0.2,0.2c-0.1,0-0.2-0.1-0.2-0.2c0-0.1,0.1-0.2,0.2-0.2
		C5.3,16.3,5.4,16.4,5.4,16.5z"/>
	<circle id="XMLID_39_" class="st1" cx="6" cy="14.3" r="0.2"/>
	<circle id="XMLID_40_" class="st1" cx="7.5" cy="12" r="0.2"/>
	<circle id="XMLID_41_" class="st1" cx="11.2" cy="18.9" r="0.5"/>
	<circle id="XMLID_46_" class="st1" cx="9.6" cy="16.5" r="0.5"/>
	<path id="XMLID_47_" class="st1" d="M11.7,14.3c0,0.3-0.2,0.5-0.5,0.5c-0.3,0-0.5-0.2-0.5-0.5c0-0.3,0.2-0.5,0.5-0.5
		C11.5,13.7,11.7,14,11.7,14.3z"/>
	<circle id="XMLID_48_" class="st1" cx="12.7" cy="12" r="0.5"/>
	<circle id="XMLID_49_" class="st1" cx="14.1" cy="9.7" r="0.5"/>
	<circle id="XMLID_50_" class="st1" cx="12.6" cy="16.5" r="0.7"/>
	<circle id="XMLID_51_" class="st1" cx="14.1" cy="14.3" r="0.7"/>
	<circle id="XMLID_52_" class="st1" cx="17.1" cy="23.3" r="0.7"/>
	<rect id="XMLID_70_" x="13" y="16.3" class="st1" width="9.8" height="0.4"/>
	<rect id="XMLID_66_" x="14.6" y="14.1" class="st1" width="3.1" height="0.4"/>
	<polygon id="XMLID_69_" class="st1" points="19,16.7 17.3,14.1 17.8,14.1 19.5,16.7 	"/>
	<rect id="XMLID_68_" x="17.6" y="18.7" class="st1" width="1.6" height="0.4"/>
	<polygon id="XMLID_67_" class="st1" points="18.8,19.1 20.2,16.7 20.6,16.7 19.2,19.1 	"/>
</g>
<g>
	<path class="st2" d="M106.1,16.5c0-2.3,1.1-4.4,2.8-5.8c-1.3-1-2.8-1.6-4.6-1.6c-4.1,0-7.4,3.3-7.4,7.4s3.3,7.4,7.4,7.4
		c1.7,0,3.3-0.6,4.6-1.6C107.2,20.9,106.1,18.8,106.1,16.5z"/>
	<ellipse class="st3" cx="108.9" cy="16.5" rx="2.8" ry="5.8"/>
	<g>
		<path d="M132.9,14.5c-0.2-0.2-0.4-0.3-0.6-0.4c-0.2-0.1-0.5-0.1-0.8-0.1c-0.1,0-0.3,0-0.5,0c-0.2,0-0.3,0.1-0.5,0.1
			c-0.2,0.1-0.3,0.2-0.4,0.3c-0.1,0.1-0.3,0.3-0.4,0.4c-0.2-0.3-0.4-0.5-0.7-0.6c-0.3-0.2-0.6-0.2-1-0.2c-0.1,0-0.2,0-0.4,0
			c-0.1,0-0.3,0.1-0.4,0.1c-0.1,0.1-0.3,0.1-0.4,0.2c-0.1,0.1-0.2,0.2-0.3,0.4v-0.6h-1V19h1v-2.7c0-0.2,0-0.4,0.1-0.6
			c0.1-0.2,0.2-0.3,0.3-0.4c0.1-0.1,0.2-0.2,0.4-0.2c0.1-0.1,0.3-0.1,0.5-0.1c0.3,0,0.6,0.1,0.8,0.3c0.2,0.2,0.3,0.5,0.3,0.9V19h1
			v-2.7c0-0.2,0-0.4,0.1-0.6c0.1-0.2,0.2-0.3,0.3-0.4c0.1-0.1,0.2-0.2,0.4-0.2c0.1-0.1,0.3-0.1,0.5-0.1c0.3,0,0.6,0.1,0.8,0.3
			c0.2,0.2,0.3,0.5,0.3,0.9V19h1v-3.1c0-0.3,0-0.5-0.1-0.8C133.2,14.9,133.1,14.7,132.9,14.5z"/>
		<path d="M138.4,14.7c-0.2-0.2-0.4-0.4-0.6-0.5c-0.3-0.1-0.6-0.2-0.9-0.2c-0.3,0-0.7,0.1-1,0.2c-0.3,0.1-0.6,0.3-0.8,0.5
			c-0.2,0.2-0.4,0.5-0.5,0.8c-0.1,0.3-0.2,0.7-0.2,1c0,0.4,0.1,0.7,0.2,1c0.1,0.3,0.3,0.6,0.5,0.8c0.2,0.2,0.5,0.4,0.8,0.5
			c0.3,0.1,0.6,0.2,1,0.2c0.3,0,0.6-0.1,0.9-0.2c0.3-0.1,0.5-0.3,0.6-0.5V19h1.1v-4.9h-1.1V14.7z M138.3,17.2
			c-0.1,0.2-0.2,0.4-0.3,0.5c-0.1,0.1-0.3,0.2-0.5,0.3c-0.2,0.1-0.4,0.1-0.6,0.1c-0.2,0-0.4,0-0.6-0.1c-0.2-0.1-0.3-0.2-0.5-0.3
			c-0.1-0.1-0.2-0.3-0.3-0.5c-0.1-0.2-0.1-0.4-0.1-0.6c0-0.2,0-0.4,0.1-0.6c0.1-0.2,0.2-0.4,0.3-0.5c0.1-0.1,0.3-0.3,0.5-0.3
			c0.2-0.1,0.4-0.1,0.6-0.1c0.2,0,0.4,0,0.6,0.1c0.2,0.1,0.3,0.2,0.5,0.3c0.1,0.1,0.2,0.3,0.3,0.5c0.1,0.2,0.1,0.4,0.1,0.6
			C138.4,16.8,138.4,17,138.3,17.2z"/>
		<path d="M144.3,16.5c-0.3-0.2-0.7-0.4-1.2-0.5l-0.5-0.1c-0.1,0-0.2,0-0.3-0.1c-0.1,0-0.2-0.1-0.3-0.1c-0.1,0-0.1-0.1-0.2-0.1
			c0-0.1-0.1-0.1-0.1-0.2c0-0.2,0.1-0.3,0.2-0.4c0.2-0.1,0.4-0.2,0.7-0.2c0.2,0,0.3,0,0.5,0c0.1,0,0.3,0.1,0.4,0.1
			c0.1,0,0.3,0.1,0.4,0.1c0.1,0,0.2,0.1,0.3,0.1l0.5-0.8c-0.3-0.2-0.6-0.3-0.9-0.4c-0.3-0.1-0.7-0.1-1.1-0.1c-0.3,0-0.6,0-0.8,0.1
			c-0.2,0.1-0.5,0.2-0.6,0.3c-0.2,0.1-0.3,0.3-0.4,0.5c-0.1,0.2-0.1,0.4-0.1,0.7c0,0.4,0.1,0.7,0.4,1c0.3,0.2,0.7,0.4,1.2,0.5
			l0.5,0.1c0.3,0,0.5,0.1,0.6,0.2c0.1,0.1,0.2,0.2,0.2,0.3c0,0.2-0.1,0.3-0.3,0.4c-0.2,0.1-0.5,0.2-0.8,0.2c-0.2,0-0.4,0-0.5,0
			c-0.2,0-0.3-0.1-0.4-0.1c-0.1,0-0.2-0.1-0.4-0.2c-0.1-0.1-0.2-0.1-0.3-0.2l-0.5,0.8c0.2,0.1,0.4,0.2,0.6,0.3s0.4,0.1,0.6,0.2
			c0.2,0,0.4,0.1,0.5,0.1c0.2,0,0.3,0,0.4,0c0.3,0,0.7,0,0.9-0.1c0.3-0.1,0.5-0.2,0.7-0.3c0.2-0.1,0.3-0.3,0.4-0.5
			c0.1-0.2,0.2-0.4,0.2-0.6C144.8,17.1,144.6,16.8,144.3,16.5z"/>
		<path d="M154.3,14.7c-0.2-0.2-0.4-0.4-0.7-0.5c-0.3-0.1-0.6-0.2-0.9-0.2c-0.4,0-0.7,0.1-1,0.2c-0.3,0.1-0.6,0.3-0.8,0.5
			c-0.2,0.2-0.4,0.5-0.5,0.8c-0.1,0.3-0.2,0.7-0.2,1c0,0.4,0.1,0.7,0.2,1.1c0.1,0.3,0.3,0.6,0.5,0.8c0.2,0.2,0.5,0.4,0.8,0.5
			c0.3,0.1,0.6,0.2,1,0.2c0.4,0,0.7-0.1,1.1-0.2c0.3-0.1,0.7-0.3,0.9-0.5l-0.5-0.8c-0.2,0.2-0.4,0.3-0.7,0.4
			c-0.2,0.1-0.5,0.1-0.7,0.1c-0.2,0-0.3,0-0.5-0.1c-0.2,0-0.3-0.1-0.4-0.2c-0.1-0.1-0.2-0.2-0.3-0.4c-0.1-0.2-0.2-0.3-0.2-0.6h3.6
			c0-0.1,0-0.1,0-0.2c0-0.1,0-0.1,0-0.2c0-0.4-0.1-0.7-0.2-1C154.6,15.2,154.5,14.9,154.3,14.7z M151.3,16.1c0-0.2,0.1-0.3,0.1-0.5
			c0.1-0.1,0.2-0.3,0.3-0.4c0.1-0.1,0.2-0.2,0.4-0.2c0.1-0.1,0.3-0.1,0.5-0.1c0.3,0,0.6,0.1,0.8,0.3c0.2,0.2,0.3,0.5,0.4,0.9H151.3z
			"/>
		<path d="M168.4,14.7c-0.2-0.2-0.4-0.4-0.6-0.5c-0.3-0.1-0.6-0.2-0.9-0.2c-0.3,0-0.7,0.1-1,0.2c-0.3,0.1-0.6,0.3-0.8,0.5
			c-0.2,0.2-0.4,0.5-0.5,0.8c-0.1,0.3-0.2,0.7-0.2,1c0,0.4,0.1,0.7,0.2,1c0.1,0.3,0.3,0.6,0.5,0.8c0.2,0.2,0.5,0.4,0.8,0.5
			c0.3,0.1,0.6,0.2,1,0.2c0.3,0,0.6-0.1,0.9-0.2c0.3-0.1,0.5-0.3,0.6-0.5V19h1.1v-4.9h-1.1V14.7z M168.4,17.2
			c-0.1,0.2-0.2,0.4-0.3,0.5c-0.1,0.1-0.3,0.2-0.5,0.3c-0.2,0.1-0.4,0.1-0.6,0.1c-0.2,0-0.4,0-0.6-0.1s-0.3-0.2-0.5-0.3
			c-0.1-0.1-0.2-0.3-0.3-0.5c-0.1-0.2-0.1-0.4-0.1-0.6c0-0.2,0-0.4,0.1-0.6c0.1-0.2,0.2-0.4,0.3-0.5c0.1-0.1,0.3-0.3,0.5-0.3
			c0.2-0.1,0.4-0.1,0.6-0.1c0.2,0,0.4,0,0.6,0.1c0.2,0.1,0.3,0.2,0.5,0.3c0.1,0.1,0.2,0.3,0.3,0.5c0.1,0.2,0.1,0.4,0.1,0.6
			C168.5,16.8,168.4,17,168.4,17.2z"/>
		<path d="M148.9,18c-0.2,0.1-0.3,0.1-0.5,0.1c-0.1,0-0.2,0-0.3-0.1c-0.1,0-0.2-0.1-0.2-0.2c-0.1-0.1-0.1-0.2-0.2-0.3
			c0-0.1-0.1-0.3-0.1-0.4v-2.1h1.7v-1h-1.7v-1.5h-1.1v1.5h-1v1h1v2.1c0,0.6,0.2,1.1,0.5,1.4c0.3,0.3,0.7,0.5,1.3,0.5
			c0.3,0,0.6,0,0.8-0.1c0.2-0.1,0.3-0.1,0.5-0.2l-0.4-0.9C149.1,17.9,149,18,148.9,18z"/>
		<path d="M158.5,14c-0.3,0-0.6,0.1-0.8,0.2c-0.2,0.1-0.4,0.4-0.6,0.6v-0.6h-1V19h1v-2.7c0-0.2,0-0.4,0.1-0.6
			c0.1-0.2,0.1-0.3,0.2-0.4c0.1-0.1,0.2-0.2,0.4-0.3c0.1-0.1,0.3-0.1,0.5-0.1c0.1,0,0.3,0,0.4,0c0.1,0,0.1,0,0.2,0.1l0.3-1
			c-0.1,0-0.2-0.1-0.3-0.1C158.8,14,158.6,14,158.5,14z"/>
		<path d="M173.3,14c-0.3,0-0.6,0.1-0.8,0.2c-0.2,0.1-0.4,0.4-0.6,0.6v-0.6h-1V19h1v-2.7c0-0.2,0-0.4,0.1-0.6
			c0.1-0.2,0.1-0.3,0.2-0.4c0.1-0.1,0.2-0.2,0.4-0.3c0.1-0.1,0.3-0.1,0.5-0.1c0.1,0,0.3,0,0.4,0c0.1,0,0.1,0,0.2,0.1l0.3-1
			c-0.1,0-0.2-0.1-0.3-0.1C173.6,14,173.4,14,173.3,14z"/>
		<path d="M178.2,12.1v2.6c-0.2-0.2-0.4-0.4-0.6-0.5c-0.3-0.1-0.6-0.2-0.9-0.2c-0.3,0-0.7,0.1-1,0.2c-0.3,0.1-0.6,0.3-0.8,0.5
			c-0.2,0.2-0.4,0.5-0.5,0.8c-0.1,0.3-0.2,0.7-0.2,1c0,0.4,0.1,0.7,0.2,1c0.1,0.3,0.3,0.6,0.5,0.8c0.2,0.2,0.5,0.4,0.8,0.5
			c0.3,0.1,0.6,0.2,1,0.2c0.3,0,0.6-0.1,0.9-0.2c0.3-0.1,0.5-0.3,0.6-0.5V19h1.1v-6.9H178.2z M178.2,17.2c-0.1,0.2-0.2,0.4-0.3,0.5
			c-0.1,0.1-0.3,0.2-0.5,0.3c-0.2,0.1-0.4,0.1-0.6,0.1c-0.2,0-0.4,0-0.6-0.1c-0.2-0.1-0.3-0.2-0.5-0.3c-0.1-0.1-0.2-0.3-0.3-0.5
			c-0.1-0.2-0.1-0.4-0.1-0.6c0-0.2,0-0.4,0.1-0.6c0.1-0.2,0.2-0.4,0.3-0.5c0.1-0.1,0.3-0.3,0.5-0.3c0.2-0.1,0.4-0.1,0.6-0.1
			c0.2,0,0.4,0,0.6,0.1c0.2,0.1,0.3,0.2,0.5,0.3c0.1,0.1,0.2,0.3,0.3,0.5c0.1,0.2,0.1,0.4,0.1,0.6C178.3,16.8,178.3,17,178.2,17.2z"
			/>
		<path d="M161,15.4c0.1-0.1,0.3-0.2,0.5-0.3c0.2-0.1,0.4-0.1,0.6-0.1v0c0.2,0,0.5,0,0.7,0.1c0.2,0.1,0.4,0.2,0.5,0.3l0.5-0.9
			c-0.2-0.2-0.4-0.3-0.6-0.4c-0.3-0.1-0.7-0.2-1-0.2c-0.4,0-0.7,0.1-1,0.2c-0.3,0.1-0.6,0.3-0.8,0.5c-0.2,0.2-0.4,0.5-0.5,0.8
			c-0.1,0.3-0.2,0.7-0.2,1c0,0.4,0.1,0.7,0.2,1c0.1,0.3,0.3,0.6,0.5,0.8c0.2,0.2,0.5,0.4,0.8,0.5s0.7,0.2,1,0.2c0.4,0,0.7-0.1,1-0.2
			c0.2-0.1,0.5-0.2,0.6-0.4l-0.5-0.9c-0.1,0.1-0.3,0.2-0.5,0.3c-0.2,0.1-0.4,0.1-0.7,0.1v0c-0.2,0-0.4,0-0.6-0.1
			c-0.2-0.1-0.3-0.2-0.5-0.3c-0.1-0.1-0.2-0.3-0.3-0.5c-0.1-0.2-0.1-0.4-0.1-0.6c0-0.2,0-0.4,0.1-0.6
			C160.8,15.7,160.9,15.6,161,15.4z"/>
	</g>
	<path class="st4" d="M120.2,20.5v-0.3h-0.1v-0.1h0.3v0.1h-0.1L120.2,20.5L120.2,20.5z M120.8,20.5v-0.2V20.5l-0.2,0l-0.1-0.2v0.2
		h-0.1v-0.3h0.1l0.1,0.2l0.1-0.2h0.1L120.8,20.5L120.8,20.5z"/>
	<g>
		<path d="M180.6,18.5c0.1,0,0.1,0,0.1,0c0,0,0.1,0,0.1,0.1c0,0,0.1,0.1,0.1,0.1c0,0,0,0.1,0,0.1c0,0.1,0,0.1,0,0.1
			c0,0,0,0.1-0.1,0.1c0,0-0.1,0.1-0.1,0.1c0,0-0.1,0-0.1,0c-0.1,0-0.1,0-0.2,0c0,0-0.1,0-0.1-0.1c0,0-0.1-0.1-0.1-0.1
			c0,0,0-0.1,0-0.1c0-0.1,0-0.1,0-0.1c0,0,0-0.1,0.1-0.1c0,0,0.1-0.1,0.1-0.1C180.5,18.5,180.6,18.5,180.6,18.5z M180.6,19.2
			c0,0,0.1,0,0.1,0c0,0,0.1,0,0.1-0.1c0,0,0-0.1,0.1-0.1c0,0,0-0.1,0-0.1c0,0,0-0.1,0-0.1c0,0,0-0.1-0.1-0.1c0,0-0.1,0-0.1-0.1
			c0,0-0.1,0-0.1,0c0,0-0.1,0-0.1,0c0,0-0.1,0-0.1,0.1c0,0,0,0.1-0.1,0.1c0,0,0,0.1,0,0.1c0,0,0,0.1,0,0.1c0,0,0,0.1,0.1,0.1
			c0,0,0.1,0,0.1,0.1C180.5,19.2,180.6,19.2,180.6,19.2z M180.6,18.7c0,0,0.1,0,0.1,0c0,0,0,0,0,0.1c0,0,0,0,0,0.1c0,0,0,0-0.1,0
			l0.1,0.1h-0.1l-0.1-0.1h0v0.1h-0.1v-0.3H180.6z M180.6,18.8L180.6,18.8L180.6,18.8c0.1,0.1,0.1,0.1,0.1,0.1c0,0,0,0,0,0
			c0,0,0,0,0,0C180.7,18.8,180.7,18.8,180.6,18.8L180.6,18.8z"/>
	</g>
	<path class="st4" d="M113.5,9.1c-1.7,0-3.3,0.6-4.6,1.6c1.7,1.3,2.8,3.4,2.8,5.8s-1.1,4.4-2.8,5.8c1.3,1,2.8,1.6,4.6,1.6
		c4.1,0,7.4-3.3,7.4-7.4S117.5,9.1,113.5,9.1z"/>
</g>
<g>
	<path class="st5" d="M74.9,10.4c-3,0-5.1,1.6-5.1,3.9c0,1.7,1.5,2.6,2.7,3.2c1.2,0.6,1.6,0.9,1.6,1.5c0,0.8-0.9,1.1-1.8,1.1
		c-1.2,0-1.9-0.2-2.9-0.6l-0.4-0.2l-0.4,2.6c0.7,0.3,2,0.6,3.4,0.6c3.2,0,5.3-1.6,5.3-4c0-1.3-0.8-2.4-2.6-3.2
		c-1.1-0.5-1.7-0.9-1.7-1.5c0-0.5,0.5-1,1.7-1c1,0,1.7,0.2,2.3,0.5l0.3,0.1l0.4-2.6C77,10.7,76,10.4,74.9,10.4L74.9,10.4z
		 M65.4,10.6l-1.9,11.8h3l1.9-11.8L65.4,10.6L65.4,10.6z M61,10.6l-3,8L57.7,17c-0.7-2-2.3-4.1-4.2-4.9l2.7,10.3l3.2,0l4.8-11.7
		L61,10.6L61,10.6z M83,10.6c-0.7,0-1.3,0.2-1.6,1l-4.5,10.8h3.2c0,0,0.5-1.5,0.6-1.8c0.3,0,3.4,0,3.9,0c0.1,0.4,0.4,1.8,0.4,1.8
		h2.8l-2.5-11.8L83,10.6L83,10.6z M83.3,13.8l0.2,1c0,0,0.6,2.8,0.7,3.4h-2.5c0.3-0.7,1.2-3.3,1.2-3.3C82.8,15,83.1,14.3,83.3,13.8
		L83.3,13.8z"/>
	<path class="st6" d="M55.2,10.6h-4.9l0,0.2c3.8,1,6.3,3.4,7.4,6.2l-1.1-5.4C56.4,10.9,55.9,10.7,55.2,10.6"/>
</g>
</svg>
